Palanquin_Th.ufo
<glyph name="exclam" format="1">
  <advance width="138"/>
  <unicode hex="0021"/>
  <outline>
    <contour>
      <point x="108" y="702" type="line"/>
      <point x="54" y="702" type="line"/>
      <point x="54" y="185" type="line"/>
      <point x="99" y="164" type="line"/>
    </contour>
    <contour>
      <point x="30" y="16"/>
      <point x="45" y="0"/>
      <point x="68" y="0" type="curve" smooth="yes"/>
      <point x="89" y="0"/>
      <point x="107" y="16"/>
      <point x="107" y="38" type="curve" smooth="yes"/>
      <point x="107" y="60"/>
      <point x="89" y="76"/>
      <point x="68" y="76" type="curve" smooth="yes"/>
      <point x="45" y="76"/>
      <point x="30" y="60"/>
      <point x="30" y="38" type="curve" smooth="yes"/>
    </contour>
  </outline>
</glyph>
<glyph name="quotedbl" format="1">
  <advance width="275"/>
  <unicode hex="0022"/>
  <outline>
    <contour>
      <point x="122" y="679"/>
      <point x="107" y="702"/>
      <point x="83" y="702" type="curve" smooth="yes"/>
      <point x="57" y="702"/>
      <point x="45" y="683"/>
      <point x="45" y="663" type="curve" smooth="yes"/>
      <point x="45" y="649"/>
      <point x="57" y="625"/>
      <point x="81" y="625" type="curve"/>
      <point x="79" y="589"/>
      <point x="55" y="562"/>
      <point x="20" y="543" type="curve"/>
      <point x="36" y="518" type="line"/>
      <point x="92" y="545"/>
      <point x="122" y="598"/>
      <point x="122" y="659" type="curve" smooth="yes"/>
    </contour>
    <contour>
      <point x="245" y="679"/>
      <point x="230" y="702"/>
      <point x="206" y="702" type="curve" smooth="yes"/>
      <point x="180" y="702"/>
      <point x="168" y="683"/>
      <point x="168" y="663" type="curve" smooth="yes"/>
      <point x="168" y="649"/>
      <point x="180" y="625"/>
      <point x="204" y="625" type="curve"/>
      <point x="202" y="589"/>
      <point x="178" y="562"/>
      <point x="143" y="543" type="curve"/>
      <point x="159" y="518" type="line"/>
      <point x="215" y="545"/>
      <point x="245" y="598"/>
      <point x="245" y="659" type="curve" smooth="yes"/>
    </contour>
  </outline>
</glyph>
<glyph name="dollar" format="1">
  <advance width="534"/>
  <unicode hex="0024"/>
  <outline>
    <contour>
      <point x="193" y="-111" type="line"/>
      <point x="233" y="-111" type="line"/>
      <point x="233" y="-12" type="line"/>
      <point x="240" y="-13"/>
      <point x="247" y="-13"/>
      <point x="253" y="-13" type="curve" smooth="yes"/>
      <point x="269" y="-13"/>
      <point x="285" y="-12"/>
      <point x="300" y="-10" type="curve"/>
      <point x="300" y="-107" type="line"/>
      <point x="341" y="-111" type="line"/>
      <point x="341" y="-3" type="line"/>
      <point x="432" y="19"/>
      <point x="480" y="79"/>
      <point x="480" y="157" type="curve" smooth="yes"/>
      <point x="480" y="339"/>
      <point x="118" y="377"/>
      <point x="118" y="530" type="curve" smooth="yes"/>
      <point x="118" y="600"/>
      <point x="177" y="655"/>
      <point x="274" y="655" type="curve" smooth="yes"/>
      <point x="344" y="655"/>
      <point x="383" y="637"/>
      <point x="418" y="621" type="curve"/>
      <point x="440" y="657" type="line"/>
      <point x="414" y="670"/>
      <point x="380" y="682"/>
      <point x="341" y="689" type="curve"/>
      <point x="341" y="800" type="line"/>
      <point x="300" y="800" type="line"/>
      <point x="300" y="695" type="line"/>
      <point x="291" y="695"/>
      <point x="281" y="696"/>
      <point x="272" y="696" type="curve" smooth="yes"/>
      <point x="258" y="696"/>
      <point x="245" y="695"/>
      <point x="233" y="694" type="curve"/>
      <point x="233" y="797" type="line"/>
      <point x="193" y="800" type="line"/>
      <point x="193" y="686" type="line"/>
      <point x="112" y="663"/>
      <point x="66" y="606"/>
      <point x="66" y="535" type="curve" smooth="yes"/>
      <point x="66" y="341"/>
      <point x="429" y="308"/>
      <point x="429" y="160" type="curve" smooth="yes"/>
      <point x="429" y="90"/>
      <point x="367" y="29"/>
      <point x="252" y="29" type="curve" smooth="yes"/>
      <point x="185" y="29"/>
      <point x="121" y="51"/>
      <point x="86" y="68" type="curve"/>
      <point x="71" y="29" type="line"/>
      <point x="87" y="15"/>
      <point x="142" y="0"/>
      <point x="193" y="-8" type="curve"/>
    </contour>
  </outline>
</glyph>
<glyph name="percent" format="1">
  <advance width="769"/>
  <unicode hex="0025"/>
  <outline>
    <contour>
      <point x="553" y="706" type="line"/>
      <point x="506" y="710" type="line"/>
      <point x="198" y="0" type="line"/>
      <point x="244" y="-4" type="line"/>
    </contour>
    <contour>
      <point x="324" y="640"/>
      <point x="263" y="702"/>
      <point x="172" y="702" type="curve" smooth="yes"/>
      <point x="86" y="702"/>
      <point x="20" y="636"/>
      <point x="20" y="532" type="curve" smooth="yes"/>
      <point x="20" y="424"/>
      <point x="84" y="363"/>
      <point x="173" y="363" type="curve" smooth="yes"/>
      <point x="255" y="363"/>
      <point x="324" y="428"/>
      <point x="324" y="532" type="curve" smooth="yes"/>
    </contour>
    <contour>
      <point x="67" y="619"/>
      <point x="120" y="665"/>
      <point x="172" y="665" type="curve" smooth="yes"/>
      <point x="233" y="665"/>
      <point x="277" y="617"/>
      <point x="277" y="532" type="curve" smooth="yes"/>
      <point x="277" y="445"/>
      <point x="227" y="400"/>
      <point x="173" y="400" type="curve" smooth="yes"/>
      <point x="117" y="400"/>
      <point x="67" y="449"/>
      <point x="67" y="532" type="curve" smooth="yes"/>
    </contour>
    <contour>
      <point x="749" y="276"/>
      <point x="688" y="338"/>
      <point x="597" y="338" type="curve" smooth="yes"/>
      <point x="511" y="338"/>
      <point x="445" y="272"/>
      <point x="445" y="168" type="curve" smooth="yes"/>
      <point x="445" y="60"/>
      <point x="509" y="-1"/>
      <point x="598" y="-1" type="curve" smooth="yes"/>
      <point x="680" y="-1"/>
      <point x="749" y="64"/>
      <point x="749" y="168" type="curve" smooth="yes"/>
    </contour>
    <contour>
      <point x="492" y="255"/>
      <point x="545" y="300"/>
      <point x="597" y="300" type="curve" smooth="yes"/>
      <point x="658" y="300"/>
      <point x="702" y="253"/>
      <point x="702" y="168" type="curve" smooth="yes"/>
      <point x="702" y="81"/>
      <point x="652" y="36"/>
      <point x="598" y="36" type="curve" smooth="yes"/>
      <point x="542" y="36"/>
      <point x="492" y="85"/>
      <point x="492" y="168" type="curve" smooth="yes"/>
    </contour>
  </outline>
</glyph>
<glyph name="ampersand" format="1">
  <advance width="673"/>
  <unicode hex="0026"/>
  <outline>
    <contour>
      <point x="633" y="27" type="line"/>
      <point x="533" y="120" type="line"/>
      <point x="570" y="181"/>
      <point x="589" y="256"/>
      <point x="589" y="328" type="curve"/>
      <point x="553" y="339" type="line"/>
      <point x="553" y="278"/>
      <point x="535" y="208"/>
      <point x="501" y="150" type="curve"/>
      <point x="303" y="335" type="line" smooth="yes"/>
      <point x="233" y="400"/>
      <point x="194" y="454"/>
      <point x="194" y="526" type="curve" smooth="yes"/>
      <point x="194" y="594"/>
      <point x="250" y="655"/>
      <point x="325" y="655" type="curve" smooth="yes"/>
      <point x="386" y="655"/>
      <point x="413" y="638"/>
      <point x="447" y="622" type="curve"/>
      <point x="467" y="657" type="line"/>
      <point x="436" y="676"/>
      <point x="383" y="696"/>
      <point x="316" y="696" type="curve" smooth="yes"/>
      <point x="218" y="696"/>
      <point x="147" y="617"/>
      <point x="147" y="522" type="curve" smooth="yes"/>
      <point x="147" y="477"/>
      <point x="161" y="439"/>
      <point x="184" y="404" type="curve"/>
      <point x="120" y="361"/>
      <point x="76" y="288"/>
      <point x="76" y="200" type="curve" smooth="yes"/>
      <point x="76" y="66"/>
      <point x="180" y="-13"/>
      <point x="312" y="-13" type="curve" smooth="yes"/>
      <point x="397" y="-13"/>
      <point x="465" y="27"/>
      <point x="511" y="88" type="curve"/>
      <point x="608" y="0" type="line"/>
    </contour>
    <contour>
      <point x="218" y="28"/>
      <point x="123" y="95"/>
      <point x="123" y="202" type="curve" smooth="yes"/>
      <point x="123" y="270"/>
      <point x="151" y="329"/>
      <point x="208" y="371" type="curve"/>
      <point x="226" y="349"/>
      <point x="247" y="329"/>
      <point x="268" y="310" type="curve" smooth="yes"/>
      <point x="479" y="117" type="line"/>
      <point x="440" y="65"/>
      <point x="384" y="28"/>
      <point x="315" y="28" type="curve" smooth="yes"/>
    </contour>
  </outline>
</glyph>
<glyph name="parenleft" format="1">
  <advance width="239"/>
  <unicode hex="0028"/>
  <outline>
    <contour>
      <point x="50" y="213"/>
      <point x="85" y="71"/>
      <point x="169" y="-37" type="curve"/>
      <point x="209" y="-19" type="line"/>
      <point x="150" y="43"/>
      <point x="101" y="223"/>
      <point x="101" y="321" type="curve" smooth="yes"/>
      <point x="101" y="417"/>
      <point x="150" y="594"/>
      <point x="209" y="657" type="curve"/>
      <point x="169" y="675" type="line"/>
      <point x="85" y="568"/>
      <point x="50" y="426"/>
      <point x="50" y="320" type="curve" smooth="yes"/>
    </contour>
  </outline>
</glyph>
<glyph name="parenright" format="1">
  <advance width="239"/>
  <unicode hex="0029"/>
  <outline>
    <contour>
      <point x="189" y="426"/>
      <point x="152" y="568"/>
      <point x="70" y="675" type="curve"/>
      <point x="30" y="657" type="line"/>
      <point x="88" y="594"/>
      <point x="138" y="416"/>
      <point x="138" y="319" type="curve" smooth="yes"/>
      <point x="138" y="223"/>
      <point x="88" y="43"/>
      <point x="30" y="-19" type="curve"/>
      <point x="70" y="-37" type="line"/>
      <point x="152" y="71"/>
      <point x="189" y="213"/>
      <point x="189" y="320" type="curve" smooth="yes"/>
    </contour>
  </outline>
</glyph>
<glyph name="period" format="1">
  <advance width="137"/>
  <unicode hex="002E"/>
  <outline>
    <contour>
      <point x="30" y="16"/>
      <point x="45" y="0"/>
      <point x="68" y="0" type="curve" smooth="yes"/>
      <point x="89" y="0"/>
      <point x="107" y="16"/>
      <point x="107" y="38" type="curve" smooth="yes"/>
      <point x="107" y="60"/>
      <point x="89" y="76"/>
      <point x="68" y="76" type="curve" smooth="yes"/>
      <point x="45" y="76"/>
      <point x="30" y="60"/>
      <point x="30" y="38" type="curve" smooth="yes"/>
    </contour>
  </outline>
</glyph>
<glyph name="zero" format="1">
  <advance width="558"/>
  <unicode hex="0030"/>
  <outline>
    <contour>
      <point x="145" y="579"/>
      <point x="54" y="469"/>
      <point x="54" y="288" type="curve" smooth="yes"/>
      <point x="54" y="102"/>
      <point x="143" y="-13"/>
      <point x="280" y="-13" type="curve"/>
      <point x="417" y="-13"/>
      <point x="504" y="107"/>
      <point x="504" y="289" type="curve" smooth="yes"/>
      <point x="504" y="475"/>
      <point x="417" y="579"/>
      <point x="280" y="579" type="curve"/>
    </contour>
    <contour>
      <point x="177" y="28"/>
      <point x="105" y="134"/>
      <point x="105" y="291" type="curve" smooth="yes"/>
      <point x="105" y="440"/>
      <point x="178" y="538"/>
      <point x="280" y="538" type="curve"/>
      <point x="383" y="538"/>
      <point x="453" y="441"/>
      <point x="453" y="286" type="curve" smooth="yes"/>
      <point x="453" y="136"/>
      <point x="379" y="28"/>
      <point x="280" y="28" type="curve"/>
    </contour>
  </outline>
</glyph>
<glyph name="one" format="1">
  <advance width="367"/>
  <unicode hex="0031"/>
  <outline>
    <contour>
      <point x="319" y="0" type="line"/>
      <point x="312" y="39" type="line"/>
      <point x="217" y="39" type="line"/>
      <point x="217" y="566" type="line"/>
      <point x="182" y="566" type="line"/>
      <point x="57" y="481" type="line"/>
      <point x="75" y="445" type="line"/>
      <point x="168" y="508" type="line"/>
      <point x="168" y="39" type="line"/>
      <point x="54" y="39" type="line"/>
      <point x="63" y="0" type="line"/>
    </contour>
  </outline>
</glyph>
<glyph name="two" format="1">
  <advance width="479"/>
  <unicode hex="0032"/>
  <outline>
    <contour>
      <point x="404" y="493"/>
      <point x="353" y="579"/>
      <point x="224" y="579" type="curve" smooth="yes"/>
      <point x="133" y="579"/>
      <point x="65" y="527"/>
      <point x="63" y="527" type="curve"/>
      <point x="85" y="493" type="line"/>
      <point x="86" y="494"/>
      <point x="155" y="539"/>
      <point x="222" y="539" type="curve" smooth="yes"/>
      <point x="308" y="539"/>
      <point x="352" y="484"/>
      <point x="352" y="417" type="curve" smooth="yes"/>
      <point x="352" y="352"/>
      <point x="322" y="317"/>
      <point x="235" y="238" type="curve" smooth="yes"/>
      <point x="30" y="50" type="line"/>
      <point x="30" y="0" type="line"/>
      <point x="435" y="0" type="line"/>
      <point x="427" y="39" type="line"/>
      <point x="80" y="39" type="line"/>
      <point x="255" y="196" type="line" smooth="yes"/>
      <point x="350" y="282"/>
      <point x="404" y="343"/>
      <point x="404" y="418" type="curve" smooth="yes"/>
    </contour>
  </outline>
</glyph>
<glyph name="three" format="1">
  <advance width="476"/>
  <unicode hex="0033"/>
  <outline>
    <contour>
      <point x="410" y="502"/>
      <point x="349" y="579"/>
      <point x="225" y="579" type="curve" smooth="yes"/>
      <point x="145" y="579"/>
      <point x="83" y="553"/>
      <point x="31" y="520" type="curve"/>
      <point x="62" y="489" type="line"/>
      <point x="94" y="510"/>
      <point x="149" y="538"/>
      <point x="222" y="538" type="curve" smooth="yes"/>
      <point x="307" y="538"/>
      <point x="359" y="475"/>
      <point x="359" y="416" type="curve"/>
      <point x="359" y="339"/>
      <point x="292" y="286"/>
      <point x="180" y="286" type="curve" smooth="yes"/>
      <point x="146" y="286" type="line"/>
      <point x="156" y="247" type="line"/>
      <point x="174" y="247" type="line" smooth="yes"/>
      <point x="313" y="247"/>
      <point x="371" y="190"/>
      <point x="371" y="104" type="curve" smooth="yes"/>
      <point x="371" y="22"/>
      <point x="293" y="-35"/>
      <point x="213" y="-35" type="curve" smooth="yes"/>
      <point x="139" y="-35"/>
      <point x="100" y="-18"/>
      <point x="53" y="10" type="curve"/>
      <point x="20" y="-24" type="line"/>
      <point x="66" y="-49"/>
      <point x="135" y="-76"/>
      <point x="210" y="-76" type="curve" smooth="yes"/>
      <point x="340" y="-76"/>
      <point x="422" y="3"/>
      <point x="422" y="106" type="curve" smooth="yes"/>
      <point x="422" y="188"/>
      <point x="371" y="250"/>
      <point x="296" y="268" type="curve"/>
      <point x="359" y="288"/>
      <point x="410" y="344"/>
      <point x="410" y="417" type="curve" smooth="yes"/>
    </contour>
  </outline>
</glyph>
<glyph name="four" format="1">
  <advance width="522"/>
  <unicode hex="0034"/>
  <outline>
    <contour>
      <point x="484" y="74" type="line"/>
      <point x="492" y="113" type="line"/>
      <point x="375" y="113" type="line"/>
      <point x="375" y="571" type="line"/>
      <point x="347" y="571" type="line"/>
      <point x="10" y="125" type="line"/>
      <point x="19" y="74" type="line"/>
      <point x="326" y="74" type="line"/>
      <point x="326" y="-69" type="line"/>
      <point x="375" y="-69" type="line"/>
      <point x="375" y="74" type="line"/>
    </contour>
    <contour>
      <point x="60" y="113" type="line"/>
      <point x="326" y="470" type="line"/>
      <point x="326" y="113" type="line"/>
    </contour>
  </outline>
</glyph>
<glyph name="five" format="1">
  <advance width="507"/>
  <unicode hex="0035"/>
  <outline>
    <contour>
      <point x="88" y="230" type="line"/>
      <point x="124" y="230" type="line"/>
      <point x="151" y="260"/>
      <point x="201" y="289"/>
      <point x="255" y="289" type="curve" smooth="yes"/>
      <point x="348" y="289"/>
      <point x="407" y="227"/>
      <point x="407" y="130" type="curve" smooth="yes"/>
      <point x="407" y="34"/>
      <point x="344" y="-35"/>
      <point x="232" y="-35" type="curve" smooth="yes"/>
      <point x="170" y="-35"/>
      <point x="119" y="-18"/>
      <point x="72" y="10" type="curve"/>
      <point x="48" y="-26" type="line"/>
      <point x="95" y="-51"/>
      <point x="154" y="-76"/>
      <point x="228" y="-76" type="curve" smooth="yes"/>
      <point x="380" y="-76"/>
      <point x="459" y="19"/>
      <point x="459" y="130" type="curve" smooth="yes"/>
      <point x="459" y="239"/>
      <point x="399" y="330"/>
      <point x="251" y="330" type="curve" smooth="yes"/>
      <point x="218" y="330"/>
      <point x="173" y="316"/>
      <point x="137" y="289" type="curve"/>
      <point x="148" y="527" type="line"/>
      <point x="417" y="527" type="line"/>
      <point x="420" y="566" type="line"/>
      <point x="103" y="566" type="line"/>
    </contour>
  </outline>
</glyph>
<glyph name="six" format="1">
  <advance width="506"/>
  <unicode hex="0036"/>
  <outline>
    <contour>
      <point x="329" y="634" type="line"/>
      <point x="166" y="589"/>
      <point x="54" y="408"/>
      <point x="54" y="260" type="curve" smooth="yes"/>
      <point x="54" y="82"/>
      <point x="141" y="-13"/>
      <point x="268" y="-13" type="curve" smooth="yes"/>
      <point x="386" y="-13"/>
      <point x="466" y="85"/>
      <point x="466" y="190" type="curve" smooth="yes"/>
      <point x="466" y="292"/>
      <point x="395" y="387"/>
      <point x="267" y="387" type="curve" smooth="yes"/>
      <point x="206" y="387"/>
      <point x="135" y="355"/>
      <point x="105" y="302" type="curve"/>
      <point x="132" y="450"/>
      <point x="232" y="565"/>
      <point x="353" y="601" type="curve"/>
    </contour>
    <contour>
      <point x="361" y="346"/>
      <point x="415" y="275"/>
      <point x="415" y="185" type="curve" smooth="yes"/>
      <point x="415" y="109"/>
      <point x="361" y="28"/>
      <point x="266" y="28" type="curve" smooth="yes"/>
      <point x="159" y="28"/>
      <point x="108" y="122"/>
      <point x="106" y="248" type="curve"/>
      <point x="135" y="295"/>
      <point x="193" y="346"/>
      <point x="267" y="346" type="curve" smooth="yes"/>
    </contour>
  </outline>
</glyph>
<glyph name="seven" format="1">
  <advance width="459"/>
  <unicode hex="0037"/>
  <outline>
    <contour>
      <point x="53" y="-49" type="line"/>
      <point x="99" y="-69" type="line"/>
      <point x="429" y="537" type="line"/>
      <point x="407" y="566" type="line"/>
      <point x="30" y="566" type="line"/>
      <point x="38" y="527" type="line"/>
      <point x="377" y="527" type="line"/>
    </contour>
  </outline>
</glyph>
<glyph name="eight" format="1">
  <advance width="529"/>
  <unicode hex="0038"/>
  <outline>
    <contour>
      <point x="447" y="560"/>
      <point x="395" y="643"/>
      <point x="265" y="643" type="curve" smooth="yes"/>
      <point x="137" y="643"/>
      <point x="82" y="566"/>
      <point x="82" y="481" type="curve" smooth="yes"/>
      <point x="82" y="414"/>
      <point x="130" y="363"/>
      <point x="191" y="339" type="curve"/>
      <point x="115" y="321"/>
      <point x="54" y="241"/>
      <point x="54" y="169" type="curve" smooth="yes"/>
      <point x="54" y="69"/>
      <point x="122" y="-13"/>
      <point x="265" y="-13" type="curve" smooth="yes"/>
      <point x="407" y="-13"/>
      <point x="475" y="72"/>
      <point x="475" y="169" type="curve" smooth="yes"/>
      <point x="475" y="253"/>
      <point x="410" y="322"/>
      <point x="339" y="339" type="curve"/>
      <point x="392" y="363"/>
      <point x="447" y="412"/>
      <point x="447" y="481" type="curve" smooth="yes"/>
    </contour>
    <contour>
      <point x="105" y="238"/>
      <point x="158" y="302"/>
      <point x="265" y="316" type="curve"/>
      <point x="371" y="302"/>
      <point x="424" y="238"/>
      <point x="424" y="162" type="curve" smooth="yes"/>
      <point x="424" y="84"/>
      <point x="352" y="28"/>
      <point x="265" y="28" type="curve" smooth="yes"/>
      <point x="174" y="28"/>
      <point x="105" y="85"/>
      <point x="105" y="162" type="curve" smooth="yes"/>
    </contour>
    <contour>
      <point x="132" y="543"/>
      <point x="172" y="602"/>
      <point x="262" y="602" type="curve"/>
      <point x="356" y="602"/>
      <point x="398" y="545"/>
      <point x="398" y="484" type="curve" smooth="yes"/>
      <point x="398" y="430"/>
      <point x="349" y="372"/>
      <point x="265" y="360" type="curve"/>
      <point x="179" y="372"/>
      <point x="132" y="428"/>
      <point x="132" y="484" type="curve" smooth="yes"/>
    </contour>
  </outline>
</glyph>
<glyph name="nine" format="1">
  <advance width="506"/>
  <unicode hex="0039"/>
  <outline>
    <contour>
      <point x="177" y="-69" type="line"/>
      <point x="340" y="-24"/>
      <point x="452" y="157"/>
      <point x="452" y="305" type="curve" smooth="yes"/>
      <point x="452" y="483"/>
      <point x="364" y="578"/>
      <point x="238" y="578" type="curve" smooth="yes"/>
      <point x="120" y="578"/>
      <point x="40" y="480"/>
      <point x="40" y="375" type="curve" smooth="yes"/>
      <point x="40" y="273"/>
      <point x="111" y="178"/>
      <point x="239" y="178" type="curve" smooth="yes"/>
      <point x="300" y="178"/>
      <point x="371" y="210"/>
      <point x="401" y="263" type="curve"/>
      <point x="374" y="115"/>
      <point x="274" y="0"/>
      <point x="153" y="-36" type="curve"/>
    </contour>
    <contour>
      <point x="145" y="219"/>
      <point x="91" y="290"/>
      <point x="91" y="380" type="curve" smooth="yes"/>
      <point x="91" y="456"/>
      <point x="145" y="537"/>
      <point x="240" y="537" type="curve" smooth="yes"/>
      <point x="347" y="537"/>
      <point x="398" y="443"/>
      <point x="400" y="317" type="curve"/>
      <point x="371" y="270"/>
      <point x="313" y="219"/>
      <point x="239" y="219" type="curve"/>
    </contour>
  </outline>
</glyph>
<glyph name="colon" format="1">
  <advance width="137"/>
  <unicode hex="003A"/>
  <outline>
    <contour>
      <point x="30" y="62"/>
      <point x="45" y="46"/>
      <point x="68" y="46" type="curve" smooth="yes"/>
      <point x="89" y="46"/>
      <point x="107" y="62"/>
      <point x="107" y="84" type="curve" smooth="yes"/>
      <point x="107" y="106"/>
      <point x="89" y="122"/>
      <point x="68" y="122" type="curve" smooth="yes"/>
      <point x="45" y="122"/>
      <point x="30" y="106"/>
      <point x="30" y="84" type="curve" smooth="yes"/>
    </contour>
    <contour>
      <point x="30" y="381"/>
      <point x="45" y="365"/>
      <point x="68" y="365" type="curve" smooth="yes"/>
      <point x="89" y="365"/>
      <point x="107" y="381"/>
      <point x="107" y="403" type="curve" smooth="yes"/>
      <point x="107" y="425"/>
      <point x="89" y="441"/>
      <point x="68" y="441" type="curve" smooth="yes"/>
      <point x="45" y="441"/>
      <point x="30" y="425"/>
      <point x="30" y="403" type="curve" smooth="yes"/>
    </contour>
  </outline>
</glyph>
<glyph name="semicolon" format="1">
  <advance width="152"/>
  <unicode hex="003B"/>
  <outline>
    <contour>
      <point x="45" y="381"/>
      <point x="60" y="365"/>
      <point x="83" y="365" type="curve" smooth="yes"/>
      <point x="104" y="365"/>
      <point x="122" y="381"/>
      <point x="122" y="403" type="curve" smooth="yes"/>
      <point x="122" y="425"/>
      <point x="104" y="441"/>
      <point x="83" y="441" type="curve" smooth="yes"/>
      <point x="60" y="441"/>
      <point x="45" y="425"/>
      <point x="45" y="403" type="curve" smooth="yes"/>
    </contour>
    <contour>
      <point x="122" y="99"/>
      <point x="107" y="122"/>
      <point x="83" y="122" type="curve" smooth="yes"/>
      <point x="57" y="122"/>
      <point x="45" y="103"/>
      <point x="45" y="83" type="curve" smooth="yes"/>
      <point x="45" y="69"/>
      <point x="57" y="45"/>
      <point x="81" y="45" type="curve"/>
      <point x="79" y="9"/>
      <point x="55" y="-18"/>
      <point x="20" y="-37" type="curve"/>
      <point x="36" y="-62" type="line"/>
      <point x="92" y="-35"/>
      <point x="122" y="18"/>
      <point x="122" y="79" type="curve" smooth="yes"/>
    </contour>
  </outline>
</glyph>
<glyph name="equal" format="1">
  <advance width="497"/>
  <unicode hex="003D"/>
  <outline>
    <contour>
      <point x="467" y="332" type="line"/>
      <point x="460" y="371" type="line"/>
      <point x="30" y="371" type="line"/>
      <point x="38" y="332" type="line"/>
    </contour>
    <contour>
      <point x="467" y="140" type="line"/>
      <point x="460" y="179" type="line"/>
      <point x="30" y="179" type="line"/>
      <point x="38" y="140" type="line"/>
    </contour>
  </outline>
</glyph>
<glyph name="greater" format="1">
  <advance width="322"/>
  <unicode hex="003E"/>
  <outline>
    <contour>
      <point x="43" y="470" type="line"/>
      <point x="20" y="435" type="line"/>
      <point x="246" y="244" type="line"/>
      <point x="20" y="53" type="line"/>
      <point x="43" y="19" type="line"/>
      <point x="292" y="230" type="line"/>
      <point x="292" y="258" type="line"/>
    </contour>
  </outline>
</glyph>
<glyph name="question" format="1">
  <advance width="392"/>
  <unicode hex="003F"/>
  <outline>
    <contour>
      <point x="362" y="634"/>
      <point x="305" y="702"/>
      <point x="186" y="702" type="curve" smooth="yes"/>
      <point x="107" y="702"/>
      <point x="45" y="672"/>
      <point x="10" y="641" type="curve"/>
      <point x="18" y="600" type="line"/>
      <point x="70" y="637"/>
      <point x="111" y="661"/>
      <point x="184" y="661" type="curve" smooth="yes"/>
      <point x="260" y="661"/>
      <point x="309" y="617"/>
      <point x="309" y="537" type="curve"/>
      <point x="309" y="460"/>
      <point x="243" y="397"/>
      <point x="139" y="363" type="curve"/>
      <point x="146" y="158" type="line"/>
      <point x="179" y="137" type="line"/>
      <point x="189" y="332" type="line"/>
      <point x="300" y="382"/>
      <point x="362" y="462"/>
      <point x="362" y="538" type="curve" smooth="yes"/>
    </contour>
    <contour>
      <point x="116" y="16"/>
      <point x="131" y="0"/>
      <point x="154" y="0" type="curve" smooth="yes"/>
      <point x="175" y="0"/>
      <point x="193" y="16"/>
      <point x="193" y="38" type="curve" smooth="yes"/>
      <point x="193" y="60"/>
      <point x="175" y="76"/>
      <point x="154" y="76" type="curve" smooth="yes"/>
      <point x="131" y="76"/>
      <point x="116" y="60"/>
      <point x="116" y="38" type="curve" smooth="yes"/>
    </contour>
  </outline>
</glyph>
<glyph name="at" format="1">
  <advance width="776"/>
  <unicode hex="0040"/>
  <outline>
    <contour>
      <point x="667" y="61"/>
      <point x="728" y="144"/>
      <point x="728" y="304" type="curve" smooth="yes"/>
      <point x="728" y="471"/>
      <point x="606" y="594"/>
      <point x="425" y="594" type="curve" smooth="yes"/>
      <point x="181" y="594"/>
      <point x="48" y="421"/>
      <point x="48" y="213" type="curve" smooth="yes"/>
      <point x="48" y="20"/>
      <point x="191" y="-96"/>
      <point x="356" y="-96" type="curve" smooth="yes"/>
      <point x="422" y="-96"/>
      <point x="487" y="-87"/>
      <point x="543" y="-58" type="curve"/>
      <point x="530" y="-20" type="line"/>
      <point x="488" y="-43"/>
      <point x="424" y="-55"/>
      <point x="367" y="-55" type="curve" smooth="yes"/>
      <point x="217" y="-55"/>
      <point x="99" y="46"/>
      <point x="99" y="214" type="curve" smooth="yes"/>
      <point x="99" y="419"/>
      <point x="235" y="553"/>
      <point x="422" y="553" type="curve" smooth="yes"/>
      <point x="584" y="553"/>
      <point x="680" y="450"/>
      <point x="680" y="297" type="curve" smooth="yes"/>
      <point x="680" y="165"/>
      <point x="629" y="102"/>
      <point x="568" y="102" type="curve" smooth="yes"/>
      <point x="533" y="102"/>
      <point x="510" y="124"/>
      <point x="510" y="169" type="curve" smooth="yes"/>
      <point x="510" y="173"/>
      <point x="510" y="177"/>
      <point x="511" y="183" type="curve" smooth="yes"/>
      <point x="535" y="384" type="line"/>
      <point x="519" y="404" type="line"/>
      <point x="448" y="404" type="line" smooth="yes"/>
      <point x="332" y="404"/>
      <point x="235" y="323"/>
      <point x="235" y="211" type="curve" smooth="yes"/>
      <point x="235" y="125"/>
      <point x="298" y="66"/>
      <point x="392" y="66" type="curve" smooth="yes"/>
      <point x="423" y="66"/>
      <point x="460" y="80"/>
      <point x="486" y="99" type="curve"/>
      <point x="503" y="76"/>
      <point x="530" y="61"/>
      <point x="566" y="61" type="curve" smooth="yes"/>
    </contour>
    <contour>
      <point x="328" y="103"/>
      <point x="286" y="142"/>
      <point x="286" y="211" type="curve" smooth="yes"/>
      <point x="286" y="307"/>
      <point x="359" y="367"/>
      <point x="443" y="367" type="curve" smooth="yes"/>
      <point x="488" y="367" type="line"/>
      <point x="465" y="190" type="line" smooth="yes"/>
      <point x="464" y="182"/>
      <point x="463" y="174"/>
      <point x="463" y="167" type="curve" smooth="yes"/>
      <point x="463" y="153"/>
      <point x="465" y="138"/>
      <point x="470" y="125" type="curve"/>
      <point x="452" y="113"/>
      <point x="421" y="103"/>
      <point x="392" y="103" type="curve" smooth="yes"/>
    </contour>
  </outline>
</glyph>
<glyph name="A" format="1">
  <advance width="592"/>
  <unicode hex="0041"/>
  <outline>
    <contour>
      <point x="313" y="680" type="line"/>
      <point x="267" y="680" type="line"/>
      <point x="20" y="0" type="line"/>
      <point x="69" y="0" type="line"/>
      <point x="146" y="213" type="line"/>
      <point x="441" y="213" type="line"/>
      <point x="522" y="0" type="line"/>
      <point x="572" y="11" type="line"/>
    </contour>
    <contour>
      <point x="291" y="614" type="line"/>
      <point x="427" y="252" type="line"/>
      <point x="160" y="252" type="line"/>
    </contour>
    <contour>
      <point x="290" y="702" type="move" name="topU"/>
    </contour>
    <contour>
      <point x="547" y="0" type="move" name="bottom"/>
    </contour>
  </outline>
</glyph>
<glyph name="B" format="1">
  <advance width="585"/>
  <unicode hex="0042"/>
  <outline>
    <contour>
      <point x="100" y="0" type="line"/>
      <point x="269" y="0" type="line" smooth="yes"/>
      <point x="410" y="0"/>
      <point x="525" y="44"/>
      <point x="525" y="188" type="curve" smooth="yes"/>
      <point x="525" y="283"/>
      <point x="469" y="337"/>
      <point x="386" y="362" type="curve"/>
      <point x="441" y="389"/>
      <point x="477" y="435"/>
      <point x="477" y="503" type="curve" smooth="yes"/>
      <point x="477" y="640"/>
      <point x="376" y="680"/>
      <point x="232" y="680" type="curve" smooth="yes"/>
      <point x="100" y="680" type="line"/>
    </contour>
    <contour>
      <point x="292" y="333" type="line" smooth="yes"/>
      <point x="402" y="333"/>
      <point x="473" y="288"/>
      <point x="473" y="186" type="curve" smooth="yes"/>
      <point x="473" y="80"/>
      <point x="388" y="39"/>
      <point x="281" y="39" type="curve" smooth="yes"/>
      <point x="150" y="39" type="line"/>
      <point x="150" y="333" type="line"/>
    </contour>
    <contour>
      <point x="244" y="641" type="line" smooth="yes"/>
      <point x="354" y="641"/>
      <point x="425" y="607"/>
      <point x="425" y="502" type="curve" smooth="yes"/>
      <point x="425" y="405"/>
      <point x="346" y="373"/>
      <point x="241" y="372" type="curve"/>
      <point x="150" y="372" type="line"/>
      <point x="150" y="641" type="line"/>
    </contour>
  </outline>
</glyph>
<glyph name="E" format="1">
  <advance width="515"/>
  <unicode hex="0045"/>
  <outline>
    <contour>
      <point x="100" y="0" type="line"/>
      <point x="475" y="0" type="line"/>
      <point x="469" y="39" type="line"/>
      <point x="149" y="39" type="line"/>
      <point x="149" y="329" type="line"/>
      <point x="354" y="329" type="line"/>
      <point x="349" y="368" type="line"/>
      <point x="149" y="368" type="line"/>
      <point x="149" y="641" type="line"/>
      <point x="452" y="641" type="line"/>
      <point x="447" y="680" type="line"/>
      <point x="100" y="680" type="line"/>
    </contour>
    <contour>
      <point x="264" y="702" type="move" name="topU"/>
    </contour>
    <contour>
      <point x="372" y="0" type="move" name="bottom"/>
    </contour>
  </outline>
</glyph>
<glyph name="F" format="1">
  <advance width="473"/>
  <unicode hex="0046"/>
  <outline>
    <contour>
      <point x="344" y="325" type="line"/>
      <point x="338" y="364" type="line"/>
      <point x="149" y="364" type="line"/>
      <point x="149" y="641" type="line"/>
      <point x="443" y="641" type="line"/>
      <point x="436" y="680" type="line"/>
      <point x="100" y="680" type="line"/>
      <point x="100" y="0" type="line"/>
      <point x="149" y="0" type="line"/>
      <point x="149" y="325" type="line"/>
    </contour>
  </outline>
</glyph>
<glyph name="G" format="1">
  <advance width="630"/>
  <unicode hex="0047"/>
  <outline>
    <contour>
      <point x="352" y="342" type="line"/>
      <point x="346" y="303" type="line"/>
      <point x="499" y="303" type="line"/>
      <point x="499" y="52" type="line"/>
      <point x="466" y="40"/>
      <point x="425" y="29"/>
      <point x="377" y="29" type="curve" smooth="yes"/>
      <point x="221" y="29"/>
      <point x="121" y="142"/>
      <point x="121" y="325" type="curve" smooth="yes"/>
      <point x="121" y="519"/>
      <point x="217" y="653"/>
      <point x="386" y="653" type="curve" smooth="yes"/>
      <point x="457" y="653"/>
      <point x="489" y="641"/>
      <point x="531" y="624" type="curve"/>
      <point x="550" y="657" type="line"/>
      <point x="513" y="683"/>
      <point x="425" y="694"/>
      <point x="384" y="694" type="curve" smooth="yes"/>
      <point x="188" y="694"/>
      <point x="66" y="545"/>
      <point x="66" y="336" type="curve" smooth="yes"/>
      <point x="66" y="136"/>
      <point x="170" y="-14"/>
      <point x="378" y="-14" type="curve" smooth="yes"/>
      <point x="435" y="-14"/>
      <point x="511" y="6"/>
      <point x="548" y="31" type="curve"/>
      <point x="548" y="342" type="line"/>
    </contour>
    <contour>
      <point x="384" y="702" type="move" name="topU"/>
    </contour>
    <contour>
      <point x="377" y="0" type="move" name="bottom"/>
    </contour>
  </outline>
</glyph>
<glyph name="H" format="1">
  <advance width="635"/>
  <unicode hex="0048"/>
  <outline>
    <contour>
      <point x="486" y="0" type="line"/>
      <point x="535" y="0" type="line"/>
      <point x="535" y="680" type="line"/>
      <point x="486" y="680" type="line"/>
      <point x="486" y="364" type="line"/>
      <point x="149" y="364" type="line"/>
      <point x="149" y="685" type="line"/>
      <point x="100" y="680" type="line"/>
      <point x="100" y="0" type="line"/>
      <point x="149" y="0" type="line"/>
      <point x="149" y="325" type="line"/>
      <point x="486" y="325" type="line"/>
    </contour>
  </outline>
</glyph>
<glyph name="I" format="1">
  <advance width="249"/>
  <unicode hex="0049"/>
  <outline>
    <contour>
      <point x="100" y="0" type="line"/>
      <point x="149" y="0" type="line"/>
      <point x="149" y="680" type="line"/>
      <point x="100" y="680" type="line"/>
    </contour>
    <contour>
      <point x="131" y="702" type="move" name="topU"/>
    </contour>
    <contour>
      <point x="125" y="0" type="move" name="bottom"/>
    </contour>
  </outline>
</glyph>
<glyph name="J" format="1">
  <advance width="247"/>
  <unicode hex="004A"/>
  <outline>
    <contour>
      <point x="108" y="129" type="line" smooth="yes"/>
      <point x="108" y="48"/>
      <point x="87" y="35"/>
      <point x="20" y="10" type="curve"/>
      <point x="44" y="-22" type="line"/>
      <point x="140" y="8"/>
      <point x="157" y="41"/>
      <point x="157" y="122" type="curve" smooth="yes"/>
      <point x="157" y="680" type="line"/>
      <point x="108" y="680" type="line"/>
    </contour>
  </outline>
</glyph>
<glyph name="K" format="1">
  <advance width="580"/>
  <unicode hex="004B"/>
  <outline>
    <contour>
      <point x="519" y="663" type="line"/>
      <point x="485" y="695" type="line"/>
      <point x="149" y="325" type="line"/>
      <point x="149" y="680" type="line"/>
      <point x="100" y="680" type="line"/>
      <point x="100" y="0" type="line"/>
      <point x="149" y="0" type="line"/>
      <point x="149" y="269" type="line"/>
      <point x="236" y="362" type="line"/>
      <point x="508" y="0" type="line"/>
      <point x="570" y="0" type="line"/>
      <point x="269" y="397" type="line"/>
    </contour>
    <contour>
      <point x="314" y="0" type="move" name="bottom"/>
    </contour>
  </outline>
</glyph>
<glyph name="L" format="1">
  <advance width="491"/>
  <unicode hex="004C"/>
  <outline>
    <contour>
      <point x="471" y="0" type="line"/>
      <point x="466" y="39" type="line"/>
      <point x="149" y="39" type="line"/>
      <point x="149" y="680" type="line"/>
      <point x="100" y="680" type="line"/>
      <point x="100" y="0" type="line"/>
    </contour>
    <contour>
      <point x="182" y="702" type="move" name="topU"/>
    </contour>
    <contour>
      <point x="299" y="0" type="move" name="bottom"/>
    </contour>
  </outline>
</glyph>
<glyph name="N" format="1">
  <advance width="658"/>
  <unicode hex="004E"/>
  <outline>
    <contour>
      <point x="100" y="0" type="line"/>
      <point x="149" y="0" type="line"/>
      <point x="149" y="574" type="line"/>
      <point x="163" y="545" type="line"/>
      <point x="531" y="0" type="line"/>
      <point x="558" y="0" type="line"/>
      <point x="558" y="680" type="line"/>
      <point x="509" y="680" type="line"/>
      <point x="509" y="111" type="line"/>
      <point x="475" y="170" type="line"/>
      <point x="128" y="680" type="line"/>
      <point x="100" y="680" type="line"/>
    </contour>
    <contour>
      <point x="347" y="702" type="move" name="topU"/>
    </contour>
    <contour>
      <point x="333" y="0" type="move" name="bottom"/>
    </contour>
  </outline>
</glyph>
<glyph name="Q" format="1">
  <advance width="699"/>
  <unicode hex="0051"/>
  <outline>
    <contour>
      <point x="633" y="531"/>
      <point x="551" y="696"/>
      <point x="353" y="696" type="curve" smooth="yes"/>
      <point x="167" y="696"/>
      <point x="66" y="537"/>
      <point x="66" y="337" type="curve" smooth="yes"/>
      <point x="66" y="152"/>
      <point x="148" y="-14"/>
      <point x="347" y="-14" type="curve" smooth="yes"/>
      <point x="419" y="-14"/>
      <point x="478" y="11"/>
      <point x="523" y="52" type="curve"/>
      <point x="594" y="-14" type="line"/>
      <point x="626" y="11" type="line"/>
      <point x="552" y="83" type="line"/>
      <point x="606" y="150"/>
      <point x="633" y="245"/>
      <point x="633" y="345" type="curve" smooth="yes"/>
    </contour>
    <contour>
      <point x="189" y="27"/>
      <point x="121" y="175"/>
      <point x="121" y="338" type="curve" smooth="yes"/>
      <point x="121" y="514"/>
      <point x="211" y="654"/>
      <point x="354" y="654" type="curve" smooth="yes"/>
      <point x="511" y="654"/>
      <point x="578" y="507"/>
      <point x="578" y="344" type="curve" smooth="yes"/>
      <point x="578" y="256"/>
      <point x="556" y="176"/>
      <point x="516" y="119" type="curve"/>
      <point x="415" y="219" type="line"/>
      <point x="381" y="186" type="line"/>
      <point x="487" y="86" type="line"/>
      <point x="450" y="48"/>
      <point x="402" y="27"/>
      <point x="345" y="27" type="curve" smooth="yes"/>
    </contour>
  </outline>
</glyph>
<glyph name="S" format="1">
  <advance width="534"/>
  <unicode hex="0053"/>
  <outline>
    <contour>
      <point x="185" y="29"/>
      <point x="121" y="51"/>
      <point x="86" y="68" type="curve"/>
      <point x="71" y="29" type="line"/>
      <point x="94" y="9"/>
      <point x="195" y="-13"/>
      <point x="253" y="-13" type="curve" smooth="yes"/>
      <point x="402" y="-13"/>
      <point x="480" y="57"/>
      <point x="480" y="157" type="curve" smooth="yes"/>
      <point x="480" y="339"/>
      <point x="118" y="377"/>
      <point x="118" y="530" type="curve" smooth="yes"/>
      <point x="118" y="600"/>
      <point x="177" y="655"/>
      <point x="274" y="655" type="curve" smooth="yes"/>
      <point x="344" y="655"/>
      <point x="383" y="637"/>
      <point x="418" y="621" type="curve"/>
      <point x="440" y="657" type="line"/>
      <point x="400" y="677"/>
      <point x="339" y="696"/>
      <point x="272" y="696" type="curve" smooth="yes"/>
      <point x="143" y="696"/>
      <point x="66" y="627"/>
      <point x="66" y="535" type="curve" smooth="yes"/>
      <point x="66" y="341"/>
      <point x="429" y="308"/>
      <point x="429" y="160" type="curve" smooth="yes"/>
      <point x="429" y="90"/>
      <point x="367" y="29"/>
      <point x="252" y="29" type="curve" smooth="yes"/>
    </contour>
    <contour>
      <point x="272" y="702" type="move" name="topU"/>
    </contour>
    <contour>
      <point x="252" y="0" type="move" name="bottom"/>
    </contour>
  </outline>
</glyph>
<glyph name="V" format="1">
  <advance width="592"/>
  <unicode hex="0056"/>
  <outline>
    <contour>
      <point x="279" y="0" type="line"/>
      <point x="325" y="0" type="line"/>
      <point x="572" y="680" type="line"/>
      <point x="523" y="680" type="line"/>
      <point x="301" y="66" type="line"/>
      <point x="70" y="680" type="line"/>
      <point x="20" y="669" type="line"/>
    </contour>
  </outline>
</glyph>
<glyph name="W" format="1">
  <advance width="950"/>
  <unicode hex="0057"/>
  <outline>
    <contour>
      <point x="669" y="0" type="line"/>
      <point x="715" y="0" type="line"/>
      <point x="930" y="680" type="line"/>
      <point x="881" y="680" type="line"/>
      <point x="691" y="71" type="line"/>
      <point x="500" y="680" type="line"/>
      <point x="451" y="680" type="line"/>
      <point x="261" y="71" type="line"/>
      <point x="70" y="680" type="line"/>
      <point x="20" y="669" type="line"/>
      <point x="239" y="0" type="line"/>
      <point x="285" y="0" type="line"/>
      <point x="473" y="596" type="line"/>
    </contour>
  </outline>
</glyph>
<glyph name="X" format="1">
  <advance width="583"/>
  <unicode hex="0058"/>
  <outline>
    <contour>
      <point x="20" y="0" type="line"/>
      <point x="72" y="-10" type="line"/>
      <point x="291" y="311" type="line"/>
      <point x="504" y="0" type="line"/>
      <point x="563" y="0" type="line"/>
      <point x="328" y="337" type="line"/>
      <point x="563" y="680" type="line"/>
      <point x="509" y="680" type="line"/>
      <point x="301" y="379" type="line"/>
      <point x="96" y="680" type="line"/>
      <point x="41" y="669" type="line"/>
      <point x="263" y="347" type="line"/>
    </contour>
  </outline>
</glyph>
<glyph name="Y" format="1">
  <advance width="536"/>
  <unicode hex="0059"/>
  <outline>
    <contour>
      <point x="241" y="0" type="line"/>
      <point x="290" y="0" type="line"/>
      <point x="290" y="274" type="line"/>
      <point x="526" y="680" type="line"/>
      <point x="469" y="680" type="line"/>
      <point x="265" y="321" type="line"/>
      <point x="65" y="680" type="line"/>
      <point x="10" y="669" type="line"/>
      <point x="241" y="269" type="line"/>
    </contour>
    <contour>
      <point x="266" y="702" type="move" name="topU"/>
    </contour>
  </outline>
</glyph>
<glyph name="Z" format="1">
  <advance width="519"/>
  <unicode hex="005A"/>
  <outline>
    <contour>
      <point x="474" y="0" type="line"/>
      <point x="469" y="39" type="line"/>
      <point x="79" y="39" type="line"/>
      <point x="489" y="631" type="line"/>
      <point x="484" y="680" type="line"/>
      <point x="57" y="680" type="line"/>
      <point x="67" y="641" type="line"/>
      <point x="443" y="641" type="line"/>
      <point x="30" y="50" type="line"/>
      <point x="36" y="0" type="line"/>
    </contour>
    <contour>
      <point x="285" y="702" type="move" name="topU"/>
    </contour>
  </outline>
</glyph>
<glyph name="backslash" format="1">
  <advance width="375"/>
  <unicode hex="005C"/>
  <outline>
    <contour>
      <point x="318" y="-4" type="line"/>
      <point x="365" y="0" type="line"/>
      <point x="57" y="710" type="line"/>
      <point x="10" y="706" type="line"/>
    </contour>
  </outline>
</glyph>
<glyph name="asciicircum" format="1">
  <advance width="427"/>
  <unicode hex="005E"/>
  <outline>
    <contour>
      <point x="68" y="143" type="line"/>
      <point x="214" y="348" type="line"/>
      <point x="359" y="143" type="line"/>
      <point x="407" y="143" type="line"/>
      <point x="235" y="390" type="line"/>
      <point x="192" y="390" type="line"/>
      <point x="20" y="143" type="line"/>
    </contour>
  </outline>
</glyph>
<glyph name="underscore" format="1">
  <advance width="429"/>
  <unicode hex="005F"/>
  <outline>
    <contour>
      <point x="399" y="0" type="line"/>
      <point x="391" y="39" type="line"/>
      <point x="30" y="39" type="line"/>
      <point x="38" y="0" type="line"/>
    </contour>
  </outline>
</glyph>
<glyph name="grave" format="1">
  <advance width="142"/>
  <unicode hex="0060"/>
  <outline>
    <contour>
      <point x="10" y="742" type="line"/>
      <point x="95" y="589" type="line"/>
      <point x="132" y="589" type="line"/>
      <point x="71" y="742" type="line"/>
    </contour>
    <contour>
      <point x="95" y="535" type="move" name="_top"/>
    </contour>
  </outline>
</glyph>
<glyph name="b" format="1">
  <advance width="520"/>
  <unicode hex="0062"/>
  <outline>
    <contour>
      <point x="80" y="0" type="line"/>
      <point x="108" y="0" type="line"/>
      <point x="123" y="43" type="line"/>
      <point x="165" y="10"/>
      <point x="217" y="-13"/>
      <point x="264" y="-13" type="curve" smooth="yes"/>
      <point x="407" y="-13"/>
      <point x="472" y="93"/>
      <point x="472" y="242" type="curve" smooth="yes"/>
      <point x="472" y="391"/>
      <point x="407" y="498"/>
      <point x="264" y="498" type="curve" smooth="yes"/>
      <point x="219" y="498"/>
      <point x="169" y="475"/>
      <point x="129" y="444" type="curve"/>
      <point x="129" y="706" type="line"/>
      <point x="80" y="696" type="line"/>
    </contour>
    <contour>
      <point x="226" y="28"/>
      <point x="171" y="47"/>
      <point x="129" y="86" type="curve"/>
      <point x="129" y="398" type="line"/>
      <point x="171" y="437"/>
      <point x="226" y="457"/>
      <point x="266" y="457" type="curve" smooth="yes"/>
      <point x="376" y="457"/>
      <point x="421" y="360"/>
      <point x="421" y="241" type="curve" smooth="yes"/>
      <point x="421" y="123"/>
      <point x="376" y="28"/>
      <point x="266" y="28" type="curve" smooth="yes"/>
    </contour>
  </outline>
</glyph>
<glyph name="c" format="1">
  <advance width="449"/>
  <unicode hex="0063"/>
  <outline>
    <contour>
      <point x="299" y="-13"/>
      <point x="356" y="3"/>
      <point x="396" y="28" type="curve"/>
      <point x="376" y="62" type="line"/>
      <point x="341" y="44"/>
      <point x="324" y="28"/>
      <point x="257" y="28" type="curve" smooth="yes"/>
      <point x="147" y="28"/>
      <point x="99" y="127"/>
      <point x="99" y="246" type="curve" smooth="yes"/>
      <point x="99" y="360"/>
      <point x="155" y="457"/>
      <point x="262" y="457" type="curve" smooth="yes"/>
      <point x="323" y="457"/>
      <point x="347" y="439"/>
      <point x="381" y="423" type="curve"/>
      <point x="401" y="456" type="line"/>
      <point x="362" y="482"/>
      <point x="303" y="498"/>
      <point x="264" y="498" type="curve" smooth="yes"/>
      <point x="121" y="498"/>
      <point x="48" y="391"/>
      <point x="48" y="245" type="curve" smooth="yes"/>
      <point x="48" y="94"/>
      <point x="114" y="-13"/>
      <point x="257" y="-13" type="curve" smooth="yes"/>
    </contour>
    <contour>
      <point x="255" y="535" type="move" name="top"/>
    </contour>
    <contour>
      <point x="249" y="0" type="move" name="bottom"/>
    </contour>
  </outline>
</glyph>
<glyph name="d" format="1">
  <advance width="520"/>
  <unicode hex="0064"/>
  <outline>
    <contour>
      <point x="440" y="705" type="line"/>
      <point x="391" y="696" type="line"/>
      <point x="391" y="444" type="line"/>
      <point x="352" y="475"/>
      <point x="300" y="498"/>
      <point x="256" y="498" type="curve" smooth="yes"/>
      <point x="114" y="498"/>
      <point x="48" y="391"/>
      <point x="48" y="241" type="curve" smooth="yes"/>
      <point x="48" y="92"/>
      <point x="114" y="-13"/>
      <point x="256" y="-13" type="curve" smooth="yes"/>
      <point x="303" y="-13"/>
      <point x="356" y="10"/>
      <point x="397" y="43" type="curve"/>
      <point x="413" y="0" type="line"/>
      <point x="440" y="0" type="line"/>
    </contour>
    <contour>
      <point x="294" y="457"/>
      <point x="349" y="438"/>
      <point x="391" y="399" type="curve"/>
      <point x="391" y="87" type="line"/>
      <point x="349" y="48"/>
      <point x="294" y="28"/>
      <point x="254" y="28" type="curve" smooth="yes"/>
      <point x="144" y="28"/>
      <point x="99" y="125"/>
      <point x="99" y="244" type="curve" smooth="yes"/>
      <point x="99" y="362"/>
      <point x="144" y="457"/>
      <point x="254" y="457" type="curve"/>
    </contour>
  </outline>
</glyph>
<glyph name="e" format="1">
  <advance width="496"/>
  <unicode hex="0065"/>
  <outline>
    <contour>
      <point x="448" y="242" type="line"/>
      <point x="448" y="391"/>
      <point x="373" y="498"/>
      <point x="260" y="498" type="curve" smooth="yes"/>
      <point x="117" y="498"/>
      <point x="48" y="391"/>
      <point x="48" y="245" type="curve" smooth="yes"/>
      <point x="48" y="94"/>
      <point x="119" y="-13"/>
      <point x="278" y="-13" type="curve" smooth="yes"/>
      <point x="317" y="-13"/>
      <point x="393" y="0"/>
      <point x="433" y="25" type="curve"/>
      <point x="413" y="62" type="line"/>
      <point x="379" y="45"/>
      <point x="341" y="28"/>
      <point x="270" y="28" type="curve" smooth="yes"/>
      <point x="149" y="28"/>
      <point x="100" y="126"/>
      <point x="99" y="242" type="curve"/>
    </contour>
    <contour>
      <point x="349" y="457"/>
      <point x="387" y="374"/>
      <point x="396" y="279" type="curve"/>
      <point x="101" y="279" type="line"/>
      <point x="111" y="374"/>
      <point x="157" y="457"/>
      <point x="253" y="457" type="curve" smooth="yes"/>
    </contour>
    <contour>
      <point x="255" y="535" type="move" name="top"/>
    </contour>
    <contour>
      <point x="296" y="0" type="move" name="bottom"/>
    </contour>
  </outline>
</glyph>
<glyph name="f" format="1">
  <advance width="272"/>
  <unicode hex="0066"/>
  <outline>
    <contour>
      <point x="28" y="470" type="line"/>
      <point x="28" y="433" type="line"/>
      <point x="101" y="433" type="line"/>
      <point x="101" y="0" type="line"/>
      <point x="150" y="0" type="line"/>
      <point x="150" y="433" type="line"/>
      <point x="259" y="433" type="line"/>
      <point x="238" y="470" type="line"/>
      <point x="150" y="470" type="line"/>
      <point x="150" y="579" type="line" smooth="yes"/>
      <point x="150" y="627"/>
      <point x="168" y="661"/>
      <point x="219" y="661" type="curve" smooth="yes"/>
      <point x="233" y="661"/>
      <point x="252" y="656"/>
      <point x="260" y="652" type="curve"/>
      <point x="272" y="689" type="line"/>
      <point x="259" y="694"/>
      <point x="233" y="702"/>
      <point x="206" y="702" type="curve" smooth="yes"/>
      <point x="134" y="702"/>
      <point x="101" y="647"/>
      <point x="101" y="563" type="curve" smooth="yes"/>
      <point x="101" y="470" type="line"/>
    </contour>
  </outline>
</glyph>
<glyph name="h" format="1">
  <advance width="516"/>
  <unicode hex="0068"/>
  <outline>
    <contour>
      <point x="80" y="0" type="line"/>
      <point x="129" y="0" type="line"/>
      <point x="129" y="365" type="line"/>
      <point x="175" y="423"/>
      <point x="250" y="457"/>
      <point x="293" y="457" type="curve" smooth="yes"/>
      <point x="364" y="456"/>
      <point x="395" y="404"/>
      <point x="395" y="337" type="curve" smooth="yes"/>
      <point x="395" y="1" type="line"/>
      <point x="444" y="1" type="line"/>
      <point x="444" y="337" type="line" smooth="yes"/>
      <point x="444" y="431"/>
      <point x="405" y="498"/>
      <point x="300" y="498" type="curve" smooth="yes"/>
      <point x="240" y="498"/>
      <point x="170" y="458"/>
      <point x="129" y="411" type="curve"/>
      <point x="129" y="706" type="line"/>
      <point x="80" y="696" type="line"/>
    </contour>
  </outline>
</glyph>
<glyph name="i" format="1">
  <advance width="217"/>
  <unicode hex="0069"/>
  <outline>
    <contour>
      <point x="84" y="0" type="line"/>
      <point x="133" y="0" type="line"/>
      <point x="133" y="485" type="line"/>
      <point x="84" y="485" type="line"/>
    </contour>
    <contour>
      <point x="70" y="616"/>
      <point x="85" y="600"/>
      <point x="108" y="600" type="curve" smooth="yes"/>
      <point x="129" y="600"/>
      <point x="147" y="616"/>
      <point x="147" y="638" type="curve" smooth="yes"/>
      <point x="147" y="660"/>
      <point x="129" y="676"/>
      <point x="108" y="676" type="curve" smooth="yes"/>
      <point x="85" y="676"/>
      <point x="70" y="660"/>
      <point x="70" y="638" type="curve" smooth="yes"/>
    </contour>
    <contour>
      <point x="99" y="0" type="move" name="bottom"/>
    </contour>
  </outline>
</glyph>
<glyph name="j" format="1">
  <advance width="217"/>
  <unicode hex="006A"/>
  <outline>
    <contour>
      <point x="70" y="616"/>
      <point x="85" y="600"/>
      <point x="108" y="600" type="curve" smooth="yes"/>
      <point x="129" y="600"/>
      <point x="147" y="616"/>
      <point x="147" y="638" type="curve" smooth="yes"/>
      <point x="147" y="660"/>
      <point x="129" y="676"/>
      <point x="108" y="676" type="curve" smooth="yes"/>
      <point x="85" y="676"/>
      <point x="70" y="660"/>
      <point x="70" y="638" type="curve" smooth="yes"/>
    </contour>
    <contour>
      <point x="84" y="-54" type="line" smooth="yes"/>
      <point x="84" y="-131"/>
      <point x="54" y="-158"/>
      <point x="-13" y="-183" type="curve"/>
      <point x="5" y="-219" type="line"/>
      <point x="102" y="-188"/>
      <point x="133" y="-146"/>
      <point x="133" y="-62" type="curve" smooth="yes"/>
      <point x="133" y="485" type="line"/>
      <point x="84" y="485" type="line"/>
    </contour>
  </outline>
</glyph>
<glyph name="k" format="1">
  <advance width="453"/>
  <unicode hex="006B"/>
  <outline>
    <contour>
      <point x="80" y="0" type="line"/>
      <point x="129" y="0" type="line"/>
      <point x="129" y="206" type="line"/>
      <point x="203" y="280" type="line"/>
      <point x="390" y="0" type="line"/>
      <point x="449" y="0" type="line"/>
      <point x="236" y="313" type="line"/>
      <point x="391" y="467" type="line"/>
      <point x="354" y="498" type="line"/>
      <point x="129" y="264" type="line"/>
      <point x="129" y="706" type="line"/>
      <point x="80" y="696" type="line"/>
    </contour>
    <contour>
      <point x="238" y="0" type="move" name="bottom"/>
    </contour>
  </outline>
</glyph>
<glyph name="l" format="1">
  <advance width="209"/>
  <unicode hex="006C"/>
  <outline>
    <contour>
      <point x="80" y="0" type="line"/>
      <point x="129" y="0" type="line"/>
      <point x="129" y="706" type="line"/>
      <point x="80" y="696" type="line"/>
    </contour>
    <contour>
      <point x="96" y="0" type="move" name="bottom"/>
    </contour>
  </outline>
</glyph>
<glyph name="m" format="1">
  <advance width="793"/>
  <unicode hex="006D"/>
  <outline>
    <contour>
      <point x="80" y="0" type="line"/>
      <point x="129" y="0" type="line"/>
      <point x="129" y="374" type="line"/>
      <point x="175" y="427"/>
      <point x="231" y="457"/>
      <point x="278" y="457" type="curve" smooth="yes"/>
      <point x="348" y="456"/>
      <point x="378" y="404"/>
      <point x="378" y="337" type="curve" smooth="yes"/>
      <point x="378" y="0" type="line"/>
      <point x="427" y="0" type="line"/>
      <point x="427" y="349" type="line" smooth="yes"/>
      <point x="427" y="360"/>
      <point x="427" y="366"/>
      <point x="425" y="378" type="curve"/>
      <point x="471" y="427"/>
      <point x="525" y="457"/>
      <point x="570" y="457" type="curve" smooth="yes"/>
      <point x="640" y="456"/>
      <point x="672" y="404"/>
      <point x="672" y="337" type="curve" smooth="yes"/>
      <point x="672" y="0" type="line"/>
      <point x="721" y="0" type="line"/>
      <point x="721" y="337" type="line" smooth="yes"/>
      <point x="721" y="431"/>
      <point x="683" y="498"/>
      <point x="577" y="498" type="curve" smooth="yes"/>
      <point x="519" y="498"/>
      <point x="453" y="461"/>
      <point x="411" y="417" type="curve"/>
      <point x="389" y="466"/>
      <point x="355" y="498"/>
      <point x="284" y="498" type="curve" smooth="yes"/>
      <point x="230" y="498"/>
      <point x="170" y="466"/>
      <point x="128" y="426" type="curve"/>
      <point x="108" y="485" type="line"/>
      <point x="80" y="485" type="line"/>
    </contour>
  </outline>
</glyph>
<glyph name="n" format="1">
  <advance width="516"/>
  <unicode hex="006E"/>
  <outline>
    <contour>
      <point x="80" y="0" type="line"/>
      <point x="129" y="0" type="line"/>
      <point x="129" y="364" type="line"/>
      <point x="175" y="422"/>
      <point x="250" y="457"/>
      <point x="293" y="457" type="curve" smooth="yes"/>
      <point x="364" y="456"/>
      <point x="395" y="404"/>
      <point x="395" y="337" type="curve" smooth="yes"/>
      <point x="395" y="0" type="line"/>
      <point x="444" y="0" type="line"/>
      <point x="444" y="337" type="line" smooth="yes"/>
      <point x="444" y="431"/>
      <point x="405" y="498"/>
      <point x="300" y="498" type="curve" smooth="yes"/>
      <point x="240" y="498"/>
      <point x="169" y="457"/>
      <point x="128" y="409" type="curve"/>
      <point x="108" y="485" type="line"/>
      <point x="80" y="485" type="line"/>
    </contour>
    <contour>
      <point x="300" y="535" type="move" name="top"/>
    </contour>
    <contour>
      <point x="260" y="0" type="move" name="bottom"/>
    </contour>
  </outline>
</glyph>
<glyph name="p" format="1">
  <advance width="520"/>
  <unicode hex="0070"/>
  <outline>
    <contour>
      <point x="80" y="-219" type="line"/>
      <point x="129" y="-208" type="line"/>
      <point x="129" y="40" type="line"/>
      <point x="169" y="8"/>
      <point x="219" y="-13"/>
      <point x="264" y="-13" type="curve" smooth="yes"/>
      <point x="407" y="-13"/>
      <point x="472" y="93"/>
      <point x="472" y="242" type="curve" smooth="yes"/>
      <point x="472" y="391"/>
      <point x="407" y="498"/>
      <point x="264" y="498" type="curve" smooth="yes"/>
      <point x="217" y="498"/>
      <point x="164" y="472"/>
      <point x="123" y="440" type="curve"/>
      <point x="108" y="485" type="line"/>
      <point x="80" y="485" type="line"/>
    </contour>
    <contour>
      <point x="226" y="28"/>
      <point x="171" y="47"/>
      <point x="129" y="86" type="curve"/>
      <point x="129" y="398" type="line"/>
      <point x="171" y="437"/>
      <point x="226" y="457"/>
      <point x="266" y="457" type="curve" smooth="yes"/>
      <point x="376" y="457"/>
      <point x="421" y="360"/>
      <point x="421" y="241" type="curve" smooth="yes"/>
      <point x="421" y="123"/>
      <point x="376" y="28"/>
      <point x="266" y="28" type="curve" smooth="yes"/>
    </contour>
  </outline>
</glyph>
<glyph name="q" format="1">
  <advance width="520"/>
  <unicode hex="0071"/>
  <outline>
    <contour>
      <point x="440" y="485" type="line"/>
      <point x="413" y="485" type="line"/>
      <point x="397" y="440" type="line"/>
      <point x="356" y="472"/>
      <point x="303" y="498"/>
      <point x="256" y="498" type="curve" smooth="yes"/>
      <point x="114" y="498"/>
      <point x="48" y="391"/>
      <point x="48" y="241" type="curve" smooth="yes"/>
      <point x="48" y="92"/>
      <point x="114" y="-13"/>
      <point x="256" y="-13" type="curve" smooth="yes"/>
      <point x="300" y="-13"/>
      <point x="352" y="8"/>
      <point x="391" y="40" type="curve"/>
      <point x="391" y="-219" type="line"/>
      <point x="440" y="-208" type="line"/>
    </contour>
    <contour>
      <point x="294" y="457"/>
      <point x="349" y="438"/>
      <point x="391" y="399" type="curve"/>
      <point x="391" y="87" type="line"/>
      <point x="349" y="48"/>
      <point x="294" y="28"/>
      <point x="254" y="28" type="curve" smooth="yes"/>
      <point x="144" y="28"/>
      <point x="99" y="125"/>
      <point x="99" y="244" type="curve" smooth="yes"/>
      <point x="99" y="362"/>
      <point x="144" y="457"/>
      <point x="254" y="457" type="curve" smooth="yes"/>
    </contour>
  </outline>
</glyph>
<glyph name="r" format="1">
  <advance width="310"/>
  <unicode hex="0072"/>
  <outline>
    <contour>
      <point x="80" y="0" type="line"/>
      <point x="129" y="0" type="line"/>
      <point x="129" y="367" type="line"/>
      <point x="167" y="408"/>
      <point x="230" y="447"/>
      <point x="292" y="447" type="curve"/>
      <point x="275" y="485" type="line"/>
      <point x="224" y="485"/>
      <point x="161" y="448"/>
      <point x="126" y="418" type="curve"/>
      <point x="108" y="485" type="line"/>
      <point x="80" y="485" type="line"/>
    </contour>
    <contour>
      <point x="171" y="535" type="move" name="top"/>
    </contour>
    <contour>
      <point x="90" y="0" type="move" name="bottom"/>
    </contour>
  </outline>
</glyph>
<glyph name="t" format="1">
  <advance width="288"/>
  <unicode hex="0074"/>
  <outline>
    <contour>
      <point x="248" y="433" type="line"/>
      <point x="227" y="470" type="line"/>
      <point x="139" y="470" type="line"/>
      <point x="139" y="623" type="line"/>
      <point x="90" y="601" type="line"/>
      <point x="90" y="470" type="line"/>
      <point x="18" y="470" type="line"/>
      <point x="18" y="433" type="line"/>
      <point x="90" y="433" type="line"/>
      <point x="90" y="116" type="line" smooth="yes"/>
      <point x="90" y="31"/>
      <point x="131" y="-13"/>
      <point x="194" y="-13" type="curve" smooth="yes"/>
      <point x="222" y="-13"/>
      <point x="247" y="-4"/>
      <point x="260" y="-1" type="curve"/>
      <point x="248" y="37" type="line"/>
      <point x="241" y="34"/>
      <point x="222" y="28"/>
      <point x="207" y="28" type="curve" smooth="yes"/>
      <point x="157" y="28"/>
      <point x="139" y="75"/>
      <point x="139" y="123" type="curve" smooth="yes"/>
      <point x="139" y="433" type="line"/>
    </contour>
    <contour>
      <point x="181" y="0" type="move" name="bottom"/>
    </contour>
  </outline>
</glyph>
<glyph name="v" format="1">
  <advance width="436"/>
  <unicode hex="0076"/>
  <outline>
    <contour>
      <point x="199" y="0" type="line"/>
      <point x="246" y="0" type="line"/>
      <point x="426" y="485" type="line"/>
      <point x="376" y="485" type="line"/>
      <point x="222" y="56" type="line"/>
      <point x="62" y="485" type="line"/>
      <point x="10" y="475" type="line"/>
    </contour>
  </outline>
</glyph>
<glyph name="w" format="1">
  <advance width="728"/>
  <unicode hex="0077"/>
  <outline>
    <contour>
      <point x="507" y="0" type="line"/>
      <point x="554" y="0" type="line"/>
      <point x="718" y="485" type="line"/>
      <point x="668" y="485" type="line"/>
      <point x="532" y="64" type="line"/>
      <point x="386" y="485" type="line"/>
      <point x="344" y="485" type="line"/>
      <point x="201" y="64" type="line"/>
      <point x="62" y="485" type="line"/>
      <point x="10" y="475" type="line"/>
      <point x="179" y="0" type="line"/>
      <point x="226" y="0" type="line"/>
      <point x="361" y="409" type="line"/>
    </contour>
  </outline>
</glyph>
<glyph name="x" format="1">
  <advance width="445"/>
  <unicode hex="0078"/>
  <outline>
    <contour>
      <point x="10" y="0" type="line"/>
      <point x="66" y="0" type="line"/>
      <point x="214" y="207" type="line"/>
      <point x="367" y="0" type="line"/>
      <point x="422" y="0" type="line"/>
      <point x="253" y="232" type="line"/>
      <point x="435" y="485" type="line"/>
      <point x="381" y="485" type="line"/>
      <point x="227" y="267" type="line"/>
      <point x="73" y="485" type="line"/>
      <point x="24" y="475" type="line"/>
      <point x="189" y="244" type="line"/>
    </contour>
  </outline>
</glyph>
<glyph name="z" format="1">
  <advance width="438"/>
  <unicode hex="007A"/>
  <outline>
    <contour>
      <point x="408" y="453" type="line"/>
      <point x="405" y="485" type="line"/>
      <point x="61" y="485" type="line"/>
      <point x="77" y="448" type="line"/>
      <point x="348" y="448" type="line"/>
      <point x="32" y="31" type="line"/>
      <point x="40" y="0" type="line"/>
      <point x="402" y="0" type="line"/>
      <point x="392" y="37" type="line"/>
      <point x="89" y="37" type="line"/>
    </contour>
    <contour>
      <point x="235" y="535" type="move" name="top"/>
    </contour>
  </outline>
</glyph>
<glyph name="braceleft" format="1">
  <advance width="265"/>
  <unicode hex="007B"/>
  <outline>
    <contour>
      <point x="193" y="254"/>
      <point x="163" y="291"/>
      <point x="129" y="307" type="curve"/>
      <point x="163" y="323"/>
      <point x="193" y="360"/>
      <point x="193" y="419" type="curve" smooth="yes"/>
      <point x="193" y="454"/>
      <point x="155" y="524"/>
      <point x="155" y="560" type="curve" smooth="yes"/>
      <point x="155" y="588"/>
      <point x="178" y="620"/>
      <point x="227" y="620" type="curve" smooth="yes"/>
      <point x="246" y="620" type="line"/>
      <point x="255" y="659" type="line"/>
      <point x="229" y="659" type="line" smooth="yes"/>
      <point x="144" y="659"/>
      <point x="105" y="618"/>
      <point x="105" y="554" type="curve" smooth="yes"/>
      <point x="105" y="513"/>
      <point x="141" y="452"/>
      <point x="141" y="410" type="curve" smooth="yes"/>
      <point x="141" y="360"/>
      <point x="103" y="326"/>
      <point x="63" y="326" type="curve" smooth="yes"/>
      <point x="30" y="326" type="line"/>
      <point x="30" y="288" type="line"/>
      <point x="63" y="288" type="line" smooth="yes"/>
      <point x="103" y="288"/>
      <point x="141" y="254"/>
      <point x="141" y="204" type="curve" smooth="yes"/>
      <point x="141" y="162"/>
      <point x="105" y="101"/>
      <point x="105" y="60" type="curve" smooth="yes"/>
      <point x="105" y="-4"/>
      <point x="144" y="-45"/>
      <point x="229" y="-45" type="curve" smooth="yes"/>
      <point x="255" y="-45" type="line"/>
      <point x="246" y="-6" type="line"/>
      <point x="227" y="-6" type="line" smooth="yes"/>
      <point x="178" y="-6"/>
      <point x="155" y="26"/>
      <point x="155" y="54" type="curve" smooth="yes"/>
      <point x="155" y="90"/>
      <point x="193" y="160"/>
      <point x="193" y="195" type="curve" smooth="yes"/>
    </contour>
  </outline>
</glyph>
<glyph name="braceright" format="1">
  <advance width="265"/>
  <unicode hex="007D"/>
  <outline>
    <contour>
      <point x="72" y="360"/>
      <point x="102" y="323"/>
      <point x="136" y="307" type="curve"/>
      <point x="102" y="291"/>
      <point x="72" y="254"/>
      <point x="72" y="195" type="curve" smooth="yes"/>
      <point x="72" y="160"/>
      <point x="110" y="90"/>
      <point x="110" y="54" type="curve" smooth="yes"/>
      <point x="110" y="26"/>
      <point x="87" y="-6"/>
      <point x="38" y="-6" type="curve" smooth="yes"/>
      <point x="19" y="-6" type="line"/>
      <point x="10" y="-45" type="line"/>
      <point x="36" y="-45" type="line" smooth="yes"/>
      <point x="121" y="-45"/>
      <point x="160" y="-4"/>
      <point x="160" y="60" type="curve" smooth="yes"/>
      <point x="160" y="101"/>
      <point x="124" y="162"/>
      <point x="124" y="204" type="curve" smooth="yes"/>
      <point x="124" y="254"/>
      <point x="162" y="288"/>
      <point x="202" y="288" type="curve" smooth="yes"/>
      <point x="235" y="288" type="line"/>
      <point x="235" y="326" type="line"/>
      <point x="202" y="326" type="line" smooth="yes"/>
      <point x="162" y="326"/>
      <point x="124" y="360"/>
      <point x="124" y="410" type="curve" smooth="yes"/>
      <point x="124" y="452"/>
      <point x="160" y="513"/>
      <point x="160" y="554" type="curve" smooth="yes"/>
      <point x="160" y="618"/>
      <point x="121" y="659"/>
      <point x="36" y="659" type="curve" smooth="yes"/>
      <point x="10" y="659" type="line"/>
      <point x="19" y="620" type="line"/>
      <point x="38" y="620" type="line" smooth="yes"/>
      <point x="87" y="620"/>
      <point x="110" y="588"/>
      <point x="110" y="560" type="curve" smooth="yes"/>
      <point x="110" y="524"/>
      <point x="72" y="454"/>
      <point x="72" y="419" type="curve"/>
    </contour>
  </outline>
</glyph>
<glyph name="asciitilde" format="1">
  <advance width="374"/>
  <unicode hex="007E"/>
  <outline>
    <contour>
      <point x="222" y="247"/>
      <point x="173" y="295"/>
      <point x="117" y="295" type="curve" smooth="yes"/>
      <point x="64" y="295"/>
      <point x="30" y="262"/>
      <point x="30" y="215" type="curve"/>
      <point x="70" y="215" type="line"/>
      <point x="70" y="240"/>
      <point x="91" y="257"/>
      <point x="117" y="257" type="curve" smooth="yes"/>
      <point x="164" y="257"/>
      <point x="212" y="209"/>
      <point x="258" y="209" type="curve" smooth="yes"/>
      <point x="310" y="209"/>
      <point x="344" y="242"/>
      <point x="344" y="289" type="curve"/>
      <point x="304" y="289" type="line"/>
      <point x="304" y="264"/>
      <point x="283" y="247"/>
      <point x="257" y="247" type="curve" smooth="yes"/>
    </contour>
  </outline>
</glyph>
<glyph name="exclamdown" format="1">
  <advance width="138"/>
  <unicode hex="00A1"/>
  <outline>
    <contour>
      <point x="30" y="0" type="line"/>
      <point x="84" y="0" type="line"/>
      <point x="84" y="517" type="line"/>
      <point x="39" y="538" type="line"/>
    </contour>
    <contour>
      <point x="108" y="686"/>
      <point x="93" y="702"/>
      <point x="70" y="702" type="curve" smooth="yes"/>
      <point x="49" y="702"/>
      <point x="31" y="686"/>
      <point x="31" y="664" type="curve" smooth="yes"/>
      <point x="31" y="642"/>
      <point x="49" y="626"/>
      <point x="70" y="626" type="curve" smooth="yes"/>
      <point x="93" y="626"/>
      <point x="108" y="642"/>
      <point x="108" y="664" type="curve" smooth="yes"/>
    </contour>
  </outline>
</glyph>
<glyph name="cent" format="1">
  <advance width="449"/>
  <unicode hex="00A2"/>
  <outline>
    <contour>
      <point x="284" y="605" type="line"/>
      <point x="240" y="605" type="line"/>
      <point x="240" y="496" type="line"/>
      <point x="113" y="485"/>
      <point x="48" y="382"/>
      <point x="48" y="245" type="curve" smooth="yes"/>
      <point x="48" y="100"/>
      <point x="108" y="-4"/>
      <point x="240" y="-12" type="curve"/>
      <point x="240" y="-111" type="line"/>
      <point x="284" y="-111" type="line"/>
      <point x="284" y="-11" type="line"/>
      <point x="321" y="-6"/>
      <point x="364" y="8"/>
      <point x="396" y="28" type="curve"/>
      <point x="376" y="62" type="line"/>
      <point x="341" y="44"/>
      <point x="324" y="28"/>
      <point x="257" y="28" type="curve" smooth="yes"/>
      <point x="147" y="28"/>
      <point x="99" y="127"/>
      <point x="99" y="246" type="curve" smooth="yes"/>
      <point x="99" y="360"/>
      <point x="155" y="457"/>
      <point x="262" y="457" type="curve" smooth="yes"/>
      <point x="323" y="457"/>
      <point x="347" y="439"/>
      <point x="381" y="423" type="curve"/>
      <point x="401" y="456" type="line"/>
      <point x="368" y="478"/>
      <point x="321" y="493"/>
      <point x="284" y="497" type="curve"/>
    </contour>
  </outline>
</glyph>
<glyph name="sterling" format="1">
  <advance width="436"/>
  <unicode hex="00A3"/>
  <outline>
    <contour>
      <point x="182" y="561" type="line" smooth="yes"/>
      <point x="182" y="609"/>
      <point x="200" y="643"/>
      <point x="251" y="643" type="curve" smooth="yes"/>
      <point x="265" y="643"/>
      <point x="284" y="638"/>
      <point x="292" y="634" type="curve"/>
      <point x="304" y="671" type="line"/>
      <point x="291" y="676"/>
      <point x="265" y="684"/>
      <point x="238" y="684" type="curve" smooth="yes"/>
      <point x="166" y="684"/>
      <point x="133" y="629"/>
      <point x="133" y="545" type="curve" smooth="yes"/>
      <point x="133" y="371" type="line"/>
      <point x="60" y="371" type="line"/>
      <point x="62" y="334" type="line"/>
      <point x="133" y="334" type="line"/>
      <point x="133" y="122" type="line" smooth="yes"/>
      <point x="133" y="74"/>
      <point x="116" y="40"/>
      <point x="68" y="39" type="curve"/>
      <point x="70" y="0" type="line"/>
      <point x="416" y="0" type="line"/>
      <point x="410" y="39" type="line"/>
      <point x="148" y="39" type="line"/>
      <point x="177" y="65"/>
      <point x="182" y="98"/>
      <point x="182" y="143" type="curve" smooth="yes"/>
      <point x="182" y="334" type="line"/>
      <point x="344" y="334" type="line"/>
      <point x="322" y="371" type="line"/>
      <point x="182" y="371" type="line"/>
    </contour>
  </outline>
</glyph>
<glyph name="yen" format="1">
  <advance width="556"/>
  <unicode hex="00A5"/>
  <outline>
    <contour>
      <point x="251" y="0" type="line"/>
      <point x="300" y="0" type="line"/>
      <point x="300" y="90" type="line"/>
      <point x="481" y="90" type="line"/>
      <point x="476" y="129" type="line"/>
      <point x="300" y="129" type="line"/>
      <point x="300" y="259" type="line"/>
      <point x="481" y="259" type="line"/>
      <point x="476" y="298" type="line"/>
      <point x="316" y="298" type="line"/>
      <point x="546" y="680" type="line"/>
      <point x="489" y="680" type="line"/>
      <point x="275" y="320" type="line"/>
      <point x="65" y="680" type="line"/>
      <point x="10" y="669" type="line"/>
      <point x="232" y="298" type="line"/>
      <point x="75" y="298" type="line"/>
      <point x="80" y="259" type="line"/>
      <point x="251" y="259" type="line"/>
      <point x="251" y="129" type="line"/>
      <point x="75" y="129" type="line"/>
      <point x="80" y="90" type="line"/>
      <point x="251" y="90" type="line"/>
    </contour>
  </outline>
</glyph>
<glyph name="section" format="1">
  <advance width="600"/>
  <unicode hex="00A7"/>
  <outline>
    <contour>
      <point x="185" y="-77"/>
      <point x="121" y="-55"/>
      <point x="86" y="-38" type="curve"/>
      <point x="71" y="-77" type="line"/>
      <point x="94" y="-97"/>
      <point x="195" y="-119"/>
      <point x="253" y="-119" type="curve" smooth="yes"/>
      <point x="402" y="-119"/>
      <point x="480" y="-49"/>
      <point x="480" y="51" type="curve" smooth="yes"/>
      <point x="480" y="70"/>
      <point x="476" y="88"/>
      <point x="468" y="105" type="curve"/>
      <point x="520" y="135"/>
      <point x="546" y="183"/>
      <point x="546" y="241" type="curve" smooth="yes"/>
      <point x="546" y="423"/>
      <point x="184" y="461"/>
      <point x="184" y="614" type="curve" smooth="yes"/>
      <point x="184" y="684"/>
      <point x="243" y="739"/>
      <point x="340" y="739" type="curve" smooth="yes"/>
      <point x="410" y="739"/>
      <point x="449" y="721"/>
      <point x="484" y="705" type="curve"/>
      <point x="506" y="741" type="line"/>
      <point x="466" y="761"/>
      <point x="405" y="780"/>
      <point x="338" y="780" type="curve" smooth="yes"/>
      <point x="209" y="780"/>
      <point x="132" y="711"/>
      <point x="132" y="619" type="curve" smooth="yes"/>
      <point x="132" y="597"/>
      <point x="136" y="578"/>
      <point x="144" y="560" type="curve"/>
      <point x="94" y="531"/>
      <point x="66" y="484"/>
      <point x="66" y="429" type="curve" smooth="yes"/>
      <point x="66" y="235"/>
      <point x="429" y="202"/>
      <point x="429" y="54" type="curve" smooth="yes"/>
      <point x="429" y="-16"/>
      <point x="367" y="-77"/>
      <point x="252" y="-77" type="curve" smooth="yes"/>
    </contour>
    <contour>
      <point x="118" y="463"/>
      <point x="136" y="497"/>
      <point x="169" y="520" type="curve"/>
      <point x="261" y="407"/>
      <point x="495" y="363"/>
      <point x="495" y="244" type="curve" smooth="yes"/>
      <point x="495" y="206"/>
      <point x="476" y="171"/>
      <point x="441" y="146" type="curve"/>
      <point x="347" y="253"/>
      <point x="118" y="302"/>
      <point x="118" y="424" type="curve" smooth="yes"/>
    </contour>
  </outline>
</glyph>
<glyph name="dieresis" format="1">
  <advance width="253"/>
  <unicode hex="00A8"/>
  <outline>
    <contour>
      <point x="10" y="633"/>
      <point x="24" y="618"/>
      <point x="47" y="618" type="curve" smooth="yes"/>
      <point x="67" y="618"/>
      <point x="84" y="633"/>
      <point x="84" y="655" type="curve" smooth="yes"/>
      <point x="84" y="676"/>
      <point x="67" y="691"/>
      <point x="47" y="691" type="curve" smooth="yes"/>
      <point x="24" y="691"/>
      <point x="10" y="676"/>
      <point x="10" y="655" type="curve" smooth="yes"/>
    </contour>
    <contour>
      <point x="169" y="633"/>
      <point x="183" y="618"/>
      <point x="206" y="618" type="curve" smooth="yes"/>
      <point x="226" y="618"/>
      <point x="243" y="633"/>
      <point x="243" y="655" type="curve" smooth="yes"/>
      <point x="243" y="676"/>
      <point x="226" y="691"/>
      <point x="206" y="691" type="curve" smooth="yes"/>
      <point x="183" y="691"/>
      <point x="169" y="676"/>
      <point x="169" y="655" type="curve" smooth="yes"/>
    </contour>
    <contour>
      <point x="126" y="535" type="move" name="_top"/>
    </contour>
  </outline>
</glyph>
<glyph name="copyright" format="1">
  <advance width="847"/>
  <unicode hex="00A9"/>
  <outline>
    <contour>
      <point x="236" y="25"/>
      <point x="117" y="162"/>
      <point x="117" y="337" type="curve"/>
      <point x="117" y="513"/>
      <point x="236" y="648"/>
      <point x="423" y="648" type="curve"/>
      <point x="611" y="648"/>
      <point x="730" y="513"/>
      <point x="730" y="337" type="curve" smooth="yes"/>
      <point x="730" y="162"/>
      <point x="611" y="25"/>
      <point x="423" y="25" type="curve"/>
    </contour>
    <contour>
      <point x="637" y="-12"/>
      <point x="777" y="138"/>
      <point x="777" y="336" type="curve" smooth="yes"/>
      <point x="777" y="536"/>
      <point x="638" y="686"/>
      <point x="423" y="686" type="curve"/>
      <point x="207" y="686"/>
      <point x="70" y="536"/>
      <point x="70" y="336" type="curve"/>
      <point x="70" y="138"/>
      <point x="201" y="-12"/>
      <point x="423" y="-12" type="curve"/>
    </contour>
    <contour>
      <point x="230" y="195"/>
      <point x="324" y="120"/>
      <point x="436" y="120" type="curve" smooth="yes"/>
      <point x="475" y="120"/>
      <point x="533" y="136"/>
      <point x="563" y="162" type="curve"/>
      <point x="543" y="193" type="line"/>
      <point x="516" y="176"/>
      <point x="478" y="159"/>
      <point x="434" y="159" type="curve" smooth="yes"/>
      <point x="344" y="159"/>
      <point x="279" y="227"/>
      <point x="279" y="341" type="curve"/>
      <point x="279" y="455"/>
      <point x="344" y="523"/>
      <point x="434" y="523" type="curve" smooth="yes"/>
      <point x="478" y="523"/>
      <point x="516" y="506"/>
      <point x="543" y="489" type="curve"/>
      <point x="563" y="520" type="line"/>
      <point x="533" y="546"/>
      <point x="475" y="562"/>
      <point x="436" y="562" type="curve" smooth="yes"/>
      <point x="324" y="562"/>
      <point x="230" y="487"/>
      <point x="230" y="341" type="curve"/>
    </contour>
  </outline>
</glyph>
<glyph name="ordfeminine" format="1">
  <advance width="344"/>
  <unicode hex="00AA"/>
  <outline>
    <contour>
      <point x="140" y="702"/>
      <point x="89" y="691"/>
      <point x="64" y="673" type="curve"/>
      <point x="76" y="641" type="line"/>
      <point x="100" y="651"/>
      <point x="122" y="663"/>
      <point x="168" y="663" type="curve" smooth="yes"/>
      <point x="221" y="663"/>
      <point x="248" y="632"/>
      <point x="248" y="587" type="curve" smooth="yes"/>
      <point x="248" y="564" type="line"/>
      <point x="162" y="564" type="line" smooth="yes"/>
      <point x="94" y="564"/>
      <point x="42" y="527"/>
      <point x="42" y="466" type="curve" smooth="yes"/>
      <point x="42" y="408"/>
      <point x="85" y="363"/>
      <point x="157" y="363" type="curve" smooth="yes"/>
      <point x="192" y="363"/>
      <point x="228" y="381"/>
      <point x="251" y="408" type="curve"/>
      <point x="262" y="372" type="line"/>
      <point x="294" y="372" type="line"/>
      <point x="294" y="580" type="line" smooth="yes"/>
      <point x="294" y="643"/>
      <point x="253" y="702"/>
      <point x="167" y="702" type="curve" smooth="yes"/>
    </contour>
    <contour>
      <point x="114" y="397"/>
      <point x="87" y="433"/>
      <point x="87" y="466" type="curve" smooth="yes"/>
      <point x="87" y="504"/>
      <point x="113" y="533"/>
      <point x="171" y="533" type="curve" smooth="yes"/>
      <point x="248" y="533" type="line"/>
      <point x="248" y="447" type="line"/>
      <point x="227" y="418"/>
      <point x="194" y="397"/>
      <point x="157" y="397" type="curve" smooth="yes"/>
    </contour>
  </outline>
</glyph>
<glyph name="logicalnot" format="1">
  <advance width="505"/>
  <unicode hex="00AC"/>
  <outline>
    <contour>
      <point x="475" y="356" type="line"/>
      <point x="467" y="406" type="line"/>
      <point x="10" y="406" type="line"/>
      <point x="18" y="367" type="line"/>
      <point x="426" y="367" type="line"/>
      <point x="426" y="117" type="line"/>
      <point x="475" y="112" type="line"/>
    </contour>
  </outline>
</glyph>
<glyph name="registered" format="1">
  <advance width="735"/>
  <unicode hex="00AE"/>
  <outline>
    <contour>
      <point x="555" y="178"/>
      <point x="685" y="312"/>
      <point x="685" y="487" type="curve" smooth="yes"/>
      <point x="685" y="664"/>
      <point x="555" y="798"/>
      <point x="368" y="798" type="curve" smooth="yes"/>
      <point x="177" y="798"/>
      <point x="50" y="664"/>
      <point x="50" y="487" type="curve" smooth="yes"/>
      <point x="50" y="312"/>
      <point x="180" y="178"/>
      <point x="368" y="178" type="curve" smooth="yes"/>
    </contour>
    <contour>
      <point x="202" y="217"/>
      <point x="98" y="335"/>
      <point x="98" y="488" type="curve" smooth="yes"/>
      <point x="98" y="643"/>
      <point x="202" y="760"/>
      <point x="368" y="760" type="curve"/>
      <point x="532" y="760"/>
      <point x="636" y="643"/>
      <point x="636" y="488" type="curve" smooth="yes"/>
      <point x="636" y="335"/>
      <point x="532" y="217"/>
      <point x="368" y="215" type="curve"/>
    </contour>
    <contour>
      <point x="468" y="304" type="line"/>
      <point x="515" y="304" type="line"/>
      <point x="417" y="469" type="line"/>
      <point x="454" y="485"/>
      <point x="490" y="521"/>
      <point x="490" y="572" type="curve"/>
      <point x="490" y="651"/>
      <point x="433" y="680"/>
      <point x="354" y="680" type="curve" smooth="yes"/>
      <point x="267" y="680" type="line"/>
      <point x="267" y="304" type="line"/>
      <point x="307" y="304" type="line"/>
      <point x="307" y="462" type="line"/>
      <point x="349" y="462" type="line" smooth="yes"/>
      <point x="358" y="462"/>
      <point x="368" y="463"/>
      <point x="378" y="463" type="curve"/>
    </contour>
    <contour>
      <point x="347" y="647" type="line" smooth="yes"/>
      <point x="405" y="647"/>
      <point x="447" y="637"/>
      <point x="447" y="571" type="curve" smooth="yes"/>
      <point x="447" y="509"/>
      <point x="398" y="494"/>
      <point x="342" y="494" type="curve" smooth="yes"/>
      <point x="307" y="494" type="line"/>
      <point x="307" y="647" type="line"/>
    </contour>
  </outline>
</glyph>
<glyph name="macron" format="1">
  <advance width="261"/>
  <unicode hex="00AF"/>
  <outline>
    <contour>
      <point x="10" y="677" type="line"/>
      <point x="10" y="640" type="line"/>
      <point x="251" y="640" type="line"/>
      <point x="251" y="677" type="line"/>
    </contour>
    <contour>
      <point x="130" y="535" type="move" name="_top"/>
    </contour>
  </outline>
</glyph>
<glyph name="degree" format="1">
  <advance width="253"/>
  <unicode hex="00B0"/>
  <outline>
    <contour>
      <point x="194" y="566"/>
      <point x="174" y="529"/>
      <point x="130" y="529" type="curve" smooth="yes"/>
      <point x="87" y="529"/>
      <point x="60" y="566"/>
      <point x="60" y="600" type="curve" smooth="yes"/>
      <point x="60" y="634"/>
      <point x="85" y="670"/>
      <point x="126" y="670" type="curve" smooth="yes"/>
      <point x="168" y="670"/>
      <point x="194" y="634"/>
      <point x="194" y="600" type="curve" smooth="yes"/>
    </contour>
    <contour>
      <point x="233" y="657"/>
      <point x="188" y="702"/>
      <point x="126" y="702" type="curve" smooth="yes"/>
      <point x="65" y="702"/>
      <point x="20" y="657"/>
      <point x="20" y="599" type="curve" smooth="yes"/>
      <point x="20" y="539"/>
      <point x="65" y="498"/>
      <point x="126" y="498" type="curve" smooth="yes"/>
      <point x="187" y="498"/>
      <point x="233" y="539"/>
      <point x="233" y="599" type="curve" smooth="yes"/>
    </contour>
  </outline>
</glyph>
<glyph name="twosuperior" format="1">
  <advance width="371"/>
  <unicode hex="00B2"/>
  <outline>
    <contour>
      <point x="313" y="709"/>
      <point x="271" y="771"/>
      <point x="177" y="771" type="curve" smooth="yes"/>
      <point x="108" y="771"/>
      <point x="56" y="733"/>
      <point x="54" y="733" type="curve"/>
      <point x="71" y="702" type="line"/>
      <point x="72" y="704"/>
      <point x="124" y="736"/>
      <point x="175" y="736" type="curve" smooth="yes"/>
      <point x="243" y="736"/>
      <point x="268" y="684"/>
      <point x="268" y="647" type="curve" smooth="yes"/>
      <point x="268" y="616"/>
      <point x="252" y="575"/>
      <point x="186" y="515" type="curve" smooth="yes"/>
      <point x="30" y="373" type="line"/>
      <point x="30" y="336" type="line"/>
      <point x="327" y="336" type="line"/>
      <point x="321" y="369" type="line"/>
      <point x="81" y="369" type="line"/>
      <point x="212" y="485" type="line" smooth="yes"/>
      <point x="285" y="550"/>
      <point x="313" y="597"/>
      <point x="313" y="653" type="curve" smooth="yes"/>
    </contour>
  </outline>
</glyph>
<glyph name="threesuperior" format="1">
  <advance width="383"/>
  <unicode hex="00B3"/>
  <outline>
    <contour>
      <point x="320" y="716"/>
      <point x="276" y="771"/>
      <point x="175" y="771" type="curve" smooth="yes"/>
      <point x="114" y="771"/>
      <point x="69" y="752"/>
      <point x="29" y="727" type="curve"/>
      <point x="51" y="697" type="line"/>
      <point x="76" y="713"/>
      <point x="117" y="735"/>
      <point x="174" y="735" type="curve" smooth="yes"/>
      <point x="236" y="735"/>
      <point x="274" y="696"/>
      <point x="274" y="650" type="curve" smooth="yes"/>
      <point x="274" y="593"/>
      <point x="236" y="552"/>
      <point x="153" y="552" type="curve" smooth="yes"/>
      <point x="116" y="552" type="line"/>
      <point x="123" y="519" type="line"/>
      <point x="148" y="519" type="line" smooth="yes"/>
      <point x="253" y="519"/>
      <point x="284" y="480"/>
      <point x="284" y="415" type="curve" smooth="yes"/>
      <point x="284" y="353"/>
      <point x="227" y="317"/>
      <point x="167" y="317" type="curve" smooth="yes"/>
      <point x="110" y="317"/>
      <point x="79" y="329"/>
      <point x="44" y="350" type="curve"/>
      <point x="20" y="318" type="line"/>
      <point x="55" y="298"/>
      <point x="107" y="278"/>
      <point x="163" y="278" type="curve" smooth="yes"/>
      <point x="269" y="278"/>
      <point x="329" y="338"/>
      <point x="329" y="416" type="curve" smooth="yes"/>
      <point x="329" y="479"/>
      <point x="297" y="525"/>
      <point x="240" y="538" type="curve"/>
      <point x="286" y="553"/>
      <point x="320" y="596"/>
      <point x="320" y="651" type="curve" smooth="yes"/>
    </contour>
  </outline>
</glyph>
<glyph name="acute" format="1">
  <advance width="142"/>
  <unicode hex="00B4"/>
  <outline>
    <contour>
      <point x="70" y="742" type="line"/>
      <point x="10" y="589" type="line"/>
      <point x="46" y="589" type="line"/>
      <point x="132" y="742" type="line"/>
    </contour>
    <contour>
      <point x="50" y="535" type="move" name="_top"/>
    </contour>
  </outline>
</glyph>
<glyph name="mu" format="1">
  <advance width="504"/>
  <unicode hex="00B5"/>
  <outline>
    <contour>
      <point x="424" y="485" type="line"/>
      <point x="375" y="485" type="line"/>
      <point x="375" y="95" type="line"/>
      <point x="328" y="51"/>
      <point x="267" y="29"/>
      <point x="230" y="29" type="curve" smooth="yes"/>
      <point x="161" y="29"/>
      <point x="129" y="81"/>
      <point x="129" y="147" type="curve" smooth="yes"/>
      <point x="129" y="485" type="line"/>
      <point x="80" y="485" type="line"/>
      <point x="80" y="-219" type="line"/>
      <point x="129" y="-208" type="line"/>
      <point x="129" y="16" type="line"/>
      <point x="151" y="-1"/>
      <point x="183" y="-12"/>
      <point x="225" y="-12" type="curve" smooth="yes"/>
      <point x="277" y="-12"/>
      <point x="334" y="17"/>
      <point x="376" y="55" type="curve"/>
      <point x="395" y="0" type="line"/>
      <point x="424" y="0" type="line"/>
    </contour>
  </outline>
</glyph>
<glyph name="paragraph" format="1">
  <advance width="812"/>
  <unicode hex="00B6"/>
  <outline>
    <contour>
      <point x="348" y="0" type="line"/>
      <point x="397" y="0" type="line"/>
      <point x="397" y="641" type="line"/>
      <point x="621" y="641" type="line"/>
      <point x="621" y="0" type="line"/>
      <point x="670" y="0" type="line"/>
      <point x="670" y="641" type="line"/>
      <point x="782" y="641" type="line"/>
      <point x="782" y="680" type="line"/>
      <point x="299" y="680" type="line" smooth="yes"/>
      <point x="156" y="680"/>
      <point x="54" y="615"/>
      <point x="54" y="475" type="curve" smooth="yes"/>
      <point x="54" y="335"/>
      <point x="168" y="264"/>
      <point x="310" y="264" type="curve" smooth="yes"/>
      <point x="348" y="264" type="line"/>
    </contour>
  </outline>
</glyph>
<glyph name="periodcentered" format="1">
  <advance width="137"/>
  <unicode hex="00B7"/>
  <outline>
    <contour>
      <point x="30" y="240"/>
      <point x="45" y="224"/>
      <point x="68" y="224" type="curve" smooth="yes"/>
      <point x="89" y="224"/>
      <point x="107" y="240"/>
      <point x="107" y="262" type="curve" smooth="yes"/>
      <point x="107" y="284"/>
      <point x="89" y="300"/>
      <point x="68" y="300" type="curve" smooth="yes"/>
      <point x="45" y="300"/>
      <point x="30" y="284"/>
      <point x="30" y="262" type="curve" smooth="yes"/>
    </contour>
  </outline>
</glyph>
<glyph name="cedilla" format="1">
  <advance width="206"/>
  <unicode hex="00B8"/>
  <outline>
    <contour>
      <point x="89" y="13" type="line"/>
      <point x="55" y="-77" type="line"/>
      <point x="119" y="-77"/>
      <point x="154" y="-110"/>
      <point x="154" y="-138" type="curve" smooth="yes"/>
      <point x="154" y="-164"/>
      <point x="126" y="-185"/>
      <point x="84" y="-185" type="curve" smooth="yes"/>
      <point x="63" y="-185"/>
      <point x="37" y="-177"/>
      <point x="25" y="-171" type="curve"/>
      <point x="10" y="-202" type="line"/>
      <point x="28" y="-213"/>
      <point x="63" y="-221"/>
      <point x="87" y="-221" type="curve" smooth="yes"/>
      <point x="152" y="-221"/>
      <point x="196" y="-187"/>
      <point x="196" y="-136" type="curve" smooth="yes"/>
      <point x="196" y="-101"/>
      <point x="165" y="-62"/>
      <point x="105" y="-51" type="curve"/>
      <point x="130" y="13" type="line"/>
    </contour>
    <contour>
      <point x="107" y="0" type="move" name="_bottom"/>
    </contour>
  </outline>
</glyph>
<glyph name="onesuperior" format="1">
  <advance width="297"/>
  <unicode hex="00B9"/>
  <outline>
    <contour>
      <point x="249" y="336" type="line"/>
      <point x="242" y="369" type="line"/>
      <point x="176" y="369" type="line"/>
      <point x="176" y="765" type="line"/>
      <point x="152" y="765" type="line"/>
      <point x="56" y="700" type="line"/>
      <point x="79" y="675" type="line"/>
      <point x="133" y="712" type="line"/>
      <point x="133" y="369" type="line"/>
      <point x="54" y="369" type="line"/>
      <point x="54" y="336" type="line"/>
    </contour>
  </outline>
</glyph>
<glyph name="ordmasculine" format="1">
  <advance width="344"/>
  <unicode hex="00BA"/>
  <outline>
    <contour>
      <point x="324" y="640"/>
      <point x="252" y="702"/>
      <point x="171" y="702" type="curve" smooth="yes"/>
      <point x="92" y="702"/>
      <point x="20" y="636"/>
      <point x="20" y="532" type="curve" smooth="yes"/>
      <point x="20" y="424"/>
      <point x="92" y="363"/>
      <point x="172" y="363" type="curve" smooth="yes"/>
      <point x="254" y="363"/>
      <point x="324" y="428"/>
      <point x="324" y="532" type="curve" smooth="yes"/>
    </contour>
    <contour>
      <point x="65" y="619"/>
      <point x="119" y="667"/>
      <point x="171" y="667" type="curve" smooth="yes"/>
      <point x="232" y="667"/>
      <point x="279" y="617"/>
      <point x="279" y="532" type="curve" smooth="yes"/>
      <point x="279" y="445"/>
      <point x="226" y="399"/>
      <point x="172" y="399" type="curve" smooth="yes"/>
      <point x="116" y="399"/>
      <point x="65" y="449"/>
      <point x="65" y="532" type="curve" smooth="yes"/>
    </contour>
  </outline>
</glyph>
<glyph name="onequarter" format="1">
  <advance width="720"/>
  <unicode hex="00BC"/>
  <outline>
    <contour>
      <point x="686" y="-65" type="line"/>
      <point x="690" y="-31" type="line"/>
      <point x="605" y="-31" type="line"/>
      <point x="605" y="321" type="line"/>
      <point x="577" y="321" type="line"/>
      <point x="324" y="-31" type="line"/>
      <point x="328" y="-65" type="line"/>
      <point x="561" y="-65" type="line"/>
      <point x="561" y="-163" type="line"/>
      <point x="605" y="-163" type="line"/>
      <point x="605" y="-65" type="line"/>
    </contour>
    <contour>
      <point x="249" y="336" type="line"/>
      <point x="242" y="369" type="line"/>
      <point x="176" y="369" type="line"/>
      <point x="176" y="765" type="line"/>
      <point x="152" y="765" type="line"/>
      <point x="56" y="700" type="line"/>
      <point x="79" y="675" type="line"/>
      <point x="133" y="712" type="line"/>
      <point x="133" y="369" type="line"/>
      <point x="54" y="369" type="line"/>
      <point x="54" y="336" type="line"/>
    </contour>
    <contour>
      <point x="371" y="-31" type="line"/>
      <point x="561" y="238" type="line"/>
      <point x="561" y="-31" type="line"/>
    </contour>
    <contour>
      <point x="485" y="498" type="line"/>
      <point x="440" y="501" type="line"/>
      <point x="150" y="0" type="line"/>
      <point x="195" y="-4" type="line"/>
    </contour>
  </outline>
</glyph>
<glyph name="onehalf" format="1">
  <advance width="782"/>
  <unicode hex="00BD"/>
  <outline>
    <contour>
      <point x="485" y="498" type="line"/>
      <point x="440" y="501" type="line"/>
      <point x="150" y="0" type="line"/>
      <point x="195" y="-4" type="line"/>
    </contour>
    <contour>
      <point x="249" y="336" type="line"/>
      <point x="242" y="369" type="line"/>
      <point x="176" y="369" type="line"/>
      <point x="176" y="765" type="line"/>
      <point x="152" y="765" type="line"/>
      <point x="56" y="700" type="line"/>
      <point x="79" y="675" type="line"/>
      <point x="133" y="712" type="line"/>
      <point x="133" y="369" type="line"/>
      <point x="54" y="369" type="line"/>
      <point x="54" y="336" type="line"/>
    </contour>
    <contour>
      <point x="724" y="263"/>
      <point x="682" y="325"/>
      <point x="588" y="325" type="curve" smooth="yes"/>
      <point x="519" y="325"/>
      <point x="467" y="287"/>
      <point x="465" y="287" type="curve"/>
      <point x="482" y="256" type="line"/>
      <point x="483" y="258"/>
      <point x="535" y="290"/>
      <point x="586" y="290" type="curve" smooth="yes"/>
      <point x="654" y="290"/>
      <point x="679" y="238"/>
      <point x="679" y="201" type="curve" smooth="yes"/>
      <point x="679" y="170"/>
      <point x="663" y="129"/>
      <point x="597" y="69" type="curve" smooth="yes"/>
      <point x="441" y="-73" type="line"/>
      <point x="441" y="-110" type="line"/>
      <point x="738" y="-110" type="line"/>
      <point x="732" y="-77" type="line"/>
      <point x="492" y="-77" type="line"/>
      <point x="623" y="39" type="line" smooth="yes"/>
      <point x="696" y="104"/>
      <point x="724" y="151"/>
      <point x="724" y="207" type="curve" smooth="yes"/>
    </contour>
  </outline>
</glyph>
<glyph name="questiondown" format="1">
  <advance width="392"/>
  <unicode hex="00BF"/>
  <outline>
    <contour>
      <point x="30" y="-12"/>
      <point x="87" y="-80"/>
      <point x="206" y="-80" type="curve" smooth="yes"/>
      <point x="285" y="-80"/>
      <point x="347" y="-50"/>
      <point x="382" y="-19" type="curve"/>
      <point x="374" y="22" type="line"/>
      <point x="322" y="-15"/>
      <point x="281" y="-39"/>
      <point x="208" y="-39" type="curve" smooth="yes"/>
      <point x="132" y="-39"/>
      <point x="83" y="5"/>
      <point x="83" y="85" type="curve" smooth="yes"/>
      <point x="83" y="162"/>
      <point x="149" y="225"/>
      <point x="253" y="259" type="curve"/>
      <point x="246" y="464" type="line"/>
      <point x="213" y="485" type="line"/>
      <point x="203" y="290" type="line"/>
      <point x="92" y="240"/>
      <point x="30" y="160"/>
      <point x="30" y="84" type="curve" smooth="yes"/>
    </contour>
    <contour>
      <point x="276" y="606"/>
      <point x="261" y="622"/>
      <point x="238" y="622" type="curve" smooth="yes"/>
      <point x="217" y="622"/>
      <point x="199" y="606"/>
      <point x="199" y="584" type="curve" smooth="yes"/>
      <point x="199" y="562"/>
      <point x="217" y="546"/>
      <point x="238" y="546" type="curve" smooth="yes"/>
      <point x="261" y="546"/>
      <point x="276" y="562"/>
      <point x="276" y="584" type="curve" smooth="yes"/>
    </contour>
  </outline>
</glyph>
<glyph name="Aacute" format="1">
  <advance width="592"/>
  <unicode hex="00C1"/>
  <outline>
    <contour>
      <point x="313" y="680" type="line"/>
      <point x="267" y="680" type="line"/>
      <point x="20" y="0" type="line"/>
      <point x="69" y="0" type="line"/>
      <point x="146" y="213" type="line"/>
      <point x="441" y="213" type="line"/>
      <point x="522" y="0" type="line"/>
      <point x="572" y="11" type="line"/>
    </contour>
    <contour>
      <point x="291" y="614" type="line"/>
      <point x="427" y="252" type="line"/>
      <point x="160" y="252" type="line"/>
    </contour>
    <contour>
      <point x="310" y="892" type="line"/>
      <point x="250" y="739" type="line"/>
      <point x="286" y="739" type="line"/>
      <point x="372" y="892" type="line"/>
    </contour>
  </outline>
</glyph>
<glyph name="Acircumflex" format="1">
  <advance width="592"/>
  <unicode hex="00C2"/>
  <outline>
    <contour>
      <point x="313" y="680" type="line"/>
      <point x="267" y="680" type="line"/>
      <point x="20" y="0" type="line"/>
      <point x="69" y="0" type="line"/>
      <point x="146" y="213" type="line"/>
      <point x="441" y="213" type="line"/>
      <point x="522" y="0" type="line"/>
      <point x="572" y="11" type="line"/>
    </contour>
    <contour>
      <point x="291" y="614" type="line"/>
      <point x="427" y="252" type="line"/>
      <point x="160" y="252" type="line"/>
    </contour>
    <contour>
      <point x="205" y="740" type="line"/>
      <point x="291" y="858" type="line"/>
      <point x="374" y="740" type="line"/>
      <point x="426" y="740" type="line"/>
      <point x="310" y="893" type="line"/>
      <point x="270" y="893" type="line"/>
      <point x="155" y="740" type="line"/>
    </contour>
  </outline>
</glyph>
<glyph name="Atilde" format="1">
  <advance width="592"/>
  <unicode hex="00C3"/>
  <outline>
    <contour>
      <point x="313" y="680" type="line"/>
      <point x="267" y="680" type="line"/>
      <point x="20" y="0" type="line"/>
      <point x="69" y="0" type="line"/>
      <point x="146" y="213" type="line"/>
      <point x="441" y="213" type="line"/>
      <point x="522" y="0" type="line"/>
      <point x="572" y="11" type="line"/>
    </contour>
    <contour>
      <point x="291" y="614" type="line"/>
      <point x="427" y="252" type="line"/>
      <point x="160" y="252" type="line"/>
    </contour>
    <contour>
      <point x="391" y="758"/>
      <point x="428" y="786"/>
      <point x="428" y="849" type="curve"/>
      <point x="390" y="849" type="line"/>
      <point x="387" y="818"/>
      <point x="373" y="796"/>
      <point x="345" y="796" type="curve" smooth="yes"/>
      <point x="310" y="796"/>
      <point x="288" y="853"/>
      <point x="232" y="853" type="curve" smooth="yes"/>
      <point x="186" y="853"/>
      <point x="149" y="825"/>
      <point x="149" y="762" type="curve"/>
      <point x="188" y="762" type="line"/>
      <point x="191" y="793"/>
      <point x="204" y="815"/>
      <point x="233" y="815" type="curve" smooth="yes"/>
      <point x="267" y="815"/>
      <point x="299" y="758"/>
      <point x="345" y="758" type="curve" smooth="yes"/>
    </contour>
  </outline>
</glyph>
<glyph name="Adieresis" format="1">
  <advance width="592"/>
  <unicode hex="00C4"/>
  <outline>
    <contour>
      <point x="313" y="680" type="line"/>
      <point x="267" y="680" type="line"/>
      <point x="20" y="0" type="line"/>
      <point x="69" y="0" type="line"/>
      <point x="146" y="213" type="line"/>
      <point x="441" y="213" type="line"/>
      <point x="522" y="0" type="line"/>
      <point x="572" y="11" type="line"/>
    </contour>
    <contour>
      <point x="291" y="614" type="line"/>
      <point x="427" y="252" type="line"/>
      <point x="160" y="252" type="line"/>
    </contour>
    <contour>
      <point x="174" y="783"/>
      <point x="188" y="768"/>
      <point x="211" y="768" type="curve" smooth="yes"/>
      <point x="231" y="768"/>
      <point x="248" y="783"/>
      <point x="248" y="805" type="curve" smooth="yes"/>
      <point x="248" y="826"/>
      <point x="231" y="841"/>
      <point x="211" y="841" type="curve" smooth="yes"/>
      <point x="188" y="841"/>
      <point x="174" y="826"/>
      <point x="174" y="805" type="curve" smooth="yes"/>
    </contour>
    <contour>
      <point x="333" y="783"/>
      <point x="347" y="768"/>
      <point x="370" y="768" type="curve" smooth="yes"/>
      <point x="390" y="768"/>
      <point x="407" y="783"/>
      <point x="407" y="805" type="curve" smooth="yes"/>
      <point x="407" y="826"/>
      <point x="390" y="841"/>
      <point x="370" y="841" type="curve" smooth="yes"/>
      <point x="347" y="841"/>
      <point x="333" y="826"/>
      <point x="333" y="805" type="curve" smooth="yes"/>
    </contour>
  </outline>
</glyph>
<glyph name="Aring" format="1">
  <advance width="592"/>
  <unicode hex="00C5"/>
  <outline>
    <contour>
      <point x="313" y="680" type="line"/>
      <point x="267" y="680" type="line"/>
      <point x="20" y="0" type="line"/>
      <point x="69" y="0" type="line"/>
      <point x="146" y="213" type="line"/>
      <point x="441" y="213" type="line"/>
      <point x="522" y="0" type="line"/>
      <point x="572" y="11" type="line"/>
    </contour>
    <contour>
      <point x="291" y="614" type="line"/>
      <point x="427" y="252" type="line"/>
      <point x="160" y="252" type="line"/>
    </contour>
    <contour>
      <point x="339" y="795"/>
      <point x="320" y="774"/>
      <point x="290" y="774" type="curve" smooth="yes"/>
      <point x="260" y="774"/>
      <point x="240" y="795"/>
      <point x="240" y="825" type="curve" smooth="yes"/>
      <point x="240" y="856"/>
      <point x="260" y="878"/>
      <point x="290" y="878" type="curve" smooth="yes"/>
      <point x="320" y="878"/>
      <point x="339" y="856"/>
      <point x="339" y="825" type="curve" smooth="yes"/>
    </contour>
    <contour>
      <point x="378" y="873"/>
      <point x="338" y="909"/>
      <point x="290" y="909" type="curve" smooth="yes"/>
      <point x="242" y="909"/>
      <point x="201" y="873"/>
      <point x="201" y="825" type="curve" smooth="yes"/>
      <point x="201" y="778"/>
      <point x="242" y="744"/>
      <point x="290" y="744" type="curve" smooth="yes"/>
      <point x="338" y="744"/>
      <point x="378" y="778"/>
      <point x="378" y="825" type="curve" smooth="yes"/>
    </contour>
  </outline>
</glyph>
<glyph name="Ccedilla" format="1">
  <advance width="569"/>
  <unicode hex="00C7"/>
  <outline>
    <contour>
      <point x="426" y="651"/>
      <point x="458" y="638"/>
      <point x="499" y="621" type="curve"/>
      <point x="519" y="657" type="line"/>
      <point x="481" y="683"/>
      <point x="397" y="694"/>
      <point x="356" y="694" type="curve" smooth="yes"/>
      <point x="159" y="694"/>
      <point x="66" y="536"/>
      <point x="66" y="336" type="curve" smooth="yes"/>
      <point x="66" y="156"/>
      <point x="136" y="-3"/>
      <point x="329" y="-13" type="curve"/>
      <point x="305" y="-77" type="line"/>
      <point x="369" y="-77"/>
      <point x="404" y="-110"/>
      <point x="404" y="-138" type="curve" smooth="yes"/>
      <point x="404" y="-164"/>
      <point x="376" y="-185"/>
      <point x="334" y="-185" type="curve" smooth="yes"/>
      <point x="313" y="-185"/>
      <point x="287" y="-177"/>
      <point x="275" y="-171" type="curve"/>
      <point x="260" y="-202" type="line"/>
      <point x="278" y="-213"/>
      <point x="313" y="-221"/>
      <point x="337" y="-221" type="curve" smooth="yes"/>
      <point x="402" y="-221"/>
      <point x="446" y="-187"/>
      <point x="446" y="-136" type="curve" smooth="yes"/>
      <point x="446" y="-101"/>
      <point x="415" y="-62"/>
      <point x="355" y="-51" type="curve"/>
      <point x="369" y="-13" type="line"/>
      <point x="423" y="-10"/>
      <point x="485" y="5"/>
      <point x="519" y="23" type="curve"/>
      <point x="495" y="59" type="line"/>
      <point x="459" y="43"/>
      <point x="417" y="29"/>
      <point x="345" y="29" type="curve" smooth="yes"/>
      <point x="189" y="29"/>
      <point x="121" y="174"/>
      <point x="121" y="337" type="curve" smooth="yes"/>
      <point x="121" y="530"/>
      <point x="211" y="650"/>
      <point x="354" y="651" type="curve" smooth="yes"/>
    </contour>
  </outline>
</glyph>
<glyph name="Eacute" format="1">
  <advance width="515"/>
  <unicode hex="00C9"/>
  <outline>
    <contour>
      <point x="100" y="0" type="line"/>
      <point x="475" y="0" type="line"/>
      <point x="469" y="39" type="line"/>
      <point x="149" y="39" type="line"/>
      <point x="149" y="329" type="line"/>
      <point x="354" y="329" type="line"/>
      <point x="349" y="368" type="line"/>
      <point x="149" y="368" type="line"/>
      <point x="149" y="641" type="line"/>
      <point x="452" y="641" type="line"/>
      <point x="447" y="680" type="line"/>
      <point x="100" y="680" type="line"/>
    </contour>
    <contour>
      <point x="284" y="892" type="line"/>
      <point x="224" y="739" type="line"/>
      <point x="260" y="739" type="line"/>
      <point x="346" y="892" type="line"/>
    </contour>
  </outline>
</glyph>
<glyph name="Ecircumflex" format="1">
  <advance width="515"/>
  <unicode hex="00CA"/>
  <outline>
    <contour>
      <point x="100" y="0" type="line"/>
      <point x="475" y="0" type="line"/>
      <point x="469" y="39" type="line"/>
      <point x="149" y="39" type="line"/>
      <point x="149" y="329" type="line"/>
      <point x="354" y="329" type="line"/>
      <point x="349" y="368" type="line"/>
      <point x="149" y="368" type="line"/>
      <point x="149" y="641" type="line"/>
      <point x="452" y="641" type="line"/>
      <point x="447" y="680" type="line"/>
      <point x="100" y="680" type="line"/>
    </contour>
    <contour>
      <point x="179" y="740" type="line"/>
      <point x="265" y="858" type="line"/>
      <point x="348" y="740" type="line"/>
      <point x="400" y="740" type="line"/>
      <point x="284" y="893" type="line"/>
      <point x="244" y="893" type="line"/>
      <point x="129" y="740" type="line"/>
    </contour>
  </outline>
</glyph>
<glyph name="Edieresis" format="1">
  <advance width="515"/>
  <unicode hex="00CB"/>
  <outline>
    <contour>
      <point x="100" y="0" type="line"/>
      <point x="475" y="0" type="line"/>
      <point x="469" y="39" type="line"/>
      <point x="149" y="39" type="line"/>
      <point x="149" y="329" type="line"/>
      <point x="354" y="329" type="line"/>
      <point x="349" y="368" type="line"/>
      <point x="149" y="368" type="line"/>
      <point x="149" y="641" type="line"/>
      <point x="452" y="641" type="line"/>
      <point x="447" y="680" type="line"/>
      <point x="100" y="680" type="line"/>
    </contour>
    <contour>
      <point x="148" y="783"/>
      <point x="162" y="768"/>
      <point x="185" y="768" type="curve" smooth="yes"/>
      <point x="205" y="768"/>
      <point x="222" y="783"/>
      <point x="222" y="805" type="curve" smooth="yes"/>
      <point x="222" y="826"/>
      <point x="205" y="841"/>
      <point x="185" y="841" type="curve" smooth="yes"/>
      <point x="162" y="841"/>
      <point x="148" y="826"/>
      <point x="148" y="805" type="curve" smooth="yes"/>
    </contour>
    <contour>
      <point x="307" y="783"/>
      <point x="321" y="768"/>
      <point x="344" y="768" type="curve" smooth="yes"/>
      <point x="364" y="768"/>
      <point x="381" y="783"/>
      <point x="381" y="805" type="curve" smooth="yes"/>
      <point x="381" y="826"/>
      <point x="364" y="841"/>
      <point x="344" y="841" type="curve" smooth="yes"/>
      <point x="321" y="841"/>
      <point x="307" y="826"/>
      <point x="307" y="805" type="curve" smooth="yes"/>
    </contour>
  </outline>
</glyph>
<glyph name="Igrave" format="1">
  <advance width="249"/>
  <unicode hex="00CC"/>
  <outline>
    <contour>
      <point x="100" y="0" type="line"/>
      <point x="149" y="0" type="line"/>
      <point x="149" y="680" type="line"/>
      <point x="100" y="680" type="line"/>
    </contour>
    <contour>
      <point x="33" y="892" type="line"/>
      <point x="118" y="739" type="line"/>
      <point x="155" y="739" type="line"/>
      <point x="94" y="892" type="line"/>
    </contour>
  </outline>
</glyph>
<glyph name="Iacute" format="1">
  <advance width="249"/>
  <unicode hex="00CD"/>
  <outline>
    <contour>
      <point x="100" y="0" type="line"/>
      <point x="149" y="0" type="line"/>
      <point x="149" y="680" type="line"/>
      <point x="100" y="680" type="line"/>
    </contour>
    <contour>
      <point x="161" y="892" type="line"/>
      <point x="101" y="739" type="line"/>
      <point x="137" y="739" type="line"/>
      <point x="223" y="892" type="line"/>
    </contour>
  </outline>
</glyph>
<glyph name="Icircumflex" format="1">
  <advance width="249"/>
  <unicode hex="00CE"/>
  <outline>
    <contour>
      <point x="100" y="0" type="line"/>
      <point x="149" y="0" type="line"/>
      <point x="149" y="680" type="line"/>
      <point x="100" y="680" type="line"/>
    </contour>
    <contour>
      <point x="39" y="740" type="line"/>
      <point x="125" y="858" type="line"/>
      <point x="208" y="740" type="line"/>
      <point x="260" y="740" type="line"/>
      <point x="144" y="893" type="line"/>
      <point x="104" y="893" type="line"/>
      <point x="-11" y="740" type="line"/>
    </contour>
  </outline>
</glyph>
<glyph name="Idieresis" format="1">
  <advance width="249"/>
  <unicode hex="00CF"/>
  <outline>
    <contour>
      <point x="100" y="0" type="line"/>
      <point x="149" y="0" type="line"/>
      <point x="149" y="680" type="line"/>
      <point x="100" y="680" type="line"/>
    </contour>
    <contour>
      <point x="8" y="783"/>
      <point x="22" y="768"/>
      <point x="45" y="768" type="curve" smooth="yes"/>
      <point x="65" y="768"/>
      <point x="82" y="783"/>
      <point x="82" y="805" type="curve" smooth="yes"/>
      <point x="82" y="826"/>
      <point x="65" y="841"/>
      <point x="45" y="841" type="curve" smooth="yes"/>
      <point x="22" y="841"/>
      <point x="8" y="826"/>
      <point x="8" y="805" type="curve" smooth="yes"/>
    </contour>
    <contour>
      <point x="167" y="783"/>
      <point x="181" y="768"/>
      <point x="204" y="768" type="curve" smooth="yes"/>
      <point x="224" y="768"/>
      <point x="241" y="783"/>
      <point x="241" y="805" type="curve" smooth="yes"/>
      <point x="241" y="826"/>
      <point x="224" y="841"/>
      <point x="204" y="841" type="curve" smooth="yes"/>
      <point x="181" y="841"/>
      <point x="167" y="826"/>
      <point x="167" y="805" type="curve" smooth="yes"/>
    </contour>
  </outline>
</glyph>
<glyph name="Eth" format="1">
  <advance width="658"/>
  <unicode hex="00D0"/>
  <outline>
    <contour>
      <point x="100" y="0" type="line"/>
      <point x="301" y="0" type="line" smooth="yes"/>
      <point x="500" y="0"/>
      <point x="592" y="154"/>
      <point x="592" y="344" type="curve" smooth="yes"/>
      <point x="592" y="530"/>
      <point x="514" y="680"/>
      <point x="304" y="680" type="curve" smooth="yes"/>
      <point x="100" y="680" type="line"/>
      <point x="100" y="353" type="line"/>
      <point x="10" y="353" type="line"/>
      <point x="20" y="314" type="line"/>
      <point x="100" y="314" type="line"/>
    </contour>
    <contour>
      <point x="258" y="353" type="line"/>
      <point x="149" y="353" type="line"/>
      <point x="149" y="641" type="line"/>
      <point x="312" y="641" type="line" smooth="yes"/>
      <point x="468" y="641"/>
      <point x="541" y="505"/>
      <point x="541" y="343" type="curve" smooth="yes"/>
      <point x="541" y="167"/>
      <point x="445" y="39"/>
      <point x="302" y="39" type="curve" smooth="yes"/>
      <point x="149" y="39" type="line"/>
      <point x="149" y="314" type="line"/>
      <point x="268" y="314" type="line"/>
    </contour>
  </outline>
</glyph>
<glyph name="Ntilde" format="1">
  <advance width="658"/>
  <unicode hex="00D1"/>
  <outline>
    <contour>
      <point x="100" y="0" type="line"/>
      <point x="149" y="0" type="line"/>
      <point x="149" y="574" type="line"/>
      <point x="163" y="545" type="line"/>
      <point x="531" y="0" type="line"/>
      <point x="558" y="0" type="line"/>
      <point x="558" y="680" type="line"/>
      <point x="509" y="680" type="line"/>
      <point x="509" y="111" type="line"/>
      <point x="475" y="170" type="line"/>
      <point x="128" y="680" type="line"/>
      <point x="100" y="680" type="line"/>
    </contour>
    <contour>
      <point x="431" y="758"/>
      <point x="468" y="786"/>
      <point x="468" y="849" type="curve"/>
      <point x="430" y="849" type="line"/>
      <point x="427" y="818"/>
      <point x="413" y="796"/>
      <point x="385" y="796" type="curve" smooth="yes"/>
      <point x="350" y="796"/>
      <point x="328" y="853"/>
      <point x="272" y="853" type="curve" smooth="yes"/>
      <point x="226" y="853"/>
      <point x="189" y="825"/>
      <point x="189" y="762" type="curve"/>
      <point x="228" y="762" type="line"/>
      <point x="231" y="793"/>
      <point x="244" y="815"/>
      <point x="273" y="815" type="curve" smooth="yes"/>
      <point x="307" y="815"/>
      <point x="339" y="758"/>
      <point x="385" y="758" type="curve" smooth="yes"/>
    </contour>
  </outline>
</glyph>
<glyph name="Oacute" format="1">
  <advance width="699"/>
  <unicode hex="00D3"/>
  <outline>
    <contour>
      <point x="633" y="531"/>
      <point x="551" y="696"/>
      <point x="353" y="696" type="curve" smooth="yes"/>
      <point x="167" y="696"/>
      <point x="66" y="537"/>
      <point x="66" y="337" type="curve" smooth="yes"/>
      <point x="66" y="152"/>
      <point x="148" y="-14"/>
      <point x="347" y="-14" type="curve" smooth="yes"/>
      <point x="536" y="-14"/>
      <point x="633" y="156"/>
      <point x="633" y="345" type="curve" smooth="yes"/>
    </contour>
    <contour>
      <point x="189" y="27"/>
      <point x="121" y="175"/>
      <point x="121" y="338" type="curve" smooth="yes"/>
      <point x="121" y="514"/>
      <point x="211" y="654"/>
      <point x="354" y="654" type="curve"/>
      <point x="511" y="654"/>
      <point x="578" y="507"/>
      <point x="578" y="344" type="curve" smooth="yes"/>
      <point x="578" y="167"/>
      <point x="489" y="27"/>
      <point x="345" y="27" type="curve"/>
    </contour>
    <contour>
      <point x="373" y="892" type="line"/>
      <point x="313" y="739" type="line"/>
      <point x="349" y="739" type="line"/>
      <point x="435" y="892" type="line"/>
    </contour>
  </outline>
</glyph>
<glyph name="Otilde" format="1">
  <advance width="699"/>
  <unicode hex="00D5"/>
  <outline>
    <contour>
      <point x="633" y="531"/>
      <point x="551" y="696"/>
      <point x="353" y="696" type="curve" smooth="yes"/>
      <point x="167" y="696"/>
      <point x="66" y="537"/>
      <point x="66" y="337" type="curve" smooth="yes"/>
      <point x="66" y="152"/>
      <point x="148" y="-14"/>
      <point x="347" y="-14" type="curve" smooth="yes"/>
      <point x="536" y="-14"/>
      <point x="633" y="156"/>
      <point x="633" y="345" type="curve" smooth="yes"/>
    </contour>
    <contour>
      <point x="189" y="27"/>
      <point x="121" y="175"/>
      <point x="121" y="338" type="curve" smooth="yes"/>
      <point x="121" y="514"/>
      <point x="211" y="654"/>
      <point x="354" y="654" type="curve"/>
      <point x="511" y="654"/>
      <point x="578" y="507"/>
      <point x="578" y="344" type="curve" smooth="yes"/>
      <point x="578" y="167"/>
      <point x="489" y="27"/>
      <point x="345" y="27" type="curve"/>
    </contour>
    <contour>
      <point x="454" y="758"/>
      <point x="491" y="786"/>
      <point x="491" y="849" type="curve"/>
      <point x="453" y="849" type="line"/>
      <point x="450" y="818"/>
      <point x="436" y="796"/>
      <point x="408" y="796" type="curve" smooth="yes"/>
      <point x="373" y="796"/>
      <point x="351" y="853"/>
      <point x="295" y="853" type="curve" smooth="yes"/>
      <point x="249" y="853"/>
      <point x="212" y="825"/>
      <point x="212" y="762" type="curve"/>
      <point x="251" y="762" type="line"/>
      <point x="254" y="793"/>
      <point x="267" y="815"/>
      <point x="296" y="815" type="curve" smooth="yes"/>
      <point x="330" y="815"/>
      <point x="362" y="758"/>
      <point x="408" y="758" type="curve" smooth="yes"/>
    </contour>
  </outline>
</glyph>
<glyph name="Odieresis" format="1">
  <advance width="699"/>
  <unicode hex="00D6"/>
  <outline>
    <contour>
      <point x="633" y="531"/>
      <point x="551" y="696"/>
      <point x="353" y="696" type="curve" smooth="yes"/>
      <point x="167" y="696"/>
      <point x="66" y="537"/>
      <point x="66" y="337" type="curve" smooth="yes"/>
      <point x="66" y="152"/>
      <point x="148" y="-14"/>
      <point x="347" y="-14" type="curve" smooth="yes"/>
      <point x="536" y="-14"/>
      <point x="633" y="156"/>
      <point x="633" y="345" type="curve" smooth="yes"/>
    </contour>
    <contour>
      <point x="189" y="27"/>
      <point x="121" y="175"/>
      <point x="121" y="338" type="curve" smooth="yes"/>
      <point x="121" y="514"/>
      <point x="211" y="654"/>
      <point x="354" y="654" type="curve"/>
      <point x="511" y="654"/>
      <point x="578" y="507"/>
      <point x="578" y="344" type="curve" smooth="yes"/>
      <point x="578" y="167"/>
      <point x="489" y="27"/>
      <point x="345" y="27" type="curve"/>
    </contour>
    <contour>
      <point x="237" y="783"/>
      <point x="251" y="768"/>
      <point x="274" y="768" type="curve" smooth="yes"/>
      <point x="294" y="768"/>
      <point x="311" y="783"/>
      <point x="311" y="805" type="curve" smooth="yes"/>
      <point x="311" y="826"/>
      <point x="294" y="841"/>
      <point x="274" y="841" type="curve" smooth="yes"/>
      <point x="251" y="841"/>
      <point x="237" y="826"/>
      <point x="237" y="805" type="curve" smooth="yes"/>
    </contour>
    <contour>
      <point x="396" y="783"/>
      <point x="410" y="768"/>
      <point x="433" y="768" type="curve" smooth="yes"/>
      <point x="453" y="768"/>
      <point x="470" y="783"/>
      <point x="470" y="805" type="curve" smooth="yes"/>
      <point x="470" y="826"/>
      <point x="453" y="841"/>
      <point x="433" y="841" type="curve" smooth="yes"/>
      <point x="410" y="841"/>
      <point x="396" y="826"/>
      <point x="396" y="805" type="curve" smooth="yes"/>
    </contour>
  </outline>
</glyph>
<glyph name="multiply" format="1">
  <advance width="470"/>
  <unicode hex="00D7"/>
  <outline>
    <contour>
      <point x="30" y="41" type="line"/>
      <point x="75" y="31" type="line"/>
      <point x="224" y="213" type="line"/>
      <point x="374" y="31" type="line"/>
      <point x="423" y="31" type="line"/>
      <point x="257" y="240" type="line"/>
      <point x="440" y="464" type="line"/>
      <point x="389" y="464" type="line"/>
      <point x="229" y="273" type="line"/>
      <point x="77" y="464" type="line"/>
      <point x="32" y="454" type="line"/>
      <point x="199" y="247" type="line"/>
    </contour>
  </outline>
</glyph>
<glyph name="Oslash" format="1">
  <advance width="699"/>
  <unicode hex="00D8"/>
  <outline>
    <contour>
      <point x="633" y="531"/>
      <point x="551" y="696"/>
      <point x="353" y="696" type="curve" smooth="yes"/>
      <point x="167" y="696"/>
      <point x="66" y="537"/>
      <point x="66" y="337" type="curve" smooth="yes"/>
      <point x="66" y="152"/>
      <point x="148" y="-14"/>
      <point x="347" y="-14" type="curve" smooth="yes"/>
      <point x="536" y="-14"/>
      <point x="633" y="156"/>
      <point x="633" y="345" type="curve" smooth="yes"/>
    </contour>
    <contour>
      <point x="121" y="514"/>
      <point x="211" y="652"/>
      <point x="354" y="652" type="curve" smooth="yes"/>
      <point x="391" y="652"/>
      <point x="423" y="644"/>
      <point x="451" y="629" type="curve"/>
      <point x="215" y="75" type="line"/>
      <point x="150" y="131"/>
      <point x="121" y="230"/>
      <point x="121" y="338" type="curve" smooth="yes"/>
    </contour>
    <contour>
      <point x="311" y="29"/>
      <point x="281" y="35"/>
      <point x="256" y="48" type="curve"/>
      <point x="490" y="601" type="line"/>
      <point x="551" y="545"/>
      <point x="578" y="448"/>
      <point x="578" y="344" type="curve" smooth="yes"/>
      <point x="578" y="167"/>
      <point x="489" y="29"/>
      <point x="345" y="29" type="curve" smooth="yes"/>
    </contour>
  </outline>
</glyph>
<glyph name="Ugrave" format="1">
  <advance width="650"/>
  <unicode hex="00D9"/>
  <outline>
    <contour>
      <point x="210" y="29"/>
      <point x="139" y="119"/>
      <point x="139" y="236" type="curve" smooth="yes"/>
      <point x="139" y="680" type="line"/>
      <point x="90" y="680" type="line"/>
      <point x="90" y="239" type="line" smooth="yes"/>
      <point x="90" y="93"/>
      <point x="171" y="-12"/>
      <point x="325" y="-12" type="curve" smooth="yes"/>
      <point x="481" y="-12"/>
      <point x="560" y="93"/>
      <point x="560" y="239" type="curve" smooth="yes"/>
      <point x="560" y="680" type="line"/>
      <point x="511" y="680" type="line"/>
      <point x="511" y="236" type="line" smooth="yes"/>
      <point x="511" y="119"/>
      <point x="444" y="29"/>
      <point x="325" y="29" type="curve" smooth="yes"/>
    </contour>
    <contour>
      <point x="240" y="892" type="line"/>
      <point x="325" y="739" type="line"/>
      <point x="362" y="739" type="line"/>
      <point x="301" y="892" type="line"/>
    </contour>
  </outline>
</glyph>
<glyph name="Udieresis" format="1">
  <advance width="650"/>
  <unicode hex="00DC"/>
  <outline>
    <contour>
      <point x="210" y="29"/>
      <point x="139" y="119"/>
      <point x="139" y="236" type="curve" smooth="yes"/>
      <point x="139" y="680" type="line"/>
      <point x="90" y="680" type="line"/>
      <point x="90" y="239" type="line" smooth="yes"/>
      <point x="90" y="93"/>
      <point x="171" y="-12"/>
      <point x="325" y="-12" type="curve" smooth="yes"/>
      <point x="481" y="-12"/>
      <point x="560" y="93"/>
      <point x="560" y="239" type="curve" smooth="yes"/>
      <point x="560" y="680" type="line"/>
      <point x="511" y="680" type="line"/>
      <point x="511" y="236" type="line" smooth="yes"/>
      <point x="511" y="119"/>
      <point x="444" y="29"/>
      <point x="325" y="29" type="curve" smooth="yes"/>
    </contour>
    <contour>
      <point x="215" y="783"/>
      <point x="229" y="768"/>
      <point x="252" y="768" type="curve" smooth="yes"/>
      <point x="272" y="768"/>
      <point x="289" y="783"/>
      <point x="289" y="805" type="curve" smooth="yes"/>
      <point x="289" y="826"/>
      <point x="272" y="841"/>
      <point x="252" y="841" type="curve" smooth="yes"/>
      <point x="229" y="841"/>
      <point x="215" y="826"/>
      <point x="215" y="805" type="curve" smooth="yes"/>
    </contour>
    <contour>
      <point x="374" y="783"/>
      <point x="388" y="768"/>
      <point x="411" y="768" type="curve" smooth="yes"/>
      <point x="431" y="768"/>
      <point x="448" y="783"/>
      <point x="448" y="805" type="curve" smooth="yes"/>
      <point x="448" y="826"/>
      <point x="431" y="841"/>
      <point x="411" y="841" type="curve" smooth="yes"/>
      <point x="388" y="841"/>
      <point x="374" y="826"/>
      <point x="374" y="805" type="curve" smooth="yes"/>
    </contour>
  </outline>
</glyph>
<glyph name="Yacute" format="1">
  <advance width="536"/>
  <unicode hex="00DD"/>
  <outline>
    <contour>
      <point x="241" y="0" type="line"/>
      <point x="290" y="0" type="line"/>
      <point x="290" y="274" type="line"/>
      <point x="526" y="680" type="line"/>
      <point x="469" y="680" type="line"/>
      <point x="265" y="321" type="line"/>
      <point x="65" y="680" type="line"/>
      <point x="10" y="669" type="line"/>
      <point x="241" y="269" type="line"/>
    </contour>
    <contour>
      <point x="286" y="892" type="line"/>
      <point x="226" y="739" type="line"/>
      <point x="262" y="739" type="line"/>
      <point x="348" y="892" type="line"/>
    </contour>
  </outline>
</glyph>
<glyph name="Thorn" format="1">
  <advance width="562"/>
  <unicode hex="00DE"/>
  <outline>
    <contour>
      <point x="275" y="522" type="line" smooth="yes"/>
      <point x="385" y="522"/>
      <point x="458" y="474"/>
      <point x="458" y="356" type="curve" smooth="yes"/>
      <point x="458" y="242"/>
      <point x="371" y="185"/>
      <point x="264" y="185" type="curve" smooth="yes"/>
      <point x="149" y="185" type="line"/>
      <point x="149" y="522" type="line"/>
    </contour>
    <contour>
      <point x="149" y="680" type="line"/>
      <point x="100" y="680" type="line"/>
      <point x="100" y="0" type="line"/>
      <point x="149" y="0" type="line"/>
      <point x="149" y="146" type="line"/>
      <point x="252" y="146" type="line" smooth="yes"/>
      <point x="394" y="146"/>
      <point x="508" y="210"/>
      <point x="508" y="357" type="curve" smooth="yes"/>
      <point x="508" y="506"/>
      <point x="405" y="562"/>
      <point x="263" y="562" type="curve" smooth="yes"/>
      <point x="149" y="562" type="line"/>
    </contour>
  </outline>
</glyph>
<glyph name="germandbls" format="1">
  <advance width="569"/>
  <unicode hex="00DF"/>
  <outline>
    <contour>
      <point x="161" y="680"/>
      <point x="90" y="603"/>
      <point x="90" y="473" type="curve" smooth="yes"/>
      <point x="90" y="0" type="line"/>
      <point x="140" y="0" type="line"/>
      <point x="140" y="473" type="line" smooth="yes"/>
      <point x="140" y="564"/>
      <point x="190" y="639"/>
      <point x="289" y="639" type="curve" smooth="yes"/>
      <point x="362" y="639"/>
      <point x="423" y="590"/>
      <point x="423" y="502" type="curve" smooth="yes"/>
      <point x="423" y="417"/>
      <point x="378" y="372"/>
      <point x="258" y="372" type="curve"/>
      <point x="231" y="372" type="line"/>
      <point x="231" y="333" type="line"/>
      <point x="276" y="333" type="line" smooth="yes"/>
      <point x="386" y="333"/>
      <point x="457" y="288"/>
      <point x="457" y="186" type="curve" smooth="yes"/>
      <point x="457" y="80"/>
      <point x="373" y="39"/>
      <point x="266" y="39" type="curve" smooth="yes"/>
      <point x="215" y="39" type="line"/>
      <point x="215" y="0" type="line"/>
      <point x="253" y="0" type="line" smooth="yes"/>
      <point x="395" y="0"/>
      <point x="509" y="44"/>
      <point x="509" y="188" type="curve" smooth="yes"/>
      <point x="509" y="275"/>
      <point x="452" y="336"/>
      <point x="379" y="356" type="curve"/>
      <point x="439" y="382"/>
      <point x="475" y="432"/>
      <point x="475" y="503" type="curve" smooth="yes"/>
      <point x="475" y="619"/>
      <point x="391" y="680"/>
      <point x="286" y="680" type="curve" smooth="yes"/>
    </contour>
  </outline>
</glyph>
<glyph name="aacute" format="1">
  <advance width="481"/>
  <unicode hex="00E1"/>
  <outline>
    <contour>
      <point x="201" y="498"/>
      <point x="123" y="482"/>
      <point x="86" y="456" type="curve"/>
      <point x="105" y="423" type="line"/>
      <point x="145" y="442"/>
      <point x="178" y="457"/>
      <point x="244" y="457" type="curve" smooth="yes"/>
      <point x="323" y="457"/>
      <point x="360" y="408"/>
      <point x="360" y="341" type="curve" smooth="yes"/>
      <point x="360" y="281" type="line"/>
      <point x="225" y="281" type="line" smooth="yes"/>
      <point x="123" y="281"/>
      <point x="52" y="229"/>
      <point x="52" y="136" type="curve" smooth="yes"/>
      <point x="52" y="51"/>
      <point x="105" y="-13"/>
      <point x="215" y="-13" type="curve" smooth="yes"/>
      <point x="277" y="-13"/>
      <point x="330" y="15"/>
      <point x="363" y="52" type="curve"/>
      <point x="381" y="0" type="line"/>
      <point x="409" y="0" type="line"/>
      <point x="409" y="340" type="line" smooth="yes"/>
      <point x="409" y="435"/>
      <point x="352" y="498"/>
      <point x="241" y="498" type="curve" smooth="yes"/>
    </contour>
    <contour>
      <point x="146" y="28"/>
      <point x="103" y="76"/>
      <point x="103" y="136" type="curve" smooth="yes"/>
      <point x="103" y="196"/>
      <point x="141" y="244"/>
      <point x="229" y="244" type="curve" smooth="yes"/>
      <point x="360" y="244" type="line"/>
      <point x="360" y="109" type="line"/>
      <point x="329" y="63"/>
      <point x="282" y="28"/>
      <point x="219" y="28" type="curve" smooth="yes"/>
    </contour>
    <contour>
      <point x="263" y="742" type="line"/>
      <point x="203" y="589" type="line"/>
      <point x="239" y="589" type="line"/>
      <point x="325" y="742" type="line"/>
    </contour>
  </outline>
</glyph>
<glyph name="atilde" format="1">
  <advance width="481"/>
  <unicode hex="00E3"/>
  <outline>
    <contour>
      <point x="201" y="498"/>
      <point x="123" y="482"/>
      <point x="86" y="456" type="curve"/>
      <point x="105" y="423" type="line"/>
      <point x="145" y="442"/>
      <point x="178" y="457"/>
      <point x="244" y="457" type="curve" smooth="yes"/>
      <point x="323" y="457"/>
      <point x="360" y="408"/>
      <point x="360" y="341" type="curve" smooth="yes"/>
      <point x="360" y="281" type="line"/>
      <point x="225" y="281" type="line" smooth="yes"/>
      <point x="123" y="281"/>
      <point x="52" y="229"/>
      <point x="52" y="136" type="curve" smooth="yes"/>
      <point x="52" y="51"/>
      <point x="105" y="-13"/>
      <point x="215" y="-13" type="curve" smooth="yes"/>
      <point x="277" y="-13"/>
      <point x="330" y="15"/>
      <point x="363" y="52" type="curve"/>
      <point x="381" y="0" type="line"/>
      <point x="409" y="0" type="line"/>
      <point x="409" y="340" type="line" smooth="yes"/>
      <point x="409" y="435"/>
      <point x="352" y="498"/>
      <point x="241" y="498" type="curve" smooth="yes"/>
    </contour>
    <contour>
      <point x="146" y="28"/>
      <point x="103" y="76"/>
      <point x="103" y="136" type="curve" smooth="yes"/>
      <point x="103" y="196"/>
      <point x="141" y="244"/>
      <point x="229" y="244" type="curve" smooth="yes"/>
      <point x="360" y="244" type="line"/>
      <point x="360" y="109" type="line"/>
      <point x="329" y="63"/>
      <point x="282" y="28"/>
      <point x="219" y="28" type="curve" smooth="yes"/>
    </contour>
    <contour>
      <point x="344" y="608"/>
      <point x="381" y="636"/>
      <point x="381" y="699" type="curve"/>
      <point x="343" y="699" type="line"/>
      <point x="340" y="668"/>
      <point x="326" y="646"/>
      <point x="298" y="646" type="curve" smooth="yes"/>
      <point x="263" y="646"/>
      <point x="241" y="703"/>
      <point x="185" y="703" type="curve" smooth="yes"/>
      <point x="139" y="703"/>
      <point x="102" y="675"/>
      <point x="102" y="612" type="curve"/>
      <point x="141" y="612" type="line"/>
      <point x="144" y="643"/>
      <point x="157" y="665"/>
      <point x="186" y="665" type="curve" smooth="yes"/>
      <point x="220" y="665"/>
      <point x="252" y="608"/>
      <point x="298" y="608" type="curve" smooth="yes"/>
    </contour>
  </outline>
</glyph>
<glyph name="ae" format="1">
  <advance width="809"/>
  <unicode hex="00E6"/>
  <outline>
    <contour>
      <point x="761" y="242" type="line"/>
      <point x="761" y="391"/>
      <point x="693" y="498"/>
      <point x="577" y="498" type="curve" smooth="yes"/>
      <point x="494" y="498"/>
      <point x="434" y="462"/>
      <point x="399" y="403" type="curve"/>
      <point x="378" y="462"/>
      <point x="325" y="498"/>
      <point x="241" y="498" type="curve" smooth="yes"/>
      <point x="201" y="498"/>
      <point x="123" y="482"/>
      <point x="86" y="456" type="curve"/>
      <point x="105" y="423" type="line"/>
      <point x="145" y="442"/>
      <point x="178" y="457"/>
      <point x="244" y="457" type="curve" smooth="yes"/>
      <point x="323" y="457"/>
      <point x="360" y="408"/>
      <point x="360" y="341" type="curve" smooth="yes"/>
      <point x="360" y="281" type="line"/>
      <point x="225" y="281" type="line" smooth="yes"/>
      <point x="123" y="281"/>
      <point x="52" y="229"/>
      <point x="52" y="136" type="curve" smooth="yes"/>
      <point x="52" y="51"/>
      <point x="105" y="-13"/>
      <point x="215" y="-13" type="curve" smooth="yes"/>
      <point x="303" y="-13"/>
      <point x="369" y="43"/>
      <point x="399" y="87" type="curve"/>
      <point x="436" y="25"/>
      <point x="502" y="-13"/>
      <point x="597" y="-13" type="curve" smooth="yes"/>
      <point x="636" y="-13"/>
      <point x="706" y="0"/>
      <point x="746" y="25" type="curve"/>
      <point x="726" y="62" type="line"/>
      <point x="692" y="45"/>
      <point x="654" y="28"/>
      <point x="583" y="28" type="curve" smooth="yes"/>
      <point x="462" y="28"/>
      <point x="413" y="126"/>
      <point x="412" y="242" type="curve"/>
    </contour>
    <contour>
      <point x="348" y="79"/>
      <point x="299" y="28"/>
      <point x="219" y="28" type="curve" smooth="yes"/>
      <point x="146" y="28"/>
      <point x="103" y="76"/>
      <point x="103" y="136" type="curve" smooth="yes"/>
      <point x="103" y="196"/>
      <point x="141" y="244"/>
      <point x="229" y="244" type="curve" smooth="yes"/>
      <point x="360" y="244" type="line"/>
      <point x="361" y="203"/>
      <point x="367" y="164"/>
      <point x="379" y="131" type="curve"/>
    </contour>
    <contour>
      <point x="662" y="457"/>
      <point x="700" y="374"/>
      <point x="709" y="279" type="curve"/>
      <point x="414" y="279" type="line"/>
      <point x="424" y="374"/>
      <point x="470" y="457"/>
      <point x="566" y="457" type="curve" smooth="yes"/>
    </contour>
  </outline>
</glyph>
<glyph name="ccedilla" format="1">
  <advance width="449"/>
  <unicode hex="00E7"/>
  <outline>
    <contour>
      <point x="376" y="62" type="line"/>
      <point x="341" y="44"/>
      <point x="324" y="28"/>
      <point x="257" y="28" type="curve" smooth="yes"/>
      <point x="147" y="28"/>
      <point x="99" y="127"/>
      <point x="99" y="246" type="curve" smooth="yes"/>
      <point x="99" y="360"/>
      <point x="155" y="457"/>
      <point x="262" y="457" type="curve" smooth="yes"/>
      <point x="323" y="457"/>
      <point x="347" y="439"/>
      <point x="381" y="423" type="curve"/>
      <point x="401" y="456" type="line"/>
      <point x="362" y="482"/>
      <point x="303" y="498"/>
      <point x="264" y="498" type="curve" smooth="yes"/>
      <point x="121" y="498"/>
      <point x="48" y="391"/>
      <point x="48" y="245" type="curve" smooth="yes"/>
      <point x="48" y="107"/>
      <point x="103" y="6"/>
      <point x="222" y="-10" type="curve"/>
      <point x="197" y="-77" type="line"/>
      <point x="261" y="-77"/>
      <point x="296" y="-110"/>
      <point x="296" y="-138" type="curve" smooth="yes"/>
      <point x="296" y="-164"/>
      <point x="268" y="-185"/>
      <point x="226" y="-185" type="curve" smooth="yes"/>
      <point x="205" y="-185"/>
      <point x="179" y="-177"/>
      <point x="167" y="-171" type="curve"/>
      <point x="152" y="-202" type="line"/>
      <point x="170" y="-213"/>
      <point x="205" y="-221"/>
      <point x="229" y="-221" type="curve" smooth="yes"/>
      <point x="294" y="-221"/>
      <point x="338" y="-187"/>
      <point x="338" y="-136" type="curve" smooth="yes"/>
      <point x="338" y="-101"/>
      <point x="307" y="-62"/>
      <point x="247" y="-51" type="curve"/>
      <point x="262" y="-13" type="line"/>
      <point x="303" y="-12"/>
      <point x="357" y="4"/>
      <point x="396" y="28" type="curve"/>
    </contour>
  </outline>
</glyph>
<glyph name="igrave" format="1">
  <advance width="209"/>
  <unicode hex="00EC"/>
  <outline>
    <contour>
      <point x="80" y="0" type="line"/>
      <point x="129" y="0" type="line"/>
      <point x="129" y="485" type="line"/>
      <point x="80" y="485" type="line"/>
    </contour>
    <contour>
      <point x="9" y="742" type="line"/>
      <point x="94" y="589" type="line"/>
      <point x="131" y="589" type="line"/>
      <point x="70" y="742" type="line"/>
    </contour>
  </outline>
</glyph>
<glyph name="iacute" format="1">
  <advance width="209"/>
  <unicode hex="00ED"/>
  <outline>
    <contour>
      <point x="80" y="0" type="line"/>
      <point x="129" y="0" type="line"/>
      <point x="129" y="485" type="line"/>
      <point x="80" y="485" type="line"/>
    </contour>
    <contour>
      <point x="137" y="742" type="line"/>
      <point x="77" y="589" type="line"/>
      <point x="113" y="589" type="line"/>
      <point x="199" y="742" type="line"/>
    </contour>
  </outline>
</glyph>
<glyph name="icircumflex" format="1">
  <advance width="209"/>
  <unicode hex="00EE"/>
  <outline>
    <contour>
      <point x="80" y="0" type="line"/>
      <point x="129" y="0" type="line"/>
      <point x="129" y="485" type="line"/>
      <point x="80" y="485" type="line"/>
    </contour>
    <contour>
      <point x="19" y="589" type="line"/>
      <point x="105" y="707" type="line"/>
      <point x="188" y="589" type="line"/>
      <point x="240" y="589" type="line"/>
      <point x="124" y="742" type="line"/>
      <point x="84" y="742" type="line"/>
      <point x="-31" y="589" type="line"/>
    </contour>
  </outline>
</glyph>
<glyph name="idieresis" format="1">
  <advance width="209"/>
  <unicode hex="00EF"/>
  <outline>
    <contour>
      <point x="80" y="0" type="line"/>
      <point x="129" y="0" type="line"/>
      <point x="129" y="485" type="line"/>
      <point x="80" y="485" type="line"/>
    </contour>
    <contour>
      <point x="-12" y="633"/>
      <point x="2" y="618"/>
      <point x="25" y="618" type="curve" smooth="yes"/>
      <point x="45" y="618"/>
      <point x="62" y="633"/>
      <point x="62" y="655" type="curve" smooth="yes"/>
      <point x="62" y="676"/>
      <point x="45" y="691"/>
      <point x="25" y="691" type="curve" smooth="yes"/>
      <point x="2" y="691"/>
      <point x="-12" y="676"/>
      <point x="-12" y="655" type="curve" smooth="yes"/>
    </contour>
    <contour>
      <point x="147" y="633"/>
      <point x="161" y="618"/>
      <point x="184" y="618" type="curve" smooth="yes"/>
      <point x="204" y="618"/>
      <point x="221" y="633"/>
      <point x="221" y="655" type="curve" smooth="yes"/>
      <point x="221" y="676"/>
      <point x="204" y="691"/>
      <point x="184" y="691" type="curve" smooth="yes"/>
      <point x="161" y="691"/>
      <point x="147" y="676"/>
      <point x="147" y="655" type="curve" smooth="yes"/>
    </contour>
  </outline>
</glyph>
<glyph name="eth" format="1">
  <advance width="515"/>
  <unicode hex="00F0"/>
  <outline>
    <contour>
      <point x="96" y="669" type="line"/>
      <point x="149" y="651"/>
      <point x="198" y="624"/>
      <point x="240" y="591" type="curve"/>
      <point x="132" y="496" type="line"/>
      <point x="156" y="467" type="line"/>
      <point x="269" y="567" type="line"/>
      <point x="349" y="494"/>
      <point x="400" y="399"/>
      <point x="410" y="302" type="curve"/>
      <point x="379" y="356"/>
      <point x="305" y="387"/>
      <point x="245" y="387" type="curve" smooth="yes"/>
      <point x="120" y="387"/>
      <point x="48" y="292"/>
      <point x="48" y="190" type="curve" smooth="yes"/>
      <point x="48" y="85"/>
      <point x="127" y="-13"/>
      <point x="246" y="-13" type="curve" smooth="yes"/>
      <point x="376" y="-13"/>
      <point x="461" y="83"/>
      <point x="461" y="261" type="curve" smooth="yes"/>
      <point x="461" y="391"/>
      <point x="395" y="509"/>
      <point x="299" y="593" type="curve"/>
      <point x="368" y="654" type="line"/>
      <point x="345" y="684" type="line"/>
      <point x="270" y="617" type="line"/>
      <point x="223" y="653"/>
      <point x="171" y="680"/>
      <point x="118" y="698" type="curve"/>
    </contour>
    <contour>
      <point x="321" y="346"/>
      <point x="379" y="295"/>
      <point x="408" y="248" type="curve"/>
      <point x="406" y="122"/>
      <point x="355" y="28"/>
      <point x="248" y="28" type="curve" smooth="yes"/>
      <point x="153" y="28"/>
      <point x="99" y="109"/>
      <point x="99" y="185" type="curve" smooth="yes"/>
      <point x="99" y="275"/>
      <point x="153" y="346"/>
      <point x="247" y="346" type="curve" smooth="yes"/>
    </contour>
  </outline>
</glyph>
<glyph name="ntilde" format="1">
  <advance width="516"/>
  <unicode hex="00F1"/>
  <outline>
    <contour>
      <point x="80" y="0" type="line"/>
      <point x="129" y="0" type="line"/>
      <point x="129" y="364" type="line"/>
      <point x="175" y="422"/>
      <point x="250" y="457"/>
      <point x="293" y="457" type="curve" smooth="yes"/>
      <point x="364" y="456"/>
      <point x="395" y="404"/>
      <point x="395" y="337" type="curve" smooth="yes"/>
      <point x="395" y="0" type="line"/>
      <point x="444" y="0" type="line"/>
      <point x="444" y="337" type="line" smooth="yes"/>
      <point x="444" y="431"/>
      <point x="405" y="498"/>
      <point x="300" y="498" type="curve" smooth="yes"/>
      <point x="240" y="498"/>
      <point x="169" y="457"/>
      <point x="128" y="409" type="curve"/>
      <point x="108" y="485" type="line"/>
      <point x="80" y="485" type="line"/>
    </contour>
    <contour>
      <point x="361" y="608"/>
      <point x="398" y="636"/>
      <point x="398" y="699" type="curve"/>
      <point x="360" y="699" type="line"/>
      <point x="357" y="668"/>
      <point x="343" y="646"/>
      <point x="315" y="646" type="curve" smooth="yes"/>
      <point x="280" y="646"/>
      <point x="258" y="703"/>
      <point x="202" y="703" type="curve" smooth="yes"/>
      <point x="156" y="703"/>
      <point x="119" y="675"/>
      <point x="119" y="612" type="curve"/>
      <point x="158" y="612" type="line"/>
      <point x="161" y="643"/>
      <point x="174" y="665"/>
      <point x="203" y="665" type="curve" smooth="yes"/>
      <point x="237" y="665"/>
      <point x="269" y="608"/>
      <point x="315" y="608" type="curve" smooth="yes"/>
    </contour>
  </outline>
</glyph>
<glyph name="ograve" format="1">
  <advance width="497"/>
  <unicode hex="00F2"/>
  <outline>
    <contour>
      <point x="48" y="97"/>
      <point x="100" y="-13"/>
      <point x="241" y="-13" type="curve" smooth="yes"/>
      <point x="382" y="-13"/>
      <point x="449" y="92"/>
      <point x="449" y="239" type="curve" smooth="yes"/>
      <point x="449" y="389"/>
      <point x="394" y="498"/>
      <point x="251" y="498" type="curve" smooth="yes"/>
      <point x="111" y="498"/>
      <point x="50" y="389"/>
      <point x="48" y="245" type="curve"/>
    </contour>
    <contour>
      <point x="363" y="459"/>
      <point x="398" y="356"/>
      <point x="398" y="239" type="curve" smooth="yes"/>
      <point x="398" y="123"/>
      <point x="350" y="26"/>
      <point x="242" y="26" type="curve" smooth="yes"/>
      <point x="133" y="26"/>
      <point x="99" y="127"/>
      <point x="99" y="246" type="curve" smooth="yes"/>
      <point x="99" y="360"/>
      <point x="146" y="459"/>
      <point x="253" y="459" type="curve" smooth="yes"/>
    </contour>
    <contour>
      <point x="165" y="742" type="line"/>
      <point x="250" y="589" type="line"/>
      <point x="287" y="589" type="line"/>
      <point x="226" y="742" type="line"/>
    </contour>
  </outline>
</glyph>
<glyph name="odieresis" format="1">
  <advance width="497"/>
  <unicode hex="00F6"/>
  <outline>
    <contour>
      <point x="48" y="97"/>
      <point x="100" y="-13"/>
      <point x="241" y="-13" type="curve" smooth="yes"/>
      <point x="382" y="-13"/>
      <point x="449" y="92"/>
      <point x="449" y="239" type="curve" smooth="yes"/>
      <point x="449" y="389"/>
      <point x="394" y="498"/>
      <point x="251" y="498" type="curve" smooth="yes"/>
      <point x="111" y="498"/>
      <point x="50" y="389"/>
      <point x="48" y="245" type="curve"/>
    </contour>
    <contour>
      <point x="363" y="459"/>
      <point x="398" y="356"/>
      <point x="398" y="239" type="curve" smooth="yes"/>
      <point x="398" y="123"/>
      <point x="350" y="26"/>
      <point x="242" y="26" type="curve" smooth="yes"/>
      <point x="133" y="26"/>
      <point x="99" y="127"/>
      <point x="99" y="246" type="curve" smooth="yes"/>
      <point x="99" y="360"/>
      <point x="146" y="459"/>
      <point x="253" y="459" type="curve" smooth="yes"/>
    </contour>
    <contour>
      <point x="144" y="633"/>
      <point x="158" y="618"/>
      <point x="181" y="618" type="curve" smooth="yes"/>
      <point x="201" y="618"/>
      <point x="218" y="633"/>
      <point x="218" y="655" type="curve" smooth="yes"/>
      <point x="218" y="676"/>
      <point x="201" y="691"/>
      <point x="181" y="691" type="curve" smooth="yes"/>
      <point x="158" y="691"/>
      <point x="144" y="676"/>
      <point x="144" y="655" type="curve" smooth="yes"/>
    </contour>
    <contour>
      <point x="303" y="633"/>
      <point x="317" y="618"/>
      <point x="340" y="618" type="curve" smooth="yes"/>
      <point x="360" y="618"/>
      <point x="377" y="633"/>
      <point x="377" y="655" type="curve" smooth="yes"/>
      <point x="377" y="676"/>
      <point x="360" y="691"/>
      <point x="340" y="691" type="curve" smooth="yes"/>
      <point x="317" y="691"/>
      <point x="303" y="676"/>
      <point x="303" y="655" type="curve" smooth="yes"/>
    </contour>
  </outline>
</glyph>
<glyph name="divide" format="1">
  <advance width="497"/>
  <unicode hex="00F7"/>
  <outline>
    <contour>
      <point x="467" y="255" type="line"/>
      <point x="457" y="292" type="line"/>
      <point x="30" y="292" type="line"/>
      <point x="38" y="255" type="line"/>
    </contour>
    <contour>
      <point x="210" y="393"/>
      <point x="225" y="377"/>
      <point x="248" y="377" type="curve" smooth="yes"/>
      <point x="269" y="377"/>
      <point x="287" y="393"/>
      <point x="287" y="415" type="curve" smooth="yes"/>
      <point x="287" y="437"/>
      <point x="269" y="453"/>
      <point x="248" y="453" type="curve" smooth="yes"/>
      <point x="225" y="453"/>
      <point x="210" y="437"/>
      <point x="210" y="415" type="curve" smooth="yes"/>
    </contour>
    <contour>
      <point x="213" y="90"/>
      <point x="228" y="74"/>
      <point x="251" y="74" type="curve" smooth="yes"/>
      <point x="272" y="74"/>
      <point x="290" y="90"/>
      <point x="290" y="112" type="curve" smooth="yes"/>
      <point x="290" y="134"/>
      <point x="272" y="150"/>
      <point x="251" y="150" type="curve" smooth="yes"/>
      <point x="228" y="150"/>
      <point x="213" y="134"/>
      <point x="213" y="112" type="curve" smooth="yes"/>
    </contour>
  </outline>
</glyph>
<glyph name="oslash" format="1">
  <advance width="497"/>
  <unicode hex="00F8"/>
  <outline>
    <contour>
      <point x="48" y="97"/>
      <point x="100" y="-13"/>
      <point x="241" y="-13" type="curve" smooth="yes"/>
      <point x="382" y="-13"/>
      <point x="449" y="92"/>
      <point x="449" y="239" type="curve" smooth="yes"/>
      <point x="449" y="389"/>
      <point x="394" y="498"/>
      <point x="251" y="498" type="curve" smooth="yes"/>
      <point x="111" y="498"/>
      <point x="50" y="389"/>
      <point x="48" y="245" type="curve"/>
    </contour>
    <contour>
      <point x="284" y="457"/>
      <point x="309" y="449"/>
      <point x="329" y="434" type="curve"/>
      <point x="142" y="73" type="line"/>
      <point x="110" y="113"/>
      <point x="99" y="176"/>
      <point x="99" y="246" type="curve" smooth="yes"/>
      <point x="99" y="360"/>
      <point x="146" y="457"/>
      <point x="253" y="457" type="curve" smooth="yes"/>
    </contour>
    <contour>
      <point x="398" y="123"/>
      <point x="350" y="28"/>
      <point x="242" y="28" type="curve" smooth="yes"/>
      <point x="216" y="28"/>
      <point x="195" y="33"/>
      <point x="177" y="43" type="curve"/>
      <point x="362" y="400" type="line"/>
      <point x="388" y="359"/>
      <point x="398" y="301"/>
      <point x="398" y="239" type="curve" smooth="yes"/>
    </contour>
  </outline>
</glyph>
<glyph name="udieresis" format="1">
  <advance width="496"/>
  <unicode hex="00FC"/>
  <outline>
    <contour>
      <point x="416" y="485" type="line"/>
      <point x="367" y="485" type="line"/>
      <point x="367" y="99" type="line"/>
      <point x="320" y="55"/>
      <point x="259" y="29"/>
      <point x="222" y="29" type="curve" smooth="yes"/>
      <point x="153" y="29"/>
      <point x="121" y="81"/>
      <point x="121" y="147" type="curve" smooth="yes"/>
      <point x="121" y="485" type="line"/>
      <point x="72" y="485" type="line"/>
      <point x="72" y="150" type="line" smooth="yes"/>
      <point x="72" y="54"/>
      <point x="110" y="-12"/>
      <point x="217" y="-12" type="curve" smooth="yes"/>
      <point x="269" y="-12"/>
      <point x="326" y="17"/>
      <point x="368" y="55" type="curve"/>
      <point x="387" y="0" type="line"/>
      <point x="416" y="0" type="line"/>
    </contour>
    <contour>
      <point x="137" y="633"/>
      <point x="151" y="618"/>
      <point x="174" y="618" type="curve" smooth="yes"/>
      <point x="194" y="618"/>
      <point x="211" y="633"/>
      <point x="211" y="655" type="curve" smooth="yes"/>
      <point x="211" y="676"/>
      <point x="194" y="691"/>
      <point x="174" y="691" type="curve" smooth="yes"/>
      <point x="151" y="691"/>
      <point x="137" y="676"/>
      <point x="137" y="655" type="curve" smooth="yes"/>
    </contour>
    <contour>
      <point x="296" y="633"/>
      <point x="310" y="618"/>
      <point x="333" y="618" type="curve" smooth="yes"/>
      <point x="353" y="618"/>
      <point x="370" y="633"/>
      <point x="370" y="655" type="curve" smooth="yes"/>
      <point x="370" y="676"/>
      <point x="353" y="691"/>
      <point x="333" y="691" type="curve" smooth="yes"/>
      <point x="310" y="691"/>
      <point x="296" y="676"/>
      <point x="296" y="655" type="curve" smooth="yes"/>
    </contour>
  </outline>
</glyph>
<glyph name="yacute" format="1">
  <advance width="436"/>
  <unicode hex="00FD"/>
  <outline>
    <contour>
      <point x="244" y="742" type="line"/>
      <point x="184" y="589" type="line"/>
      <point x="220" y="589" type="line"/>
      <point x="306" y="742" type="line"/>
    </contour>
    <contour>
      <point x="199" y="0" type="line"/>
      <point x="168" y="-98" type="line"/>
      <point x="151" y="-143"/>
      <point x="120" y="-164"/>
      <point x="69" y="-181" type="curve"/>
      <point x="74" y="-219" type="line"/>
      <point x="138" y="-206"/>
      <point x="187" y="-167"/>
      <point x="207" y="-112" type="curve" smooth="yes"/>
      <point x="426" y="485" type="line"/>
      <point x="376" y="485" type="line"/>
      <point x="222" y="56" type="line"/>
      <point x="62" y="485" type="line"/>
      <point x="10" y="475" type="line"/>
    </contour>
  </outline>
</glyph>
<glyph name="ydieresis" format="1">
  <advance width="436"/>
  <unicode hex="00FF"/>
  <outline>
    <contour>
      <point x="108" y="633"/>
      <point x="122" y="618"/>
      <point x="145" y="618" type="curve" smooth="yes"/>
      <point x="165" y="618"/>
      <point x="182" y="633"/>
      <point x="182" y="655" type="curve" smooth="yes"/>
      <point x="182" y="676"/>
      <point x="165" y="691"/>
      <point x="145" y="691" type="curve" smooth="yes"/>
      <point x="122" y="691"/>
      <point x="108" y="676"/>
      <point x="108" y="655" type="curve" smooth="yes"/>
    </contour>
    <contour>
      <point x="267" y="633"/>
      <point x="281" y="618"/>
      <point x="304" y="618" type="curve" smooth="yes"/>
      <point x="324" y="618"/>
      <point x="341" y="633"/>
      <point x="341" y="655" type="curve" smooth="yes"/>
      <point x="341" y="676"/>
      <point x="324" y="691"/>
      <point x="304" y="691" type="curve" smooth="yes"/>
      <point x="281" y="691"/>
      <point x="267" y="676"/>
      <point x="267" y="655" type="curve" smooth="yes"/>
    </contour>
    <contour>
      <point x="199" y="0" type="line"/>
      <point x="168" y="-98" type="line"/>
      <point x="151" y="-143"/>
      <point x="120" y="-164"/>
      <point x="69" y="-181" type="curve"/>
      <point x="74" y="-219" type="line"/>
      <point x="138" y="-206"/>
      <point x="187" y="-167"/>
      <point x="207" y="-112" type="curve" smooth="yes"/>
      <point x="426" y="485" type="line"/>
      <point x="376" y="485" type="line"/>
      <point x="222" y="56" type="line"/>
      <point x="62" y="485" type="line"/>
      <point x="10" y="475" type="line"/>
    </contour>
  </outline>
</glyph>
<glyph name="Amacron" format="1">
  <advance width="592"/>
  <unicode hex="0100"/>
  <outline>
    <contour>
      <point x="313" y="680" type="line"/>
      <point x="267" y="680" type="line"/>
      <point x="20" y="0" type="line"/>
      <point x="69" y="0" type="line"/>
      <point x="146" y="213" type="line"/>
      <point x="441" y="213" type="line"/>
      <point x="522" y="0" type="line"/>
      <point x="572" y="11" type="line"/>
    </contour>
    <contour>
      <point x="291" y="614" type="line"/>
      <point x="427" y="252" type="line"/>
      <point x="160" y="252" type="line"/>
    </contour>
    <contour>
      <point x="170" y="827" type="line"/>
      <point x="170" y="790" type="line"/>
      <point x="411" y="790" type="line"/>
      <point x="411" y="827" type="line"/>
    </contour>
  </outline>
</glyph>
<glyph name="Abreve" format="1">
  <advance width="592"/>
  <unicode hex="0102"/>
  <outline>
    <contour>
      <point x="313" y="680" type="line"/>
      <point x="267" y="680" type="line"/>
      <point x="20" y="0" type="line"/>
      <point x="69" y="0" type="line"/>
      <point x="146" y="213" type="line"/>
      <point x="441" y="213" type="line"/>
      <point x="522" y="0" type="line"/>
      <point x="572" y="11" type="line"/>
    </contour>
    <contour>
      <point x="291" y="614" type="line"/>
      <point x="427" y="252" type="line"/>
      <point x="160" y="252" type="line"/>
    </contour>
    <contour>
      <point x="377" y="751"/>
      <point x="420" y="814"/>
      <point x="420" y="881" type="curve"/>
      <point x="379" y="881" type="line"/>
      <point x="379" y="831"/>
      <point x="346" y="790"/>
      <point x="290" y="790" type="curve" smooth="yes"/>
      <point x="234" y="790"/>
      <point x="201" y="834"/>
      <point x="201" y="881" type="curve"/>
      <point x="160" y="881" type="line"/>
      <point x="160" y="814"/>
      <point x="206" y="751"/>
      <point x="290" y="751" type="curve" smooth="yes"/>
    </contour>
  </outline>
</glyph>
<glyph name="Aogonek" format="1">
  <advance width="592"/>
  <unicode hex="0104"/>
  <outline>
    <contour>
      <point x="313" y="680" type="line"/>
      <point x="267" y="680" type="line"/>
      <point x="20" y="0" type="line"/>
      <point x="69" y="0" type="line"/>
      <point x="146" y="213" type="line"/>
      <point x="441" y="213" type="line"/>
      <point x="521" y="2" type="line"/>
      <point x="487" y="-25"/>
      <point x="461" y="-72"/>
      <point x="461" y="-111" type="curve" smooth="yes"/>
      <point x="461" y="-169"/>
      <point x="506" y="-207"/>
      <point x="566" y="-207" type="curve" smooth="yes"/>
      <point x="600" y="-207"/>
      <point x="629" y="-195"/>
      <point x="646" y="-177" type="curve"/>
      <point x="624" y="-150" type="line"/>
      <point x="608" y="-164"/>
      <point x="591" y="-171"/>
      <point x="569" y="-171" type="curve" smooth="yes"/>
      <point x="543" y="-171"/>
      <point x="507" y="-152"/>
      <point x="507" y="-112" type="curve" smooth="yes"/>
      <point x="507" y="-58"/>
      <point x="532" y="-25"/>
      <point x="572" y="11" type="curve"/>
    </contour>
    <contour>
      <point x="291" y="614" type="line"/>
      <point x="427" y="252" type="line"/>
      <point x="160" y="252" type="line"/>
    </contour>
  </outline>
</glyph>
<glyph name="aogonek" format="1">
  <advance width="481"/>
  <unicode hex="0105"/>
  <outline>
    <contour>
      <point x="201" y="498"/>
      <point x="123" y="482"/>
      <point x="86" y="456" type="curve"/>
      <point x="105" y="423" type="line"/>
      <point x="145" y="442"/>
      <point x="178" y="457"/>
      <point x="244" y="457" type="curve" smooth="yes"/>
      <point x="323" y="457"/>
      <point x="360" y="408"/>
      <point x="360" y="341" type="curve" smooth="yes"/>
      <point x="360" y="281" type="line"/>
      <point x="225" y="281" type="line" smooth="yes"/>
      <point x="123" y="281"/>
      <point x="52" y="229"/>
      <point x="52" y="136" type="curve" smooth="yes"/>
      <point x="52" y="51"/>
      <point x="105" y="-13"/>
      <point x="215" y="-13" type="curve" smooth="yes"/>
      <point x="277" y="-13"/>
      <point x="330" y="15"/>
      <point x="363" y="52" type="curve"/>
      <point x="375" y="15" type="line"/>
      <point x="342" y="-13"/>
      <point x="311" y="-64"/>
      <point x="311" y="-111" type="curve" smooth="yes"/>
      <point x="311" y="-169"/>
      <point x="356" y="-207"/>
      <point x="416" y="-207" type="curve" smooth="yes"/>
      <point x="450" y="-207"/>
      <point x="479" y="-195"/>
      <point x="496" y="-177" type="curve"/>
      <point x="474" y="-150" type="line"/>
      <point x="458" y="-164"/>
      <point x="441" y="-171"/>
      <point x="419" y="-171" type="curve" smooth="yes"/>
      <point x="393" y="-171"/>
      <point x="357" y="-149"/>
      <point x="357" y="-109" type="curve" smooth="yes"/>
      <point x="357" y="-60"/>
      <point x="379" y="-27"/>
      <point x="409" y="0" type="curve"/>
      <point x="409" y="340" type="line" smooth="yes"/>
      <point x="409" y="435"/>
      <point x="352" y="498"/>
      <point x="241" y="498" type="curve" smooth="yes"/>
    </contour>
    <contour>
      <point x="146" y="28"/>
      <point x="103" y="76"/>
      <point x="103" y="136" type="curve" smooth="yes"/>
      <point x="103" y="196"/>
      <point x="141" y="244"/>
      <point x="229" y="244" type="curve" smooth="yes"/>
      <point x="360" y="244" type="line"/>
      <point x="360" y="109" type="line"/>
      <point x="329" y="63"/>
      <point x="282" y="28"/>
      <point x="219" y="28" type="curve" smooth="yes"/>
    </contour>
  </outline>
</glyph>
<glyph name="Cacute" format="1">
  <advance width="569"/>
  <unicode hex="0106"/>
  <outline>
    <contour>
      <point x="426" y="651"/>
      <point x="458" y="638"/>
      <point x="499" y="621" type="curve"/>
      <point x="519" y="657" type="line"/>
      <point x="481" y="683"/>
      <point x="397" y="694"/>
      <point x="356" y="694" type="curve" smooth="yes"/>
      <point x="159" y="694"/>
      <point x="66" y="536"/>
      <point x="66" y="336" type="curve" smooth="yes"/>
      <point x="66" y="150"/>
      <point x="141" y="-14"/>
      <point x="350" y="-14" type="curve"/>
      <point x="407" y="-14"/>
      <point x="481" y="3"/>
      <point x="519" y="23" type="curve"/>
      <point x="495" y="59" type="line"/>
      <point x="459" y="43"/>
      <point x="417" y="29"/>
      <point x="345" y="29" type="curve"/>
      <point x="189" y="29"/>
      <point x="121" y="174"/>
      <point x="121" y="337" type="curve" smooth="yes"/>
      <point x="121" y="530"/>
      <point x="211" y="650"/>
      <point x="354" y="651" type="curve" smooth="yes"/>
    </contour>
    <contour>
      <point x="373" y="892" type="line"/>
      <point x="313" y="739" type="line"/>
      <point x="349" y="739" type="line"/>
      <point x="435" y="892" type="line"/>
    </contour>
  </outline>
</glyph>
<glyph name="Dcaron" format="1">
  <advance width="658"/>
  <unicode hex="010E"/>
  <outline>
    <contour>
      <point x="100" y="0" type="line"/>
      <point x="301" y="0" type="line" smooth="yes"/>
      <point x="500" y="0"/>
      <point x="592" y="154"/>
      <point x="592" y="344" type="curve" smooth="yes"/>
      <point x="592" y="530"/>
      <point x="514" y="680"/>
      <point x="304" y="680" type="curve" smooth="yes"/>
      <point x="100" y="680" type="line"/>
    </contour>
    <contour>
      <point x="312" y="641" type="line" smooth="yes"/>
      <point x="468" y="641"/>
      <point x="541" y="505"/>
      <point x="541" y="343" type="curve" smooth="yes"/>
      <point x="541" y="167"/>
      <point x="445" y="39"/>
      <point x="302" y="39" type="curve" smooth="yes"/>
      <point x="149" y="39" type="line"/>
      <point x="149" y="641" type="line"/>
    </contour>
    <contour>
      <point x="371" y="891" type="line"/>
      <point x="285" y="772" type="line"/>
      <point x="202" y="891" type="line"/>
      <point x="150" y="891" type="line"/>
      <point x="266" y="738" type="line"/>
      <point x="306" y="738" type="line"/>
      <point x="421" y="891" type="line"/>
    </contour>
  </outline>
</glyph>
<glyph name="dcaron" format="1">
  <advance width="672"/>
  <unicode hex="010F"/>
  <outline>
    <contour>
      <point x="440" y="705" type="line"/>
      <point x="391" y="696" type="line"/>
      <point x="391" y="444" type="line"/>
      <point x="352" y="475"/>
      <point x="300" y="498"/>
      <point x="256" y="498" type="curve" smooth="yes"/>
      <point x="114" y="498"/>
      <point x="48" y="391"/>
      <point x="48" y="241" type="curve" smooth="yes"/>
      <point x="48" y="92"/>
      <point x="114" y="-13"/>
      <point x="256" y="-13" type="curve" smooth="yes"/>
      <point x="303" y="-13"/>
      <point x="356" y="10"/>
      <point x="397" y="43" type="curve"/>
      <point x="413" y="0" type="line"/>
      <point x="440" y="0" type="line"/>
    </contour>
    <contour>
      <point x="294" y="457"/>
      <point x="349" y="438"/>
      <point x="391" y="399" type="curve"/>
      <point x="391" y="87" type="line"/>
      <point x="349" y="48"/>
      <point x="294" y="28"/>
      <point x="254" y="28" type="curve" smooth="yes"/>
      <point x="144" y="28"/>
      <point x="99" y="125"/>
      <point x="99" y="244" type="curve" smooth="yes"/>
      <point x="99" y="362"/>
      <point x="144" y="457"/>
      <point x="254" y="457" type="curve"/>
    </contour>
    <contour>
      <point x="642" y="679"/>
      <point x="627" y="702"/>
      <point x="603" y="702" type="curve" smooth="yes"/>
      <point x="577" y="702"/>
      <point x="565" y="683"/>
      <point x="565" y="663" type="curve" smooth="yes"/>
      <point x="565" y="649"/>
      <point x="577" y="625"/>
      <point x="601" y="625" type="curve"/>
      <point x="599" y="589"/>
      <point x="575" y="562"/>
      <point x="540" y="543" type="curve"/>
      <point x="556" y="518" type="line"/>
      <point x="612" y="545"/>
      <point x="642" y="598"/>
      <point x="642" y="659" type="curve" smooth="yes"/>
    </contour>
  </outline>
</glyph>
<glyph name="Emacron" format="1">
  <advance width="515"/>
  <unicode hex="0112"/>
  <outline>
    <contour>
      <point x="100" y="0" type="line"/>
      <point x="475" y="0" type="line"/>
      <point x="469" y="39" type="line"/>
      <point x="149" y="39" type="line"/>
      <point x="149" y="329" type="line"/>
      <point x="354" y="329" type="line"/>
      <point x="349" y="368" type="line"/>
      <point x="149" y="368" type="line"/>
      <point x="149" y="641" type="line"/>
      <point x="452" y="641" type="line"/>
      <point x="447" y="680" type="line"/>
      <point x="100" y="680" type="line"/>
    </contour>
    <contour>
      <point x="144" y="827" type="line"/>
      <point x="144" y="790" type="line"/>
      <point x="385" y="790" type="line"/>
      <point x="385" y="827" type="line"/>
    </contour>
  </outline>
</glyph>
<glyph name="Edotaccent" format="1">
  <advance width="515"/>
  <unicode hex="0116"/>
  <outline>
    <contour>
      <point x="100" y="0" type="line"/>
      <point x="475" y="0" type="line"/>
      <point x="469" y="39" type="line"/>
      <point x="149" y="39" type="line"/>
      <point x="149" y="329" type="line"/>
      <point x="354" y="329" type="line"/>
      <point x="349" y="368" type="line"/>
      <point x="149" y="368" type="line"/>
      <point x="149" y="641" type="line"/>
      <point x="452" y="641" type="line"/>
      <point x="447" y="680" type="line"/>
      <point x="100" y="680" type="line"/>
    </contour>
    <contour>
      <point x="226" y="784"/>
      <point x="241" y="768"/>
      <point x="264" y="768" type="curve" smooth="yes"/>
      <point x="285" y="768"/>
      <point x="303" y="784"/>
      <point x="303" y="806" type="curve" smooth="yes"/>
      <point x="303" y="828"/>
      <point x="285" y="844"/>
      <point x="264" y="844" type="curve" smooth="yes"/>
      <point x="241" y="844"/>
      <point x="226" y="828"/>
      <point x="226" y="806" type="curve" smooth="yes"/>
    </contour>
  </outline>
</glyph>
<glyph name="Eogonek" format="1">
  <advance width="515"/>
  <unicode hex="0118"/>
  <outline>
    <contour>
      <point x="100" y="0" type="line"/>
      <point x="343" y="0" type="line"/>
      <point x="311" y="-28"/>
      <point x="286" y="-73"/>
      <point x="286" y="-111" type="curve" smooth="yes"/>
      <point x="286" y="-169"/>
      <point x="331" y="-207"/>
      <point x="391" y="-207" type="curve" smooth="yes"/>
      <point x="425" y="-207"/>
      <point x="454" y="-195"/>
      <point x="471" y="-177" type="curve"/>
      <point x="449" y="-150" type="line"/>
      <point x="433" y="-164"/>
      <point x="416" y="-171"/>
      <point x="394" y="-171" type="curve" smooth="yes"/>
      <point x="368" y="-171"/>
      <point x="332" y="-152"/>
      <point x="332" y="-112" type="curve" smooth="yes"/>
      <point x="332" y="-61"/>
      <point x="360" y="-24"/>
      <point x="394" y="0" type="curve"/>
      <point x="475" y="0" type="line"/>
      <point x="469" y="39" type="line"/>
      <point x="149" y="39" type="line"/>
      <point x="149" y="329" type="line"/>
      <point x="354" y="329" type="line"/>
      <point x="349" y="368" type="line"/>
      <point x="149" y="368" type="line"/>
      <point x="149" y="641" type="line"/>
      <point x="452" y="641" type="line"/>
      <point x="447" y="680" type="line"/>
      <point x="100" y="680" type="line"/>
    </contour>
  </outline>
</glyph>
<glyph name="Ecaron" format="1">
  <advance width="515"/>
  <unicode hex="011A"/>
  <outline>
    <contour>
      <point x="100" y="0" type="line"/>
      <point x="475" y="0" type="line"/>
      <point x="469" y="39" type="line"/>
      <point x="149" y="39" type="line"/>
      <point x="149" y="329" type="line"/>
      <point x="354" y="329" type="line"/>
      <point x="349" y="368" type="line"/>
      <point x="149" y="368" type="line"/>
      <point x="149" y="641" type="line"/>
      <point x="452" y="641" type="line"/>
      <point x="447" y="680" type="line"/>
      <point x="100" y="680" type="line"/>
    </contour>
    <contour>
      <point x="348" y="892" type="line"/>
      <point x="262" y="773" type="line"/>
      <point x="179" y="892" type="line"/>
      <point x="127" y="892" type="line"/>
      <point x="243" y="739" type="line"/>
      <point x="283" y="739" type="line"/>
      <point x="398" y="892" type="line"/>
    </contour>
  </outline>
</glyph>
<glyph name="Gcedilla" format="1">
  <advance width="630"/>
  <unicode hex="0122"/>
  <outline>
    <contour>
      <point x="352" y="342" type="line"/>
      <point x="346" y="303" type="line"/>
      <point x="499" y="303" type="line"/>
      <point x="499" y="52" type="line"/>
      <point x="466" y="40"/>
      <point x="425" y="29"/>
      <point x="377" y="29" type="curve" smooth="yes"/>
      <point x="221" y="29"/>
      <point x="121" y="142"/>
      <point x="121" y="325" type="curve" smooth="yes"/>
      <point x="121" y="519"/>
      <point x="217" y="653"/>
      <point x="386" y="653" type="curve" smooth="yes"/>
      <point x="457" y="653"/>
      <point x="489" y="641"/>
      <point x="531" y="624" type="curve"/>
      <point x="550" y="657" type="line"/>
      <point x="513" y="683"/>
      <point x="425" y="694"/>
      <point x="384" y="694" type="curve" smooth="yes"/>
      <point x="188" y="694"/>
      <point x="66" y="545"/>
      <point x="66" y="336" type="curve" smooth="yes"/>
      <point x="66" y="143"/>
      <point x="163" y="-3"/>
      <point x="357" y="-13" type="curve"/>
      <point x="333" y="-77" type="line"/>
      <point x="397" y="-77"/>
      <point x="432" y="-110"/>
      <point x="432" y="-138" type="curve" smooth="yes"/>
      <point x="432" y="-164"/>
      <point x="404" y="-185"/>
      <point x="362" y="-185" type="curve" smooth="yes"/>
      <point x="341" y="-185"/>
      <point x="315" y="-177"/>
      <point x="303" y="-171" type="curve"/>
      <point x="288" y="-202" type="line"/>
      <point x="306" y="-213"/>
      <point x="341" y="-221"/>
      <point x="365" y="-221" type="curve" smooth="yes"/>
      <point x="430" y="-221"/>
      <point x="474" y="-187"/>
      <point x="474" y="-136" type="curve" smooth="yes"/>
      <point x="474" y="-101"/>
      <point x="443" y="-62"/>
      <point x="383" y="-51" type="curve"/>
      <point x="397" y="-13" type="line"/>
      <point x="451" y="-9"/>
      <point x="515" y="9"/>
      <point x="548" y="31" type="curve"/>
      <point x="548" y="342" type="line"/>
    </contour>
  </outline>
</glyph>
<glyph name="gcedilla" format="1">
  <advance width="520"/>
  <unicode hex="0123"/>
  <outline>
    <contour>
      <point x="385" y="-221"/>
      <point x="440" y="-150"/>
      <point x="440" y="-53" type="curve" smooth="yes"/>
      <point x="440" y="485" type="line"/>
      <point x="413" y="485" type="line"/>
      <point x="396" y="440" type="line"/>
      <point x="356" y="473"/>
      <point x="303" y="498"/>
      <point x="256" y="498" type="curve" smooth="yes"/>
      <point x="114" y="498"/>
      <point x="48" y="391"/>
      <point x="48" y="241" type="curve" smooth="yes"/>
      <point x="48" y="92"/>
      <point x="114" y="-13"/>
      <point x="256" y="-13" type="curve" smooth="yes"/>
      <point x="300" y="-13"/>
      <point x="352" y="8"/>
      <point x="391" y="40" type="curve"/>
      <point x="391" y="-63" type="line" smooth="yes"/>
      <point x="391" y="-143"/>
      <point x="338" y="-180"/>
      <point x="256" y="-180" type="curve" smooth="yes"/>
      <point x="194" y="-180"/>
      <point x="168" y="-165"/>
      <point x="122" y="-145" type="curve"/>
      <point x="103" y="-180" type="line"/>
      <point x="141" y="-206"/>
      <point x="219" y="-221"/>
      <point x="258" y="-221" type="curve" smooth="yes"/>
    </contour>
    <contour>
      <point x="294" y="457"/>
      <point x="349" y="438"/>
      <point x="391" y="399" type="curve"/>
      <point x="391" y="87" type="line"/>
      <point x="349" y="48"/>
      <point x="294" y="28"/>
      <point x="254" y="28" type="curve" smooth="yes"/>
      <point x="144" y="28"/>
      <point x="99" y="125"/>
      <point x="99" y="244" type="curve" smooth="yes"/>
      <point x="99" y="362"/>
      <point x="144" y="457"/>
      <point x="254" y="457" type="curve" smooth="yes"/>
    </contour>
    <contour>
      <point x="217" y="598"/>
      <point x="232" y="575"/>
      <point x="256" y="575" type="curve" smooth="yes"/>
      <point x="282" y="575"/>
      <point x="294" y="594"/>
      <point x="294" y="614" type="curve" smooth="yes"/>
      <point x="294" y="628"/>
      <point x="282" y="652"/>
      <point x="258" y="652" type="curve"/>
      <point x="260" y="688"/>
      <point x="284" y="715"/>
      <point x="319" y="734" type="curve"/>
      <point x="303" y="759" type="line"/>
      <point x="247" y="732"/>
      <point x="217" y="679"/>
      <point x="217" y="618" type="curve" smooth="yes"/>
    </contour>
  </outline>
</glyph>
<glyph name="Imacron" format="1">
  <advance width="249"/>
  <unicode hex="012A"/>
  <outline>
    <contour>
      <point x="100" y="0" type="line"/>
      <point x="149" y="0" type="line"/>
      <point x="149" y="680" type="line"/>
      <point x="100" y="680" type="line"/>
    </contour>
    <contour>
      <point x="4" y="827" type="line"/>
      <point x="4" y="790" type="line"/>
      <point x="245" y="790" type="line"/>
      <point x="245" y="827" type="line"/>
    </contour>
  </outline>
</glyph>
<glyph name="imacron" format="1">
  <advance width="209"/>
  <unicode hex="012B"/>
  <outline>
    <contour>
      <point x="80" y="0" type="line"/>
      <point x="129" y="0" type="line"/>
      <point x="129" y="485" type="line"/>
      <point x="80" y="485" type="line"/>
    </contour>
    <contour>
      <point x="-16" y="677" type="line"/>
      <point x="-16" y="640" type="line"/>
      <point x="225" y="640" type="line"/>
      <point x="225" y="677" type="line"/>
    </contour>
  </outline>
</glyph>
<glyph name="Iogonek" format="1">
  <advance width="249"/>
  <unicode hex="012E"/>
  <outline>
    <contour>
      <point x="149" y="680" type="line"/>
      <point x="100" y="680" type="line"/>
      <point x="100" y="3" type="line"/>
      <point x="65" y="-25"/>
      <point x="39" y="-71"/>
      <point x="39" y="-111" type="curve" smooth="yes"/>
      <point x="39" y="-169"/>
      <point x="84" y="-207"/>
      <point x="144" y="-207" type="curve" smooth="yes"/>
      <point x="178" y="-207"/>
      <point x="207" y="-195"/>
      <point x="224" y="-177" type="curve"/>
      <point x="202" y="-150" type="line"/>
      <point x="186" y="-164"/>
      <point x="169" y="-171"/>
      <point x="147" y="-171" type="curve" smooth="yes"/>
      <point x="121" y="-171"/>
      <point x="85" y="-152"/>
      <point x="85" y="-112" type="curve" smooth="yes"/>
      <point x="85" y="-58"/>
      <point x="113" y="-24"/>
      <point x="149" y="0" type="curve"/>
    </contour>
  </outline>
</glyph>
<glyph name="iogonek" format="1">
  <advance width="217"/>
  <unicode hex="012F"/>
  <outline>
    <contour>
      <point x="84" y="4" type="line"/>
      <point x="49" y="-24"/>
      <point x="22" y="-71"/>
      <point x="22" y="-111" type="curve" smooth="yes"/>
      <point x="22" y="-169"/>
      <point x="67" y="-207"/>
      <point x="127" y="-207" type="curve" smooth="yes"/>
      <point x="161" y="-207"/>
      <point x="190" y="-195"/>
      <point x="207" y="-177" type="curve"/>
      <point x="185" y="-150" type="line"/>
      <point x="169" y="-164"/>
      <point x="152" y="-171"/>
      <point x="130" y="-171" type="curve" smooth="yes"/>
      <point x="104" y="-171"/>
      <point x="68" y="-152"/>
      <point x="68" y="-112" type="curve" smooth="yes"/>
      <point x="68" y="-62"/>
      <point x="97" y="-24"/>
      <point x="133" y="0" type="curve"/>
      <point x="133" y="485" type="line"/>
      <point x="84" y="485" type="line"/>
    </contour>
    <contour>
      <point x="70" y="616"/>
      <point x="85" y="600"/>
      <point x="108" y="600" type="curve" smooth="yes"/>
      <point x="129" y="600"/>
      <point x="147" y="616"/>
      <point x="147" y="638" type="curve" smooth="yes"/>
      <point x="147" y="660"/>
      <point x="129" y="676"/>
      <point x="108" y="676" type="curve" smooth="yes"/>
      <point x="85" y="676"/>
      <point x="70" y="660"/>
      <point x="70" y="638" type="curve" smooth="yes"/>
    </contour>
  </outline>
</glyph>
<glyph name="Idotaccent" format="1">
  <advance width="249"/>
  <unicode hex="0130"/>
  <outline>
    <contour>
      <point x="100" y="0" type="line"/>
      <point x="149" y="0" type="line"/>
      <point x="149" y="680" type="line"/>
      <point x="100" y="680" type="line"/>
    </contour>
    <contour>
      <point x="86" y="784"/>
      <point x="101" y="768"/>
      <point x="124" y="768" type="curve" smooth="yes"/>
      <point x="145" y="768"/>
      <point x="163" y="784"/>
      <point x="163" y="806" type="curve" smooth="yes"/>
      <point x="163" y="828"/>
      <point x="145" y="844"/>
      <point x="124" y="844" type="curve" smooth="yes"/>
      <point x="101" y="844"/>
      <point x="86" y="828"/>
      <point x="86" y="806" type="curve" smooth="yes"/>
    </contour>
  </outline>
</glyph>
<glyph name="dotlessi" format="1">
  <advance width="209"/>
  <unicode hex="0131"/>
  <outline>
    <contour>
      <point x="80" y="0" type="line"/>
      <point x="129" y="0" type="line"/>
      <point x="129" y="485" type="line"/>
      <point x="80" y="485" type="line"/>
    </contour>
    <contour>
      <point x="105" y="535" type="move" name="top"/>
    </contour>
  </outline>
</glyph>
<glyph name="Kcedilla" format="1">
  <advance width="580"/>
  <unicode hex="0136"/>
  <outline>
    <contour>
      <point x="362" y="-44"/>
      <point x="347" y="-21"/>
      <point x="323" y="-21" type="curve" smooth="yes"/>
      <point x="297" y="-21"/>
      <point x="285" y="-40"/>
      <point x="285" y="-60" type="curve" smooth="yes"/>
      <point x="285" y="-74"/>
      <point x="297" y="-98"/>
      <point x="321" y="-98" type="curve"/>
      <point x="319" y="-134"/>
      <point x="295" y="-161"/>
      <point x="260" y="-180" type="curve"/>
      <point x="276" y="-205" type="line"/>
      <point x="332" y="-178"/>
      <point x="362" y="-125"/>
      <point x="362" y="-64" type="curve" smooth="yes"/>
    </contour>
    <contour>
      <point x="519" y="663" type="line"/>
      <point x="485" y="695" type="line"/>
      <point x="149" y="325" type="line"/>
      <point x="149" y="680" type="line"/>
      <point x="100" y="680" type="line"/>
      <point x="100" y="0" type="line"/>
      <point x="149" y="0" type="line"/>
      <point x="149" y="269" type="line"/>
      <point x="236" y="362" type="line"/>
      <point x="508" y="0" type="line"/>
      <point x="570" y="0" type="line"/>
      <point x="269" y="397" type="line"/>
    </contour>
  </outline>
</glyph>
<glyph name="kcedilla" format="1">
  <advance width="453"/>
  <unicode hex="0137"/>
  <outline>
    <contour>
      <point x="80" y="0" type="line"/>
      <point x="129" y="0" type="line"/>
      <point x="129" y="206" type="line"/>
      <point x="203" y="280" type="line"/>
      <point x="390" y="0" type="line"/>
      <point x="449" y="0" type="line"/>
      <point x="236" y="313" type="line"/>
      <point x="391" y="467" type="line"/>
      <point x="354" y="498" type="line"/>
      <point x="129" y="264" type="line"/>
      <point x="129" y="706" type="line"/>
      <point x="80" y="696" type="line"/>
    </contour>
    <contour>
      <point x="286" y="-44"/>
      <point x="271" y="-21"/>
      <point x="247" y="-21" type="curve" smooth="yes"/>
      <point x="221" y="-21"/>
      <point x="209" y="-40"/>
      <point x="209" y="-60" type="curve" smooth="yes"/>
      <point x="209" y="-74"/>
      <point x="221" y="-98"/>
      <point x="245" y="-98" type="curve"/>
      <point x="243" y="-134"/>
      <point x="219" y="-161"/>
      <point x="184" y="-180" type="curve"/>
      <point x="200" y="-205" type="line"/>
      <point x="256" y="-178"/>
      <point x="286" y="-125"/>
      <point x="286" y="-64" type="curve" smooth="yes"/>
    </contour>
  </outline>
</glyph>
<glyph name="Lacute" format="1">
  <advance width="491"/>
  <unicode hex="0139"/>
  <outline>
    <contour>
      <point x="471" y="0" type="line"/>
      <point x="466" y="39" type="line"/>
      <point x="149" y="39" type="line"/>
      <point x="149" y="680" type="line"/>
      <point x="100" y="680" type="line"/>
      <point x="100" y="0" type="line"/>
    </contour>
    <contour>
      <point x="182" y="892" type="line"/>
      <point x="122" y="739" type="line"/>
      <point x="158" y="739" type="line"/>
      <point x="244" y="892" type="line"/>
    </contour>
  </outline>
</glyph>
<glyph name="lacute" format="1">
  <advance width="209"/>
  <unicode hex="013A"/>
  <outline>
    <contour>
      <point x="80" y="0" type="line"/>
      <point x="129" y="0" type="line"/>
      <point x="129" y="684" type="line"/>
      <point x="80" y="674" type="line"/>
    </contour>
    <contour>
      <point x="152" y="865" type="line"/>
      <point x="92" y="712" type="line"/>
      <point x="128" y="712" type="line"/>
      <point x="214" y="865" type="line"/>
    </contour>
  </outline>
</glyph>
<glyph name="Lcedilla" format="1">
  <advance width="491"/>
  <unicode hex="013B"/>
  <outline>
    <contour>
      <point x="471" y="0" type="line"/>
      <point x="466" y="39" type="line"/>
      <point x="149" y="39" type="line"/>
      <point x="149" y="680" type="line"/>
      <point x="100" y="680" type="line"/>
      <point x="100" y="0" type="line"/>
    </contour>
    <contour>
      <point x="341" y="-44"/>
      <point x="326" y="-21"/>
      <point x="302" y="-21" type="curve" smooth="yes"/>
      <point x="276" y="-21"/>
      <point x="264" y="-40"/>
      <point x="264" y="-60" type="curve" smooth="yes"/>
      <point x="264" y="-74"/>
      <point x="276" y="-98"/>
      <point x="300" y="-98" type="curve"/>
      <point x="298" y="-134"/>
      <point x="274" y="-161"/>
      <point x="239" y="-180" type="curve"/>
      <point x="255" y="-205" type="line"/>
      <point x="311" y="-178"/>
      <point x="341" y="-125"/>
      <point x="341" y="-64" type="curve" smooth="yes"/>
    </contour>
  </outline>
</glyph>
<glyph name="lcedilla" format="1">
  <advance width="209"/>
  <unicode hex="013C"/>
  <outline>
    <contour>
      <point x="80" y="0" type="line"/>
      <point x="129" y="0" type="line"/>
      <point x="129" y="706" type="line"/>
      <point x="80" y="696" type="line"/>
    </contour>
    <contour>
      <point x="145" y="-44"/>
      <point x="130" y="-21"/>
      <point x="106" y="-21" type="curve" smooth="yes"/>
      <point x="80" y="-21"/>
      <point x="68" y="-40"/>
      <point x="68" y="-60" type="curve" smooth="yes"/>
      <point x="68" y="-74"/>
      <point x="80" y="-98"/>
      <point x="104" y="-98" type="curve"/>
      <point x="102" y="-134"/>
      <point x="78" y="-161"/>
      <point x="43" y="-180" type="curve"/>
      <point x="59" y="-205" type="line"/>
      <point x="115" y="-178"/>
      <point x="145" y="-125"/>
      <point x="145" y="-64" type="curve" smooth="yes"/>
    </contour>
  </outline>
</glyph>
<glyph name="Lcaron" format="1">
  <advance width="491"/>
  <unicode hex="013D"/>
  <outline>
    <contour>
      <point x="471" y="0" type="line"/>
      <point x="466" y="39" type="line"/>
      <point x="149" y="39" type="line"/>
      <point x="149" y="680" type="line"/>
      <point x="100" y="680" type="line"/>
      <point x="100" y="0" type="line"/>
    </contour>
    <contour>
      <point x="402" y="679"/>
      <point x="387" y="702"/>
      <point x="363" y="702" type="curve" smooth="yes"/>
      <point x="337" y="702"/>
      <point x="325" y="683"/>
      <point x="325" y="663" type="curve" smooth="yes"/>
      <point x="325" y="649"/>
      <point x="337" y="625"/>
      <point x="361" y="625" type="curve"/>
      <point x="359" y="589"/>
      <point x="335" y="562"/>
      <point x="300" y="543" type="curve"/>
      <point x="316" y="518" type="line"/>
      <point x="372" y="545"/>
      <point x="402" y="598"/>
      <point x="402" y="659" type="curve" smooth="yes"/>
    </contour>
  </outline>
</glyph>
<glyph name="lcaron" format="1">
  <advance width="361"/>
  <unicode hex="013E"/>
  <outline>
    <contour>
      <point x="80" y="0" type="line"/>
      <point x="129" y="0" type="line"/>
      <point x="129" y="706" type="line"/>
      <point x="80" y="696" type="line"/>
    </contour>
    <contour>
      <point x="331" y="679"/>
      <point x="316" y="702"/>
      <point x="292" y="702" type="curve" smooth="yes"/>
      <point x="266" y="702"/>
      <point x="254" y="683"/>
      <point x="254" y="663" type="curve" smooth="yes"/>
      <point x="254" y="649"/>
      <point x="266" y="625"/>
      <point x="290" y="625" type="curve"/>
      <point x="288" y="589"/>
      <point x="264" y="562"/>
      <point x="229" y="543" type="curve"/>
      <point x="245" y="518" type="line"/>
      <point x="301" y="545"/>
      <point x="331" y="598"/>
      <point x="331" y="659" type="curve" smooth="yes"/>
    </contour>
  </outline>
</glyph>
<glyph name="Lslash" format="1">
  <advance width="492"/>
  <unicode hex="0141"/>
  <outline>
    <contour>
      <point x="472" y="0" type="line"/>
      <point x="467" y="39" type="line"/>
      <point x="150" y="39" type="line"/>
      <point x="150" y="324" type="line"/>
      <point x="279" y="438" type="line"/>
      <point x="257" y="472" type="line"/>
      <point x="150" y="378" type="line"/>
      <point x="150" y="680" type="line"/>
      <point x="101" y="680" type="line"/>
      <point x="101" y="336" type="line"/>
      <point x="8" y="255" type="line"/>
      <point x="30" y="219" type="line"/>
      <point x="101" y="281" type="line"/>
      <point x="101" y="0" type="line"/>
    </contour>
  </outline>
</glyph>
<glyph name="Nacute" format="1">
  <advance width="658"/>
  <unicode hex="0143"/>
  <outline>
    <contour>
      <point x="100" y="0" type="line"/>
      <point x="149" y="0" type="line"/>
      <point x="149" y="574" type="line"/>
      <point x="163" y="545" type="line"/>
      <point x="531" y="0" type="line"/>
      <point x="558" y="0" type="line"/>
      <point x="558" y="680" type="line"/>
      <point x="509" y="680" type="line"/>
      <point x="509" y="111" type="line"/>
      <point x="475" y="170" type="line"/>
      <point x="128" y="680" type="line"/>
      <point x="100" y="680" type="line"/>
    </contour>
    <contour>
      <point x="357" y="892" type="line"/>
      <point x="297" y="739" type="line"/>
      <point x="333" y="739" type="line"/>
      <point x="419" y="892" type="line"/>
    </contour>
  </outline>
</glyph>
<glyph name="Ncedilla" format="1">
  <advance width="658"/>
  <unicode hex="0145"/>
  <outline>
    <contour>
      <point x="100" y="0" type="line"/>
      <point x="149" y="0" type="line"/>
      <point x="149" y="574" type="line"/>
      <point x="163" y="545" type="line"/>
      <point x="531" y="0" type="line"/>
      <point x="558" y="0" type="line"/>
      <point x="558" y="680" type="line"/>
      <point x="509" y="680" type="line"/>
      <point x="509" y="111" type="line"/>
      <point x="475" y="170" type="line"/>
      <point x="128" y="680" type="line"/>
      <point x="100" y="680" type="line"/>
    </contour>
    <contour>
      <point x="372" y="-44"/>
      <point x="357" y="-21"/>
      <point x="333" y="-21" type="curve" smooth="yes"/>
      <point x="307" y="-21"/>
      <point x="295" y="-40"/>
      <point x="295" y="-60" type="curve" smooth="yes"/>
      <point x="295" y="-74"/>
      <point x="307" y="-98"/>
      <point x="331" y="-98" type="curve"/>
      <point x="329" y="-134"/>
      <point x="305" y="-161"/>
      <point x="270" y="-180" type="curve"/>
      <point x="286" y="-205" type="line"/>
      <point x="342" y="-178"/>
      <point x="372" y="-125"/>
      <point x="372" y="-64" type="curve" smooth="yes"/>
    </contour>
  </outline>
</glyph>
<glyph name="ncedilla" format="1">
  <advance width="516"/>
  <unicode hex="0146"/>
  <outline>
    <contour>
      <point x="80" y="0" type="line"/>
      <point x="129" y="0" type="line"/>
      <point x="129" y="364" type="line"/>
      <point x="175" y="422"/>
      <point x="250" y="457"/>
      <point x="293" y="457" type="curve" smooth="yes"/>
      <point x="364" y="456"/>
      <point x="395" y="404"/>
      <point x="395" y="337" type="curve" smooth="yes"/>
      <point x="395" y="0" type="line"/>
      <point x="444" y="0" type="line"/>
      <point x="444" y="337" type="line" smooth="yes"/>
      <point x="444" y="431"/>
      <point x="405" y="498"/>
      <point x="300" y="498" type="curve" smooth="yes"/>
      <point x="240" y="498"/>
      <point x="169" y="457"/>
      <point x="128" y="409" type="curve"/>
      <point x="108" y="485" type="line"/>
      <point x="80" y="485" type="line"/>
    </contour>
    <contour>
      <point x="307" y="-44"/>
      <point x="292" y="-21"/>
      <point x="268" y="-21" type="curve" smooth="yes"/>
      <point x="242" y="-21"/>
      <point x="230" y="-40"/>
      <point x="230" y="-60" type="curve" smooth="yes"/>
      <point x="230" y="-74"/>
      <point x="242" y="-98"/>
      <point x="266" y="-98" type="curve"/>
      <point x="264" y="-134"/>
      <point x="240" y="-161"/>
      <point x="205" y="-180" type="curve"/>
      <point x="221" y="-205" type="line"/>
      <point x="277" y="-178"/>
      <point x="307" y="-125"/>
      <point x="307" y="-64" type="curve" smooth="yes"/>
    </contour>
  </outline>
</glyph>
<glyph name="Ncaron" format="1">
  <advance width="658"/>
  <unicode hex="0147"/>
  <outline>
    <contour>
      <point x="100" y="0" type="line"/>
      <point x="149" y="0" type="line"/>
      <point x="149" y="574" type="line"/>
      <point x="163" y="545" type="line"/>
      <point x="531" y="0" type="line"/>
      <point x="558" y="0" type="line"/>
      <point x="558" y="680" type="line"/>
      <point x="509" y="680" type="line"/>
      <point x="509" y="111" type="line"/>
      <point x="475" y="170" type="line"/>
      <point x="128" y="680" type="line"/>
      <point x="100" y="680" type="line"/>
    </contour>
    <contour>
      <point x="411" y="892" type="line"/>
      <point x="325" y="773" type="line"/>
      <point x="242" y="892" type="line"/>
      <point x="190" y="892" type="line"/>
      <point x="306" y="739" type="line"/>
      <point x="346" y="739" type="line"/>
      <point x="461" y="892" type="line"/>
    </contour>
  </outline>
</glyph>
<glyph name="ncaron" format="1">
  <advance width="516"/>
  <unicode hex="0148"/>
  <outline>
    <contour>
      <point x="80" y="0" type="line"/>
      <point x="129" y="0" type="line"/>
      <point x="129" y="364" type="line"/>
      <point x="175" y="422"/>
      <point x="250" y="457"/>
      <point x="293" y="457" type="curve" smooth="yes"/>
      <point x="364" y="456"/>
      <point x="395" y="404"/>
      <point x="395" y="337" type="curve" smooth="yes"/>
      <point x="395" y="0" type="line"/>
      <point x="444" y="0" type="line"/>
      <point x="444" y="337" type="line" smooth="yes"/>
      <point x="444" y="431"/>
      <point x="405" y="498"/>
      <point x="300" y="498" type="curve" smooth="yes"/>
      <point x="240" y="498"/>
      <point x="169" y="457"/>
      <point x="128" y="409" type="curve"/>
      <point x="108" y="485" type="line"/>
      <point x="80" y="485" type="line"/>
    </contour>
    <contour>
      <point x="354" y="742" type="line"/>
      <point x="268" y="623" type="line"/>
      <point x="185" y="742" type="line"/>
      <point x="133" y="742" type="line"/>
      <point x="249" y="589" type="line"/>
      <point x="289" y="589" type="line"/>
      <point x="404" y="742" type="line"/>
    </contour>
  </outline>
</glyph>
<glyph name="Omacron" format="1">
  <advance width="699"/>
  <unicode hex="014C"/>
  <outline>
    <contour>
      <point x="633" y="531"/>
      <point x="551" y="696"/>
      <point x="353" y="696" type="curve" smooth="yes"/>
      <point x="167" y="696"/>
      <point x="66" y="537"/>
      <point x="66" y="337" type="curve" smooth="yes"/>
      <point x="66" y="152"/>
      <point x="148" y="-14"/>
      <point x="347" y="-14" type="curve" smooth="yes"/>
      <point x="536" y="-14"/>
      <point x="633" y="156"/>
      <point x="633" y="345" type="curve" smooth="yes"/>
    </contour>
    <contour>
      <point x="189" y="27"/>
      <point x="121" y="175"/>
      <point x="121" y="338" type="curve" smooth="yes"/>
      <point x="121" y="514"/>
      <point x="211" y="654"/>
      <point x="354" y="654" type="curve"/>
      <point x="511" y="654"/>
      <point x="578" y="507"/>
      <point x="578" y="344" type="curve" smooth="yes"/>
      <point x="578" y="167"/>
      <point x="489" y="27"/>
      <point x="345" y="27" type="curve"/>
    </contour>
    <contour>
      <point x="223" y="827" type="line"/>
      <point x="223" y="790" type="line"/>
      <point x="464" y="790" type="line"/>
      <point x="464" y="827" type="line"/>
    </contour>
  </outline>
</glyph>
